<svg width="948" height="973" viewBox="0 0 948 973" fill="none" xmlns="http://www.w3.org/2000/svg">
<path d="M446.252 0.836121C375.247 5.09302 301.733 27.3656 240.611 63.0929C190.132 92.663 144.671 131.887 108.028 177.496C58.0812 239.677 23.8711 314.325 8.81862 393.761C2.50875 427.056 0.456146 449.936 0.456146 486.5C0.456146 523.063 2.50875 545.944 8.81862 579.239C22.3506 651.074 51.6953 719.108 94.2679 777.564C119.431 812.075 151.589 845.598 184.507 871.595C188.612 874.864 194.694 880.109 198.115 883.301C207.617 892.195 220.237 900.861 234.529 908.235C245.172 913.708 284.4 932.408 292.306 935.752C337.388 954.832 383.305 966.311 433.708 971.176C452.79 973.076 495.21 973.076 514.292 971.176C576.554 965.17 634.103 948.447 686.787 921.005C730.272 898.429 738.026 893.64 755.283 878.665C759.084 875.396 767.447 868.402 773.909 863.005C786.908 852.287 811.008 829.026 822.563 816.028C882.469 748.906 922.456 667.721 939.181 579.239C945.491 545.944 947.544 523.063 947.544 486.5C947.544 449.936 945.491 427.056 939.181 393.761C922.608 305.963 883.609 226.298 824.311 158.873C812.908 145.874 788.049 121.701 774.669 110.527C710.43 56.7836 635.32 21.5124 554.812 7.22144C519.157 0.988159 481.45 -1.2923 446.252 0.836121ZM499.468 4.56091C601.11 10.7942 693.933 47.8898 772.388 113.567C791.926 129.911 824.844 163.206 822.487 164.118C821.879 164.346 819.37 166.778 816.861 169.439C814.353 172.099 809.031 176.736 805.002 179.777C798.008 185.022 781.055 195.36 779.534 195.36C779.078 195.36 775.657 191.331 771.856 186.39C739.014 143.974 697.886 107.334 649.308 77.2318L637.752 70.0864L641.249 68.0339C645.963 65.2974 658.963 55.4153 661.775 52.5267C663.828 50.3223 663.904 50.0182 662.764 48.954C661.623 47.8138 661.015 48.1179 655.542 52.8308C649.536 57.9239 639.197 65.2214 635.396 66.8937C633.571 67.7299 632.811 67.5018 626.577 63.9291C617.454 58.76 586.589 43.7089 574.958 38.8439C540.064 24.1729 497.795 10.9462 469.439 5.70111C465.714 4.94098 462.445 4.25684 462.293 4.1048C461.684 3.4967 487.228 3.80072 499.468 4.56091ZM424.585 8.66571C383.457 19.1559 343.545 34.8151 308.423 54.2751C302.721 57.4678 297.78 60.0523 297.552 60.0523C296.26 60.0523 289.874 50.2463 288.353 45.8374L287.517 43.4809L291.774 41.5805C330.318 24.401 380.264 11.3263 426.866 6.15723C437.965 4.94098 437.585 5.39709 424.585 8.66571ZM453.018 24.325C454.69 53.1349 456.059 103.685 455.222 104.521C455.07 104.673 446.404 104.521 435.989 104.065C414.094 103.229 384.294 100.189 382.697 98.5922C382.241 98.1361 390.755 80.8806 395.925 71.8347C401.171 62.5608 412.802 45.2292 418.656 38.0078C421.469 34.4351 426.942 28.4298 430.667 24.629C438.726 16.4954 450.889 7.22144 451.649 8.58972C451.953 9.12183 452.562 16.1913 453.018 24.325ZM461.532 11.4783C472.708 18.6998 487.988 33.3708 498.707 47.2057C512.163 64.5372 532.157 98.1361 529.876 99.5804C528.812 100.265 525.695 100.645 508.59 102.241C496.807 103.381 460.848 104.978 459.86 104.445C459.632 104.293 459.176 93.4991 458.948 80.4245C458.415 56.0235 457.199 26.8335 456.211 14.975C455.907 11.3263 455.907 8.36169 456.211 8.36169C456.439 8.36169 458.872 9.80597 461.532 11.4783ZM437.509 13.0746C419.036 28.3538 400.182 54.1231 384.522 85.4415C381.177 92.2069 378.288 97.8321 378.136 97.9841C377.756 98.3642 363.767 95.1715 355.025 92.663C340.733 88.5582 321.803 80.5765 322.715 79.0562C323.4 77.916 340.201 64.0051 347.043 58.8361C373.27 39.072 405.352 21.8165 434.468 11.8584C441.69 9.4259 441.842 9.4259 437.509 13.0746ZM496.427 21.3604C526.76 34.8151 556.408 54.4271 582.332 78.144C586.741 82.0968 590.39 85.6696 590.542 85.9736C591.227 87.5699 544.017 98.8203 536.414 98.8203C535.122 98.8203 534.21 97.6801 532.233 93.6512C524.707 78.144 510.187 55.3394 499.239 41.8085C492.169 32.9907 475.977 16.9514 470.351 13.0746C468.374 11.7064 466.778 10.4141 466.778 10.3381C466.778 9.57794 486.848 17.1035 496.427 21.3604ZM503.649 17.8636C525.011 23.7169 552.151 33.3708 575.034 43.1008C587.882 48.4979 613.881 61.1165 622.776 66.2095L629.694 70.1624L625.209 72.4429C619.051 75.5595 608.18 80.2725 601.262 82.857L595.56 84.9094L586.817 77.0038C557.701 50.3983 531.853 33.4468 492.626 15.2791C490.193 14.2149 491.333 14.4429 503.649 17.8636ZM405.884 19.3079C377.68 31.9265 341.645 55.7194 322.259 74.3433L318.686 77.6879L313.137 73.8871C310.02 71.8347 305.838 68.6421 303.71 66.7417L299.985 63.321L305.61 60.1283C325.148 49.2581 349.855 37.7037 371.522 29.418C384.446 24.477 409.837 16.0392 412.042 15.9633C412.65 15.9633 409.913 17.4835 405.884 19.3079ZM288.429 54.7312C289.646 56.6316 291.47 59.0641 292.534 60.2043L294.435 62.2568L290.786 64.3852C282.956 69.0222 262.201 82.933 253.535 89.3943C219.021 115.24 187.091 147.47 162.992 180.917L156.454 189.963L152.273 186.39C144.139 179.397 136.688 168.907 133.419 159.861L131.671 155.148L148.168 138.957C186.331 101.329 226.623 72.6709 272.54 50.4743L283.944 45.0012L285.084 48.1179C285.768 49.8662 287.289 52.8308 288.429 54.7312ZM301.277 69.6302C303.862 71.9868 308.119 75.2554 310.704 77.0038L315.417 80.1204L303.862 91.9028C290.938 105.13 283.26 114.099 271.78 129.303C253.687 153.247 236.43 182.665 224.19 210.183C221.605 216.036 219.249 221.129 218.945 221.433C218.108 222.346 200.623 215.504 187.395 209.043C177.664 204.254 166.641 197.793 160.103 192.928C159.191 192.319 169.378 178.105 179.945 165.182C207.617 131.203 240.839 101.405 277.634 77.3079C288.201 70.3904 295.803 65.5255 296.336 65.4494C296.488 65.3734 298.768 67.2738 301.277 69.6302ZM649.612 81.9448C688.459 106.118 724.57 136.676 753.154 169.667C759.92 177.42 770.412 190.419 773.757 195.208L775.581 197.641L768.815 200.757C747.833 210.487 717.652 220.597 688.687 227.515C686.939 227.971 686.559 227.743 685.647 225.538C679.033 208.815 667.401 184.338 658.887 169.135C644.366 143.213 621.864 112.503 604.683 95.0195C601.186 91.4468 598.297 88.3301 598.297 88.1021C598.297 87.874 599.741 87.1899 601.566 86.7338C606.051 85.3655 619.431 79.5883 627.185 75.7115L633.647 72.4429L637.068 74.3433C638.969 75.4075 644.594 78.8282 649.612 81.9448ZM343.469 93.0431C351.604 95.8557 371.294 101.101 373.954 101.101C374.791 101.101 375.703 101.405 375.931 101.861C376.159 102.241 375.019 105.738 373.346 109.615C359.586 142.073 346.89 185.174 337.844 230.099C335.107 243.934 334.879 244.77 333.206 244.77C326.668 244.77 287.365 238.917 269.12 235.192C254.295 232.152 224.114 224.322 222.974 223.182C222.366 222.574 233.313 199.161 240.459 185.858C259.693 149.903 280.523 121.245 307.359 93.7272L318.61 82.2488L327.125 86.2777C331.838 88.4821 339.136 91.5228 343.469 93.0431ZM601.034 96.6918C623.46 119.497 646.799 153.095 664.436 187.835C672.799 204.33 683.138 227.895 682.302 228.655C681.161 229.795 647.483 236.18 625.285 239.373C606.051 242.186 581.572 244.998 581.04 244.466C580.812 244.314 579.519 238.537 578.075 231.696C568.572 186.086 554.508 141.237 539.455 108.474C538.011 105.282 537.023 102.621 537.327 102.621C542.116 102.621 577.771 94.6394 588.034 91.2947C590.542 90.4586 592.975 89.7744 593.355 89.7744C593.811 89.6984 597.232 92.8911 601.034 96.6918ZM388.703 103.761C401.018 105.738 416.603 107.106 436.445 107.942C447.012 108.398 455.831 108.854 455.907 109.006C456.363 109.462 457.503 249.787 457.047 250.243C456.363 250.852 398.586 249.635 380.872 248.571C351.452 246.899 339.06 245.682 339.06 244.466C339.06 244.01 339.592 241.045 340.201 237.929C349.019 192.319 361.335 148.991 374.791 116.228C376.919 111.059 379.048 105.89 379.504 104.673C380.416 102.241 379.808 102.317 388.703 103.761ZM535.654 109.234C544.853 129.074 557.093 163.738 564.467 190.799C568.42 205.546 575.87 238.005 576.402 242.87L576.63 245.15L571.309 245.682C550.175 247.811 503.573 250.015 479.17 250.167H461.532L461.076 221.433C460.924 205.622 460.544 173.848 460.24 150.815L459.784 108.854L467.69 108.398C472.023 108.17 482.895 107.638 491.865 107.182C500.836 106.65 513.152 105.662 519.233 104.978C525.315 104.217 530.865 103.533 531.549 103.457C532.461 103.381 533.678 105.054 535.654 109.234ZM130.607 163.206C133.115 170.047 139.501 179.093 147.179 186.694L154.25 193.612L150.981 198.477C132.051 226.755 113.654 265.218 101.718 301.554C99.0573 309.612 96.6245 316.225 96.2444 316.225C95.0281 316.225 82.4844 305.963 75.3383 299.121C67.5079 291.52 59.7537 281.79 56.1806 274.796L53.7479 270.235L57.7771 262.254C70.2448 237.397 88.7182 208.283 106.888 185.022C112.741 177.496 128.326 158.873 128.782 158.873C128.934 158.873 129.77 160.849 130.607 163.206ZM837.311 180.309C858.065 206.078 876.767 235.344 892.428 266.663L898.585 278.977L890.831 286.807C882.773 294.789 870.153 304.671 859.434 311.436C851.147 316.681 842.253 321.774 842.025 321.394C841.873 321.318 840.808 318.277 839.668 314.705C827.504 277.609 810.323 242.414 788.125 209.195C784.4 203.57 781.511 198.933 781.663 198.857C781.815 198.705 784.324 197.336 787.212 195.74C794.283 191.863 802.037 186.846 808.119 182.285C813.668 178.105 823.019 169.211 824.235 166.854C825.224 165.182 824.692 164.574 837.311 180.309ZM165.349 201.061C177.893 209.347 205.945 222.574 215.068 224.626C216.36 224.93 217.424 225.234 217.424 225.386C217.424 225.538 215.6 230.327 213.319 236.18C203.816 260.581 194.846 290.76 188.536 319.266C186.635 327.703 182.834 347.695 182.074 352.865C181.77 354.917 181.314 356.513 181.009 356.513C179.793 356.513 164.437 351.04 153.185 346.555C133.876 338.954 101.794 322.002 100.578 318.809C100.122 317.517 109.548 289.391 115.022 275.937C123.232 255.716 131.975 237.777 142.238 219.913C147.179 211.323 156.834 196.12 157.366 196.12C157.671 196.12 161.244 198.325 165.349 201.061ZM785.236 211.551C803.101 238.461 817.241 265.751 828.797 295.701C832.218 304.519 838.604 323.218 838.3 323.522C838.224 323.598 834.651 325.423 830.469 327.475C812.908 336.293 786.68 346.479 763.646 353.473C748.669 358.034 721.453 365.103 720.997 364.647C720.769 364.419 719.781 358.718 718.716 351.876C713.091 314.249 704.348 278.673 692.337 243.782C689.6 235.952 688.459 231.62 689.068 231.468C689.524 231.315 694.693 229.947 700.547 228.427C726.319 221.738 753.687 212.236 771.248 203.798C774.593 202.202 777.634 201.061 777.938 201.213C778.242 201.441 781.511 206.078 785.236 211.551ZM248.974 234.508C271.324 239.981 295.879 244.314 323.324 247.583C332.674 248.647 334.423 249.027 334.119 250.015C333.967 250.699 332.598 258.757 331.078 267.955C326.364 297.905 322.335 332.416 319.598 367.535C318.914 376.277 318.23 383.651 318.078 383.803C317.546 384.335 285.084 380.002 267.067 377.037C245.781 373.465 225.331 369.056 208.149 364.495C187.471 359.022 184.887 358.11 185.191 356.665C185.343 355.981 186.331 350.432 187.395 344.351C194.237 305.659 207.313 259.593 220.009 229.491L221.149 226.679L228.219 228.959C232.097 230.175 241.447 232.684 248.974 234.508ZM687.775 242.11C694.313 260.125 702.828 289.924 707.389 311.284C712.178 333.48 717.348 364.723 716.36 365.711C715.447 366.547 688.611 371.944 670.062 375.061C646.875 378.938 637.524 380.154 601.186 384.259C598.525 384.563 597.536 384.411 597.536 383.727C597.536 380.686 594.268 341.766 592.899 329.148C590.39 304.823 584.841 265.066 582.256 252.98C581.8 250.928 581.572 249.103 581.724 248.951C581.876 248.723 588.338 247.887 596.092 247.051C622.32 244.086 646.343 240.285 668.617 235.648C676.144 234.052 682.758 232.836 683.366 232.912C684.05 232.912 685.799 236.561 687.775 242.11ZM358.066 250.852C374.943 252.22 397.065 253.132 441.919 254.348L457.655 254.804V322.914V390.948L427.094 390.492C410.217 390.188 387.562 389.428 376.691 388.82C354.797 387.528 323.095 384.867 322.487 384.259C321.043 382.891 329.177 304.443 333.815 275.177C337.844 249.559 337.844 249.331 338.832 249.331C339.136 249.331 347.803 250.015 358.066 250.852ZM577.999 251.004C579.139 255.641 584.081 287.491 586.057 303.302C590.01 334.469 594.344 383.651 593.203 384.715C592.595 385.247 557.625 387.908 533.222 389.2C525.239 389.58 505.701 390.188 489.889 390.492L461.076 390.948L461.304 322.914L461.456 254.88L464.345 254.348C465.866 254.12 473.848 253.892 481.982 253.892C503.801 253.892 567.432 250.699 568.572 249.635C568.724 249.483 570.853 249.331 573.285 249.331C577.163 249.331 577.619 249.483 577.999 251.004ZM54.052 278.825C59.9057 289.391 74.1219 304.519 88.2621 315.313L95.5602 320.862L93.4316 328.615C84.9931 358.566 78.0751 400.298 75.6423 435.95C74.9582 445.528 74.1979 455.79 73.8938 458.602L73.3617 463.771L60.818 457.462C37.5551 445.68 21.8945 434.505 10.7952 421.659L8.28646 418.846L10.263 407.216C16.5729 370.12 25.6956 336.825 38.6954 304.062C43.1047 292.888 51.0871 275.177 51.6193 275.177C51.8473 275.177 52.9877 276.849 54.052 278.825ZM905.275 294.408C920.632 330.972 931.123 367.459 937.661 407.064C940.474 424.091 940.626 425.915 939.714 425.307C939.257 425.079 937.053 426.372 934.924 428.348C927.93 434.581 914.55 443.323 900.866 450.545C890.679 455.866 866.2 466.508 865.592 465.9C865.44 465.748 864.907 458.906 864.451 450.773C862.019 408.812 855.557 368.676 845.75 334.697C843.849 328.007 843.393 325.575 844.077 325.119C844.609 324.815 849.703 321.698 855.481 318.277C869.697 309.764 882.849 299.882 892.047 290.76C896.305 286.579 899.954 283.234 900.258 283.31C900.486 283.462 902.767 288.403 905.275 294.408ZM109.852 329.68C126.273 339.486 149.004 349.748 169.986 356.969C175.764 358.946 180.629 360.618 180.629 360.618C180.705 360.694 180.477 362.594 180.097 364.875C175.688 392.165 172.191 434.581 171.355 472.437C171.051 484.371 170.594 494.102 170.29 494.102C168.998 494.102 140.794 486.88 131.139 484.143C113.273 478.974 92.2152 471.677 81.116 466.812L77.4669 465.216L77.923 457.082C80.5078 408.584 87.6539 361.91 97.7649 327.019L98.9812 322.99L100.958 324.283C102.098 325.043 106.127 327.475 109.852 329.68ZM842.329 336.521C852.364 373.085 858.141 408.888 860.574 449.632C860.954 456.702 861.334 463.771 861.334 465.292V468.028L845.218 473.425C813.44 484.067 784.856 491.213 744.336 498.662C735.441 500.335 727.991 501.703 727.915 501.703C727.839 501.703 727.535 485.36 727.307 465.368C726.851 426.676 725.634 406.684 721.681 372.781L721.301 368.904L731.032 366.471C768.359 357.197 802.493 345.263 830.165 331.884C834.955 329.604 839.136 327.627 839.364 327.627C839.668 327.627 840.96 331.656 842.329 336.521ZM192.033 364.039C227.231 374.377 259.313 380.534 313.973 387.528L318.154 388.06L318.002 390.72C316.253 417.022 314.733 465.52 314.733 494.786V514.854L308.499 514.322C267.523 510.901 221.834 504.592 187.319 497.674L175.232 495.242L175.46 473.577C175.688 442.563 178.121 407.9 182.074 378.558C182.682 373.769 183.442 367.992 183.67 365.787C183.974 363.659 184.278 361.834 184.354 361.834C184.43 361.834 187.928 362.823 192.033 364.039ZM718.26 376.809C719.248 384.563 721.073 403.947 722.289 419.226C722.669 425.079 723.278 446.136 723.506 466.052L723.962 502.235L713.395 503.831C683.366 508.468 640.945 513.105 612.361 515.006C608.636 515.234 604.15 515.69 602.554 515.918L599.589 516.298L600.045 502.767C600.501 486.88 599.437 418.618 598.373 400.982C597.917 394.293 597.689 388.82 597.765 388.668C597.917 388.592 605.671 387.604 615.022 386.539C635.244 384.259 654.553 381.598 672.571 378.482C687.243 376.049 712.482 371.032 713.015 370.5C713.167 370.348 714.231 370.196 715.371 370.196C717.424 370.196 717.5 370.348 718.26 376.809ZM348.943 390.644C378.364 392.925 398.282 393.913 428.995 394.445L456.895 394.901V457.158C456.895 491.365 456.743 519.567 456.591 519.871C455.755 521.239 375.095 518.883 338.756 516.526C329.557 515.918 321.271 515.386 320.283 515.386H318.534V493.493C318.534 469.472 319.522 435.417 320.967 406.76L321.879 388.288L325.68 388.744C327.809 388.972 338.3 389.808 348.943 390.644ZM595.18 417.326C596.092 441.347 596.548 515.082 595.788 515.842C594.572 517.058 530.561 519.567 482.895 520.251L460.696 520.555L460.848 457.69L461.076 394.901L487.684 394.369C522.35 393.761 558.385 391.937 587.654 389.352L593.355 388.82L593.811 391.48C594.116 392.925 594.724 404.555 595.18 417.326ZM26.5318 441.347C35.7306 448.112 50.783 456.93 62.8706 462.707L73.7418 467.876V490.301C73.7418 521.087 75.5663 548.529 79.3675 574.678C80.3557 581.139 81.0399 586.613 80.8879 586.765C80.5078 587.221 61.7302 577.035 53.2157 571.789C36.6428 561.527 19.5378 547.008 12.4677 537.05C10.111 533.782 9.12271 532.945 7.90635 533.25C5.85374 533.706 5.7017 532.489 4.48534 510.825C3.19295 487.564 4.48534 449.48 7.29817 427.892L7.7543 424.471L14.0642 430.628C17.5612 434.049 23.1869 438.838 26.5318 441.347ZM941.842 438.382C945.415 477.986 944.655 516.754 939.561 553.394C928.766 631.234 900.03 704.969 855.937 767.91C847.118 780.376 839.364 787.294 822.335 797.86C802.341 810.25 767.219 824.921 738.938 832.751C736.81 833.359 736.201 834.119 746.769 822.641C771.628 795.655 796.107 759.928 813.44 725.189L818.99 714.167L830.317 709.682C859.814 698.051 889.311 680.644 904.211 666.201C909.305 661.26 909.381 661.184 907.784 660.044C906.188 658.979 905.884 659.131 901.778 663.236C890.223 674.715 865.592 690.222 843.089 700.18C833.51 704.361 821.575 709.302 821.423 709.074C821.347 708.922 823.627 703.296 826.516 696.455C838.148 668.709 848.335 634.502 854.112 603.944C855.253 598.091 856.393 592.846 856.697 592.314C856.925 591.782 861.258 589.501 866.276 587.297C893.644 575.21 918.731 559.703 933.86 545.488C939.029 540.699 939.181 540.471 937.813 539.027C936.445 537.582 936.369 537.582 932.187 541.763C922.913 550.885 909.913 560.159 892.884 569.737C882.317 575.742 858.446 587.221 857.837 586.613C857.685 586.46 858.141 581.747 858.978 576.122C862.931 548.833 864.451 529.373 865.06 497.294L865.516 470.385L872.738 467.496C897.597 457.69 924.965 442.487 936.217 432.225C938.345 430.324 940.246 428.804 940.474 428.728C940.702 428.728 941.31 433.061 941.842 438.382ZM87.5779 473.501C106.736 481.103 134.484 489.617 158.735 495.318L171.051 498.206V502.463C171.051 511.661 172.647 544.728 173.711 557.955C175.232 576.198 176.676 589.349 179.109 606.073C180.173 613.522 180.933 619.831 180.705 619.983C179.489 621.2 132.887 607.669 113.349 600.371C104.455 597.103 85.9814 589.501 85.3732 588.893C85.2972 588.741 84.3849 582.736 83.3206 575.438C79.2914 546.78 77.5429 521.163 77.5429 490.225C77.5429 478.974 77.695 469.776 77.923 469.776C78.0751 469.776 82.4844 471.449 87.5779 473.501ZM861.106 498.814C860.574 529.145 858.446 555.598 854.416 581.519C853.276 588.817 853.352 588.817 847.802 591.021C817.774 603.108 777.406 614.662 736.658 622.872C727.231 624.772 718.716 626.521 717.728 626.749C716.056 627.205 715.979 627.053 716.436 624.696C720.617 602.044 725.178 557.346 726.775 522.303C727.155 513.333 727.611 505.884 727.763 505.808C727.915 505.656 733.693 504.516 740.535 503.223C783.868 495.394 826.288 484.676 854.112 474.489C857.457 473.273 860.498 472.209 860.878 472.133C861.258 472.133 861.334 483.231 861.106 498.814ZM186.255 501.323C221.453 508.392 268.055 514.778 308.347 518.122L314.581 518.579L315.037 538.115C315.721 563.808 317.394 597.027 319.37 621.352C320.207 632.146 320.815 641.116 320.587 641.268C319.902 641.952 279.611 637.543 256.196 634.274C233.313 631.082 186.711 622.568 185.571 621.352C185.115 620.896 182.91 606.681 180.933 591.401C178.045 568.749 176.22 543.816 175.156 513.638C174.776 501.931 174.852 499.423 175.688 499.423C176.296 499.423 181.009 500.335 186.255 501.323ZM723.43 512.497C723.202 515.994 722.822 523.444 722.593 529.069C721.453 555.066 718.336 586.613 714.231 614.054C713.167 620.82 712.33 626.673 712.33 627.053C712.33 628.953 646.723 637.695 609.7 640.812C604.455 641.268 598.601 641.8 596.624 642.028L592.975 642.484L593.355 640.28C594.724 632.526 597.917 579.923 599.133 545.412C599.589 531.577 600.121 520.175 600.197 520.099C600.349 519.947 608.636 519.187 618.595 518.35C650.752 515.842 690.436 511.357 712.33 507.86C725.178 505.732 723.962 505.2 723.43 512.497ZM338.68 520.327C367.949 522.227 390.983 523.139 424.205 523.672L456.515 524.128L456.743 585.624L456.895 647.121L426.334 646.665C409.457 646.361 389.007 645.829 380.872 645.373C355.709 644.156 325.756 642.18 325.224 641.648C323.856 640.432 319.826 574.526 318.838 538.723L318.382 519.187H320.131C321.119 519.187 329.481 519.719 338.68 520.327ZM596.016 524.66C596.016 540.319 593.507 590.185 591.455 617.019C590.618 627.585 589.934 637.163 589.934 638.303C589.934 642.028 589.25 642.332 579.595 643.092C560.818 644.612 522.35 646.133 492.093 646.665L460.696 647.121V585.624V524.128L485.251 523.9C522.274 523.596 554.508 522.455 594.344 520.023C595.94 519.947 596.016 520.251 596.016 524.66ZM10.111 540.395C11.2513 541.915 15.3565 546.324 19.2337 550.277C32.1575 563.352 52.3795 577.111 75.3383 588.437L81.8762 591.63L82.7885 596.647C89.4024 632.906 101.87 674.563 115.098 704.209C116.162 706.717 116.923 708.846 116.771 708.998C115.858 709.986 87.1978 695.695 75.8704 688.625C61.046 679.352 46.6778 667.189 39.3796 657.763C36.8709 654.418 36.1107 653.886 34.9703 654.494C33.2978 655.407 32.5376 653.582 26.6839 634.806C18.0934 607.365 12.0116 580.227 8.36248 552.634C5.92976 534.162 6.00579 534.542 7.0701 536.214C7.60226 536.974 8.97066 538.875 10.111 540.395ZM98.3731 598.623C119.279 607.137 143.15 614.89 168.694 621.352L181.922 624.696L185.115 640.508C191.653 672.586 200.699 704.209 210.886 730.434C212.407 734.387 213.471 737.732 213.319 737.884C212.787 738.416 205.945 736.895 187.775 732.41C168.77 727.697 150.296 722.148 136.84 717.207C131.595 715.231 126.349 713.331 125.209 712.874C122.624 711.962 120.724 708.237 114.11 691.894C102.934 664.148 93.7357 632.83 87.8059 602.576C86.7416 596.723 86.4375 593.682 86.9697 593.91C87.4258 594.138 92.5954 596.266 98.3731 598.623ZM852.212 594.29C852.212 596.114 847.422 618.311 844.686 629.105C838.3 654.418 831.077 676.083 820.89 699.952C815.493 712.646 817.546 711.126 798.236 717.435C766.61 727.774 735.289 735.375 696.366 742.216C690.74 743.205 686.027 743.889 685.875 743.813C685.723 743.661 688.003 736.439 690.968 727.697C700.091 700.56 707.237 673.498 712.634 645.449C714.155 637.695 715.447 631.31 715.599 631.234C715.675 631.158 724.494 629.333 735.137 627.129C774.897 619.147 817.621 607.061 845.37 596.038C851.68 593.53 852.212 593.378 852.212 594.29ZM204.5 629.333C235.746 635.643 271.476 640.736 312.072 644.612C317.09 645.145 321.271 645.601 321.347 645.677C321.423 645.753 322.031 650.618 322.715 656.471C325.604 682.544 331.458 719.716 336.323 743.053C337.768 749.742 338.832 755.291 338.756 755.367C338.528 755.671 306.827 752.707 295.347 751.338C272.008 748.602 248.289 745.029 226.851 741.076L218.489 739.48L214.231 728.382C206.021 706.869 199.407 685.433 193.857 662.552C191.044 651.15 186.255 628.041 186.255 626.217C186.255 625.761 186.939 625.609 188.004 625.913C188.916 626.141 196.366 627.737 204.5 629.333ZM710.962 633.742C705.64 664.529 695.301 704.285 685.19 732.791L681.009 744.725L672.495 746.017C658.278 748.146 636.004 750.882 619.203 752.555C604.15 753.999 577.543 756.279 577.238 756.051C577.163 755.975 578.303 749.438 579.747 741.532C584.461 715.991 588.49 687.409 591.379 659.968C592.215 652.746 592.975 646.665 593.203 646.437C593.355 646.209 600.882 645.449 609.776 644.612C629.314 642.94 644.746 641.268 660.635 639.215C675.84 637.315 708.073 632.45 708.453 631.994C708.605 631.842 709.366 631.69 710.05 631.69C711.038 631.69 711.266 632.146 710.962 633.742ZM341.341 646.893C361.259 648.489 396.837 649.934 426.334 650.466L456.895 650.922V695.847C456.895 720.552 457.123 745.105 457.427 750.426L457.883 760.08L437.053 759.7C402.235 759.092 352.516 757.04 345.37 755.899C343.013 755.519 342.937 755.443 341.417 748.526C336.171 725.493 329.405 683.836 326.897 659.435C326.44 655.255 325.908 650.542 325.68 648.945L325.224 646.133H328.569C330.318 646.133 336.095 646.513 341.341 646.893ZM588.642 649.705C585.753 680.112 578.683 729.294 574.274 750.35L573.057 756.203L567.204 756.659C548.958 758.18 462.445 760.688 461.456 759.7C461.228 759.472 460.924 734.919 460.848 705.121L460.544 650.922L492.321 650.39C525.999 649.858 568.192 648.033 587.73 646.209C588.794 646.133 588.946 646.741 588.642 649.705ZM46.8298 671.294C61.3501 685.281 89.1743 702.308 113.73 712.266L119.887 714.775L125.361 725.873C143.226 761.753 167.173 796.264 194.313 825.378C198.723 830.015 202.22 833.891 201.992 833.891C201.84 833.891 196.746 832.219 190.74 830.167C150.829 816.712 118.139 798.012 102.554 779.844C100.274 777.184 97.3848 773.991 96.0924 772.699C89.0223 765.781 68.5723 732.334 56.0286 707.173C47.514 690.298 34.9703 661.412 34.9703 658.827C34.9703 658.447 36.2627 659.816 37.9352 661.868C39.5317 663.844 43.5609 668.101 46.8298 671.294ZM809.563 724.505C791.698 760.232 768.359 793.679 739.394 824.921C731.792 833.207 729.207 835.488 726.927 836.096C703.132 842.557 667.781 849.475 640.109 853.275C635.32 853.883 630.226 854.644 628.934 854.872C627.565 855.1 626.425 855.024 626.425 854.796C626.425 854.568 629.086 850.539 632.355 845.826C649.46 821.273 663.904 794.971 676.828 764.717C679.945 757.42 682.682 750.73 682.986 749.818C683.442 748.45 684.582 747.994 691.652 746.929C704.88 744.801 736.43 738.416 750.038 735.071C766.23 731.194 791.394 723.897 803.557 719.716C808.803 717.891 813.136 716.447 813.288 716.523C813.44 716.599 811.768 720.172 809.563 724.505ZM143.302 723.441C163.068 730.054 193.401 738.34 211.418 741.912L215.676 742.749L219.781 752.023C234.149 785.013 258.172 824.769 277.33 847.498L280.827 851.603L276.722 851.071C269.196 850.159 238.558 843.773 224.646 840.277L210.962 836.78L206.173 832.143C185.723 812.227 161.852 781.517 144.823 753.315C138.817 743.433 125.437 718.576 125.437 717.359C125.437 717.131 126.729 717.435 128.326 718.12C129.846 718.804 136.612 721.16 143.302 723.441ZM266.079 751.338C285.616 754.151 303.938 756.279 326.136 758.256C333.434 758.94 339.668 759.7 339.972 759.852C340.277 760.08 340.581 760.84 340.581 761.524C340.581 764.109 349.703 797.252 354.265 811.391C359.13 826.366 365.896 844.381 370.533 854.948C372.054 858.368 373.27 861.333 373.27 861.561C373.27 862.017 371.598 861.865 345.902 859.661C327.277 858.064 316.557 856.924 298.008 854.416L286.985 852.895L284.02 849.703C275.049 839.821 256.348 812.911 245.553 794.363C237.95 781.289 220.465 746.093 220.465 743.889C220.465 743.813 226.547 744.877 233.997 746.245C241.371 747.538 255.816 749.894 266.079 751.338ZM678.881 749.514C678.881 751.186 667.173 777.488 660.711 790.486C649.992 811.847 634.483 837.464 623.612 851.527C619.887 856.392 621.484 855.936 602.858 857.836C577.923 860.345 547.362 862.549 547.362 861.713C547.362 861.485 548.654 857.76 550.327 853.503C559.221 829.786 567.508 800.14 575.87 761.905C576.326 759.928 576.782 759.852 592.975 758.636C616.542 756.887 652.577 752.935 671.278 749.97C674.851 749.362 677.968 748.906 678.348 748.83C678.652 748.83 678.881 749.134 678.881 749.514ZM369.089 761.296C381.253 761.905 406.036 762.817 424.129 763.197C442.299 763.653 457.275 764.109 457.351 764.185C457.351 764.261 457.883 786.534 458.339 813.747C458.872 840.885 459.48 863.385 459.632 863.689C460.392 864.982 395.241 863.765 381.785 862.321L377.832 861.941L375.475 856.848C365.82 835.64 354.645 802.345 347.043 772.319C344.002 760.308 343.85 759.396 345.75 759.852C346.434 760.004 357.001 760.688 369.089 761.296ZM570.853 766.77C565.303 793.983 554.052 833.359 545.765 854.872L542.8 862.549L532.309 863.005C526.608 863.309 508.666 863.765 492.549 864.07L463.205 864.526L462.749 842.177C462.445 829.863 461.988 807.286 461.684 792.007L461.228 764.109L480.158 763.653C509.807 762.969 550.783 761.524 559.525 760.916C563.935 760.612 568.572 760.308 569.864 760.308L572.221 760.156L570.853 766.77ZM836.171 794.135C817.621 818.08 768.587 866.122 762.657 866.198C761.821 866.198 759.92 867.718 758.324 869.619C754.827 873.8 745.552 880.793 728.675 892.043C711.342 903.522 705.412 906.866 693.325 911.807C672.115 920.625 645.431 928.455 618.823 933.776C605.975 936.36 581.648 940.313 578.759 940.313C577.999 940.313 581.648 938.413 586.817 936.132C600.501 930.127 621.408 919.485 634.027 912.187C667.553 892.803 694.617 872.963 721.833 847.878L731.716 838.756L739.318 836.628C750.57 833.435 771.4 826.29 782.651 821.729C797.476 815.8 818.838 804.929 828.265 798.62C832.902 795.503 836.779 792.919 836.931 792.919C837.083 792.843 836.703 793.451 836.171 794.135ZM118.063 798.772C135.396 811.923 163.98 825.606 195.302 835.716L208.454 839.973L216.208 847.27C253.307 882.389 301.961 914.24 353.656 937.273C356.925 938.717 359.282 940.009 358.902 940.161C356.773 940.845 320.207 933.928 302.949 929.519C288.581 925.87 265.622 918.421 258.02 914.924C246.085 909.375 221.301 894.096 203.436 881.173C194.846 874.94 189.448 869.543 185.571 863.309C184.659 861.789 183.594 860.497 183.366 860.497C181.922 860.573 180.781 862.017 181.238 863.157C182.454 866.426 158.431 844.838 141.402 827.354C129.618 815.268 111.753 795.123 112.817 795.123C113.045 795.123 115.402 796.796 118.063 798.772ZM718.108 846.054C692.337 870.151 659.039 894.096 625.285 912.72C607.115 922.754 573.665 938.413 563.326 941.757C560.666 942.594 538.315 944.874 532.689 944.874C529.724 944.874 529.801 944.798 537.935 939.477C547.59 933.092 558.689 924.806 568.268 916.824C578.987 907.931 604.683 881.705 613.425 870.759C617.758 865.286 621.788 860.497 622.396 860.041C622.928 859.585 625.665 858.976 628.554 858.672C645.887 856.924 694.009 848.334 713.091 843.469C723.506 840.809 723.658 840.885 718.108 846.054ZM230.348 845.598C243.196 848.714 264.482 852.971 276.114 854.872L284.324 856.164L289.037 861.561C316.405 892.651 353.276 922.526 387.334 941.149L392.656 944.114L387.715 943.658C373.878 942.442 364.68 938.945 333.739 923.514C300.441 906.866 272.008 888.851 245.477 867.642C237.114 860.953 222.214 848.03 218.184 844.001C216.512 842.329 216.436 842.177 217.804 842.557C218.641 842.785 224.266 844.153 230.348 845.598ZM309.639 859.661C327.201 861.941 343.165 863.461 364.148 865.058C370.229 865.514 375.171 865.97 375.247 866.046C375.247 866.122 378.212 871.823 381.785 878.741C395.089 904.434 406.416 921.233 423.369 940.085C429.831 947.383 430.971 946.775 413.41 945.558L401.779 944.798L390.983 938.793C358.218 920.625 327.809 897.136 301.809 869.771C292.23 859.737 290.33 857.456 291.47 857.456C291.774 857.456 299.909 858.444 309.639 859.661ZM615.174 862.549C607.191 873.647 580.888 901.089 566.747 913.1C556.712 921.613 541.888 932.56 530.941 939.553C521.058 945.786 519.689 946.242 506.462 946.318L499.392 946.394L502.508 942.746C514.596 928.759 530.257 901.773 541.204 876.308L545.537 866.198L554.66 865.666C565.531 864.982 598.981 862.093 605.899 861.333C608.636 860.953 612.133 860.649 613.729 860.573L616.618 860.497L615.174 862.549ZM409.381 867.338C423.597 867.794 440.702 868.25 447.392 868.326L459.556 868.478L459.708 874.56C460.164 887.558 462.293 934.916 462.749 940.997L463.205 947.383L448.837 947.003L434.468 946.546L428.158 939.857C416.907 927.771 404.059 910.439 394.785 894.628C389.843 886.19 381.177 869.771 380.492 867.414C380.036 865.818 380.112 865.666 381.709 866.046C382.697 866.274 395.165 866.882 409.381 867.338ZM538.771 872.431C534.666 882.541 521.058 909.147 515.66 917.737C509.35 927.695 501.292 938.793 496.959 943.582L493.614 947.155H480.31H467.006L466.474 940.085C465.638 928.379 463.737 884.214 463.737 875.852V868.098L482.591 868.022C492.93 867.946 507.526 867.642 515.052 867.414C522.578 867.11 531.549 866.806 534.97 866.73L541.204 866.578L538.771 872.431ZM671.658 924.274C669.53 926.326 637.296 939.401 620.343 945.102C583.244 957.645 541.812 965.778 504.409 968.059C500.228 968.287 495.286 968.667 493.386 968.895C487.912 969.579 490.269 968.515 498.783 966.463C515.508 962.434 541.356 954.452 556.18 948.675C560.666 946.927 565.151 945.938 574.35 944.798C607.267 940.693 642.39 933.472 663.676 926.402C673.103 923.286 672.495 923.438 671.658 924.274ZM298.236 932.256C315.341 936.892 338.224 941.301 361.639 944.494C373.194 946.09 375.931 946.699 385.966 950.423C398.966 955.212 417.363 961.141 431.047 964.942C441.69 967.907 440.702 968.211 425.726 966.539C382.773 961.826 345.75 952.704 305.078 936.816C294.587 932.712 285.464 928.683 289.874 929.975C290.558 930.203 294.359 931.267 298.236 932.256ZM406.568 951.259C409.381 952.628 413.638 954.528 415.995 955.516C424.509 959.013 419.492 957.873 405.428 953.236C397.597 950.651 390.983 948.295 390.755 948.067C390.527 947.915 392.884 947.915 395.925 948.219C399.954 948.523 402.843 949.359 406.568 951.259ZM534.742 952.096C523.111 955.972 498.175 963.118 496.427 963.118C495.894 963.118 501.672 960.077 509.122 956.352L522.654 949.511L531.017 948.827C548.198 947.383 548.426 947.611 534.742 952.096ZM434.544 951.564C435.457 952.324 438.726 954.908 441.842 957.417C444.883 959.925 448.304 962.586 449.293 963.346L451.193 964.714L449.293 964.182C444.959 963.042 428.006 956.657 420.1 953.16L411.662 949.435L422.305 949.891C430.591 950.195 433.328 950.575 434.544 951.564ZM452.638 950.955H463.509L464.041 959.013C464.345 963.498 464.421 967.299 464.193 967.451C463.585 968.059 452.41 960.989 445.72 955.744C439.562 950.955 438.193 949.587 440.626 950.499C441.31 950.727 446.708 950.955 452.638 950.955ZM505.929 953.768C502.204 955.668 496.883 958.177 494.146 959.393C488.14 961.902 480.69 964.866 481.222 964.486C481.45 964.334 484.871 961.065 488.976 957.189L496.275 950.195L504.561 950.271H512.771L505.929 953.768ZM484.719 956.124C479.55 960.913 470.427 967.679 469.059 967.679C468.526 967.679 467.538 958.557 467.538 953.464V950.955H478.941H490.345L484.719 956.124Z" fill="white"/>
</svg>
