<svg width="66" height="72" viewBox="0 0 66 72" fill="none" xmlns="http://www.w3.org/2000/svg">
<path d="M31.0598 0V11.4254H34.9405V0H31.0594H31.0598V0ZM15.2132 3.4335L12.0336 5.65968L18.5858 15.0164L21.7636 12.7902L15.2132 3.4335ZM50.7863 3.4335L44.2361 12.7903L47.4143 15.0165L53.9664 5.65968L50.7869 3.4335H50.7863V3.4335ZM32.9993 14.5514C23.5057 14.5514 15.8097 20.3164 15.8097 27.4289L25.5761 57.0058H40.4243L50.1897 27.4289C50.1897 20.3165 42.4943 14.5514 33.0002 14.5514H32.9993V14.5514ZM2.12788 17.9804L0.801941 21.6292L11.5329 25.5361L12.8637 21.889L2.12764 17.9804H2.12788V17.9804ZM63.8716 17.9804L53.1354 21.8893L54.4618 25.5368L65.198 21.6293L63.8716 17.9804V17.9804ZM12.3453 34.6609L1.31134 37.6204L2.3125 41.3663L13.3465 38.411L12.3455 34.6609H12.3453V34.6609ZM53.6541 34.6609L52.6537 38.4109L63.6877 41.3657L64.6881 37.6198L53.6541 34.6607V34.6609V34.6609ZM25.3596 59.1619V64.3031H40.6408V59.1627H25.3596L25.3596 59.1619ZM25.3596 66.8588V72H40.6408V66.8597H25.3596L25.3596 66.8588Z" fill="white"/>
</svg>
