<svg width="291" height="290" fill="none" xmlns="http://www.w3.org/2000/svg"><path d="M145.524 16.575c-31.625 0-57.263 25.637-57.263 57.262v100.727h114.526V73.837c0-31.625-25.638-57.262-57.263-57.262z" fill="#FDBB03"/><path d="M165.813 74.96c4.919-2.004 10.46.212 15.669-.79 2.088-.403 4.128-1.147 5.938-2.272 1.524-.947 2.465-2.056 4.322-2.124.354-.014 6.812-.552 6.062-1.976.552 1.046 1.27 5.178 1.27 5.178.299 1.547-.118 2.67-.66 3.579-.538.91-1.685.068-1.685.068-.184.427.377.953.383 1.105.006.154-.667.54-.667.54-1.023.2-1.501-.77-1.501-.77-.068.49.208 1.013.79 1.326.584.314.452.618.452.618-.821.644-2.105-.458-2.105-.458.255.738 1.861 1.263 2.609 1.366.747.1 1.198-.107.78.605-.418.712-2.009.644-2.009.644.589.467 2.137.136 2.137.136.387.433 1.992-.69 1.992-.69 1.744-.86 1.298-1.326 2.14-2.597.842-1.27 1.226-5.372 1.226-5.372.066-1.725 1.242-8.474 1.242-8.474 5.056-1.442 5.526-5.16 7.144-8.3 1.62-3.138 1.471-4.528 1.471-4.528 1.409.232 4.092-.8 5.384-1.042 1.293-.241 3.069-.186 4.051-.37.98-.187.709-1.38.709-1.38 1.489-.362.687-1.991.687-1.991-.288-1.653-5.527-3.344-5.828-3.807-.303-.462-1.334-1.652-2.771-2.237-1.436-.584-3.536-1.3-3.536-1.3l-.112.09s-.783-4.318-2.829-5.567c-2.048-1.25-2.158.489-2.158.489-2.374.41-1.212 2.945-.696 4.16.515 1.213 1.016 3.617 1.016 3.617-1.201 2.427-.854 6.172-3.365 7.146-2.512.973-7.047-1.22-13.339-3.758-6.292-2.537-13.488-2.133-18.972-.078-5.941 2.224-9.548 7.58-13.25 12.372-4.308 5.574-9.18 10.774-14.904 14.917-7.412 5.367-16.386 8.899-25.532 8.68-2.24-.053-4.258-.456-6.291-1.39-1.2-.551-2.013-1.44-2.74-2.515-.339-.502-1.745-3.095-2.399-1.338-.101.272-.096.572-.08.863.12 2.064.69 3.36 2.127 4.796 5.532 5.527 14.415 4.76 21.388 3.27 8.069-1.726 15.904-5.007 22.54-9.95a46.284 46.284 0 004.817-4.12c1.17-1.15 2.448-2.975 4.142-3.37.921-.217 1.421 1.363 2.32 4.505.897 3.142 2.621 2.494 2.621 2.494z" fill="#A3AA1E"/><path d="M167.82 87.31c.952 1.577 4.738 3.349 6.975 4.443 2.236 1.094 6.152 4.032 6.152 4.032-.009 1.072 1.189 2.007 2.64 2.396 1.449.39 2.092.807 2.092.807l-.16-.775s.095.192 1.871.912c1.774.72 2.842.44 2.842.44s-.438.307.606.663c1.045.353 1.758.183 2.385.161.628-.021 1.492.291 1.492.291l-.568-.857c.769.169 2.489.598 2.489.598-.353-1.157-1.365-1.854-3.449-2.418-2.084-.563-4.391-2.386-4.988-2.804-2.252-1.578-4.449-3.24-6.669-4.863-.886-.647-2.026-1.252-2.791-2.041-.541-.558-.781-1.262-1.428-1.782-.775-.624-1.732-1.001-2.467-1.678-.364-.335-.677-.71-.842-1.182-.638-1.821 3.369-2.837 4.622-3.038 1.695-.271 3.303.149 4.951-.275a12.243 12.243 0 005.047-2.665 12.256 12.256 0 003.862-6.708c.352-1.755.206-3.822-1.157-4.98-1.009-.86-2.425-1.003-3.745-1.11-1.742-.14-3.564-.15-5.235-.59-1.792-.472-3.616-.62-5.464-.62-3.523.097-7.092 1.289-9.635 3.728-.922.884-1.742 2.065-1.585 3.332.148 1.2 1.115 2.106 1.705 3.16.695 1.237.874 2.71.756 4.125-.152 1.837-.854 3.484-.817 5.325.023 1.183-.128 2.91.513 3.974z" fill="#A3AA1E"/><path d="M5.177 249.554c.136-.749.25-1.784.341-3.101 0-.819.068-1.704.204-2.659.59-4.317 1.886-10.473 3.886-18.47l1.772-7.294c2.181-9.45 3.498-18.721 3.953-27.809l1.363-1.432c1.59-.499 2.908-.749 3.953-.749 1.09 0 2 .284 2.727.852.726.569 1.294 1.489 1.704 2.761.59 5.316 1.34 10.951 2.249 16.903.908 5.953 2.113 13.36 3.613 22.22 1.726 10.178 2.884 17.245 3.475 21.198.955 0 1.739.159 2.352.478.613.317 1.237 1.089 1.875 2.317 0 .18-.092.431-.272.749-.183.318-.57.546-1.16.682a9.359 9.359 0 01-1.976.205c-1.136 0-2.454-.115-3.954-.341-2.273-.274-3.977-.387-5.112-.342-1.09 0-2.045.159-2.862.478-.364-.727-.546-1.431-.546-2.114 0-.681.171-1.284.511-1.805.341-.523.83-1.056 1.465-1.601-.909-3.864-1.533-7.544-1.873-11.043-.341-3.499-.625-7.815-.852-12.951-.273-6.77-.637-11.972-1.09-15.608-.41-.954-.809-1.646-1.194-2.08-.387-.43-.92-.646-1.601-.646-.41 3.226-.944 6.384-1.603 9.474-.659 3.091-1.556 6.815-2.692 11.178-1.319 5.272-2.317 9.52-2.999 12.745a86.275 86.275 0 00-1.5 10.225c.546 0 1.023.25 1.432.75.454.453.908.681 1.363.681v1.364c0 .227-.08.521-.239.885-.158.364-.534.546-1.124.546-.728 0-1.864-.046-3.408-.136l-3.136-.068c-1 0-1.908.068-2.726.204a14.072 14.072 0 01-.443-1.091 4.822 4.822 0 01-.307-1.704c0-.681.215-1.091.648-1.227.431-.136 1.398-.204 2.896-.204.455-.864.751-1.67.887-2.42zm51.146-52.449c0 1.227.114 2.591.34 4.089.046.319.114.967.206 1.943.09.977.113 1.852.068 2.624-.092 2.773-.274 7.203-.546 13.292-.228 5.18-.432 10.564-.613 16.153a474.223 474.223 0 00-.273 15.406c.454.453 1.181.929 2.181 1.43.91.454 1.568.886 1.977 1.295 0 .409-.092.716-.273.92-.181.205-.5.465-.953.784a7.268 7.268 0 00-1.5 1.159c-.5-.228-1.363-.432-2.59-.614-.637-.045-1.705-.068-3.204-.068-1.545 0-2.829-.045-3.85-.136a13.085 13.085 0 01-2.966-.613c-.092-.047-.216-.205-.374-.477a1.855 1.855 0 01-.239-.955c0-.5.204-.932.613-1.295 0-.318.068-.512.204-.578.136-.07.363-.103.682-.103.41 0 .704-.024.886-.068.454-.183.772-.409.955-.681.408-.41.613-1.002.613-1.774 0-.364-.046-.784-.137-1.26-.09-.477-.159-.808-.204-.989-.183-.817-.272-1.34-.272-1.567 0-1.409.044-3.476.136-6.202l.068-5.999c-.045-.227-.092-.648-.136-1.261a26.673 26.673 0 01-.068-2.011v-36.397c-.864 0-1.535-.079-2.012-.239-.476-.159-.715-.556-.715-1.193v-2.794c0-.409.16-.613.476-.613.138 0 .591.101 1.364.307a9.035 9.035 0 002.318.306c.5 0 1.568-.09 3.204-.273a88.9 88.9 0 011.976-.204 26.93 26.93 0 012.522-.136c1.544 0 2.703.204 3.476.613.363.364.546.818.546 1.363 0 .728-.307 1.387-.92 1.976-.614.592-1.398.887-2.352.887-.41 1.09-.614 2.409-.614 3.953zm39.956 22.527c.363-1.704.67-3.294.92-4.771.25-1.476.42-2.443.51-2.897.229-1.182.637-2.839 1.229-4.975l1.294-5.113.614-2.25c.362-1.408.636-2.521.817-3.338.181-.819.273-1.682.273-2.591 0-1.363.59-2.624 1.772-3.783 1.182-1.158 2.476-1.738 3.886-1.738h8.384c.408 0 .714.102.92.306.204.206.465.535.784.988.453.683.84 1.183 1.158 1.5-.637.638-1.217 1.126-1.738 1.466-.523.341-1.124.512-1.806.512-.682 0-1.386-.182-2.113-.546-.409 1.182-.613 2.454-.613 3.816 0 .728.09 1.864.272 3.408.226 1.364.341 2.683.341 3.954v23.925l-.068 4.021c-.047.636-.068 1.567-.068 2.794 0 1.318.044 2.318.136 3 .181 1.681.272 3.452.272 5.316 0 1.181-.045 2.726-.136 4.634-.092 1.91-.136 3.272-.136 4.091 1.499 0 2.839.385 4.021 1.159 1.182.772 1.772 1.566 1.772 2.385 0 .636-.341 1.113-1.022 1.432-.591 0-1.091-.069-1.499-.205-.092 0-.273-.034-.545-.103a3.992 3.992 0 00-.955-.101c-.183 0-.681.068-1.5.204a4.975 4.975 0 01-1.568.273l-2.453-.477c.273-.138.136-.16-.408-.068-.547.09-1.183.192-1.91.306-.726.112-1.522.171-2.385.171 0-.319-.057-.547-.171-.683-.113-.136-.34-.296-.681-.477s-.512-.5-.512-.953c0-.364.148-.648.444-.852.295-.206.784-.444 1.465-.716 1.182-.5 1.954-.932 2.318-1.295-.638-4.272-.955-9.452-.955-15.541 0-1.908.045-4.998.136-9.27.091-3.089.137-5.429.137-7.02 0-.546.091-1.817.272-3.817.274-2.272.41-3.953.41-5.044v-5.657c0-.5-.012-.875-.035-1.126-.023-.249-.193-.76-.511-1.533l.068-1.295c0-.5-.318-1.066-.954-1.704 0 .046.022.171.069.375.044.204.068.467.068.784 0 .681-.115 1.251-.341 1.704-.455 1.136-.92 2.624-1.398 4.464-.477 1.841-.92 3.716-1.329 5.624-.545 2.363-.977 4.135-1.295 5.316-.092.319-.284.967-.578 1.943a36.385 36.385 0 00-.648 2.352l-.955 5.112c-.773 3.862-1.272 6.316-1.5 7.361-.136.591-.296 1.704-.476 3.339-.183 1.726-.375 3.034-.58 3.92-.204.885-.51 1.329-.92 1.329-.59 0-1.295-.251-2.113-.749-.91-.456-1.567-.682-1.976-.682 0-1.001-.08-1.898-.24-2.693-.16-.795-.42-1.76-.783-2.897l-.41-1.431-1.158-4.227c-.228-.772-.568-1.986-1.023-3.645a139.847 139.847 0 00-1.294-4.465c-1.046-3.362-2-6.179-2.863-8.452a22.54 22.54 0 01-.477-1.466 8.568 8.568 0 00-.682-1.669 5.962 5.962 0 00-1.022-1.364v9.816c0 1.136-.204 2.976-.614 5.52-.5 3.408-.75 5.772-.75 7.089v19.699c.909 0 1.602.079 2.08.239.477.158.716.556.716 1.192 0 1.136-.638 1.918-1.91 2.352-1.272.43-2.93.646-4.974.646-1 0-2.274-.045-3.818-.136l-1.908-.068c-.41 0-.716-.101-.921-.306-.204-.204-.465-.535-.784-.988-.455-.682-.841-1.183-1.159-1.5.318-.319.603-.659.852-1.023.25-.364.488-.624.716-.783.227-.16.5-.238.819-.238.453 0 1.09.204 1.908.613v-58.959c-.5 0-.944.08-1.33.239a3.107 3.107 0 01-1.191.239 3.79 3.79 0 01-.852-.103c-.296-.068-.512-.103-.648-.103-.638-.181-1.183-.272-1.636-.272-.727-.726-1.148-1.261-1.262-1.602-.113-.34-.17-1.215-.17-2.624 1.228-.408 2.658-.614 4.294-.614 3.316 0 7.043.66 11.179 1.978a107.989 107.989 0 001.943 3.952 218.971 218.971 0 011.397 2.726c.136.183.43.751.885 1.704v1.432c1 2 1.919 4.17 2.762 6.51.84 2.341 1.76 5.124 2.76 8.349l1.226 3.817a28.611 28.611 0 001.056 2.76c.342.751.716 1.49 1.126 2.216l.886 1.704a50.922 50.922 0 001.363-5.078zm63.225 21.437c0 2.362.078 4.554.238 6.577.159 2.021.534 3.623 1.126 4.805 0 .363.294.602.885.716.591.114 1.056.283 1.397.511.342.227.511.727.511 1.5-1.544.499-3.476.749-5.793.749-1.319 0-3.25-.136-5.794-.409-2.817-.272-4.908-.387-6.27-.34 0-.455.09-1.023.272-1.704.181-.681.568-1.023 1.158-1.023h1.296c.636-4.862 1.034-10.189 1.192-15.984.159-5.793.239-12.938.239-21.436v-13.7c0-1.362.113-2.68.341-3.953.044-.363.091-.784.136-1.261.046-.478.068-.988.068-1.534 0-1.09-.181-2.021-.545-2.794h-12.336c0 4.136-.228 10.338-.683 18.608-.454 8.724-.681 15.292-.681 19.698v13.7l-.068 5.658c0 .589.136 1.056.409 1.397.272.34.658.692 1.159 1.056.453.317.795.624 1.023.92.226.295.34.648.34 1.057l-.136.818c-.183.5-.818.874-1.908 1.124-1.091.249-2.432.374-4.022.374-2.454 0-4.59-.181-6.408-.544-.636-.137-1.012-.353-1.124-.648-.114-.296-.17-.829-.17-1.601 0-.409.09-.716.272-.92.181-.205.522-.467 1.022-.784.091-.092.295-.228.614-.409.317-.183.59-.387.818-.614v-37.01c0-1.364.091-3.682.272-6.954.182-3.544.274-6.269.274-8.178 0-3.044-.183-5.771-.546-8.179-1.182 0-2.17-.079-2.965-.239-.796-.158-1.193-.512-1.193-1.057.636-1.181 1.885-1.772 3.749-1.772.772 0 1.568.068 2.385.205.999.091 1.682.136 2.046.136h28.764c.998 0 1.498.455 1.498 1.363 0 .681-.272 1.319-.817 1.909-.545.591-1.227.886-2.045.886v49.28zm34.877 1.908c.749-2.317 1.305-4.271 1.67-5.861.59-1.863.964-3.726 1.124-5.59.159-1.862.239-4.18.239-6.952 0-.954.091-2.158.272-3.613 0-.272.035-.76.103-1.465.068-.704.102-1.374.102-2.011 0-.636-.024-1.373-.068-2.215a47.094 47.094 0 00-.137-1.942c-.181-1.818-.272-3.18-.272-4.09-.455-.909-.909-2.272-1.363-4.09-.456-1.908-.932-3.34-1.432-4.294l-.749-1.636c-.819-1.772-1.545-3.158-2.181-4.157-.638-1-1.455-1.749-2.455-2.249a27.01 27.01 0 01-2.725-.138c-1-.089-1.978-.136-2.932-.136-1.363 1.363-2.454 2.784-3.271 4.26-.819 1.478-1.592 3.284-2.317 5.419-.638 1.227-1.035 2.465-1.194 3.715-.16 1.25-.238 2.806-.238 4.669-.364 2.908-.546 6.135-.546 9.679 0 6.406.659 13.382 1.978 20.925.317.636.578 1.317.782 2.044.206.727.352 1.204.444 1.432.272.955.511 1.692.716 2.215.204.522.487.965.851 1.329.364 0 .603.069.716.205.113.136.216.431.307.886.09.453.273.818.545 1.09.727.727 1.909 1.091 3.545 1.091 1.407 0 2.76-.261 4.055-.784s2.101-1.192 2.42-2.011c.589-1.498 1.261-3.408 2.011-5.725zm2.282 9.065c-.726.772-1.408 1.363-2.044 1.772-2.636 1.682-5.43 2.523-8.384 2.523-2.954 0-5.69-.784-8.213-2.352-2.521-1.568-4.396-3.488-5.623-5.76a66.59 66.59 0 01-4.226-9.815 41.845 41.845 0 01-1.124-7.326c-.16-2.478-.239-5.578-.239-9.304 0-.591-.045-1.432-.136-2.523-.092-1.181-.137-2.067-.137-2.659 0-1.044.09-2.112.273-3.202.044-.274.181-1.023.409-2.25.227-1.226.34-2.249.34-3.068.091-.453.25-1.317.478-2.589.181-1.227.374-2.204.58-2.931.204-.726.533-1.296.988-1.704.498-.681 1.249-1.794 2.249-3.34 1.363-2.089 2.532-3.725 3.509-4.908.978-1.181 2.204-2.204 3.682-3.066 1.476-.863 3.214-1.295 5.214-1.295.908 0 1.612.045 2.112.136 2.727 0 4.896.408 6.51 1.227 1.613.817 3.124 2.273 4.533 4.362 2.135 1.408 3.941 3.59 5.419 6.543 1.476 2.955 2.373 6.203 2.692 9.747.181 1.864.273 4.317.273 7.361v2.999c0 4.636-.387 8.566-1.159 11.792-1.364 6.453-3.432 12.201-6.202 17.245a12.079 12.079 0 01-1.774 2.385zm47.345-10.973c0 2.362.079 4.554.239 6.577.158 2.021.533 3.623 1.124 4.805 0 .363.296.602.886.716.59.114 1.056.283 1.398.511.341.227.51.727.51 1.5-1.544.499-3.476.749-5.793.749-1.319 0-3.249-.136-5.793-.409-2.818-.272-4.908-.387-6.271-.34 0-.455.091-1.023.272-1.704.181-.681.568-1.023 1.159-1.023h1.296c.636-4.862 1.033-10.189 1.192-15.984.158-5.793.238-12.938.238-21.436v-13.7c0-1.362.114-2.68.342-3.953.044-.363.09-.784.136-1.261.045-.478.068-.988.068-1.534 0-1.09-.182-2.021-.546-2.794h-12.336c0 4.136-.228 10.338-.682 18.608-.455 8.724-.682 15.292-.682 19.698v13.7l-.068 5.658c0 .589.136 1.056.41 1.397.272.34.657.692 1.158 1.056.454.317.795.624 1.023.92.227.295.34.648.34 1.057l-.136.818c-.183.5-.817.874-1.908 1.124-1.091.249-2.432.374-4.023.374-2.453 0-4.589-.181-6.406-.544-.636-.137-1.012-.353-1.124-.648-.115-.296-.171-.829-.171-1.601 0-.409.091-.716.272-.92.181-.205.523-.467 1.023-.784.09-.092.294-.228.613-.409.317-.183.591-.387.819-.614v-37.01c0-1.364.09-3.682.272-6.954.181-3.544.273-6.269.273-8.178 0-3.044-.183-5.771-.545-8.179-1.183 0-2.171-.079-2.966-.239-.796-.158-1.193-.512-1.193-1.057.636-1.181 1.885-1.772 3.749-1.772.772 0 1.568.068 2.386.205.998.091 1.681.136 2.045.136h28.763c1 0 1.5.455 1.5 1.363 0 .681-.272 1.319-.818 1.909-.545.591-1.228.886-2.045.886v49.28zm34.877 1.908c.749-2.317 1.305-4.271 1.67-5.861.59-1.863.964-3.726 1.124-5.59.159-1.862.239-4.18.239-6.952 0-.954.091-2.158.272-3.613 0-.272.035-.76.103-1.465.068-.704.102-1.374.102-2.011 0-.636-.024-1.373-.068-2.215a47.094 47.094 0 00-.137-1.942c-.181-1.818-.272-3.18-.272-4.09-.455-.909-.909-2.272-1.363-4.09-.456-1.908-.932-3.34-1.432-4.294l-.749-1.636c-.819-1.772-1.545-3.158-2.181-4.157-.638-1-1.455-1.749-2.455-2.249a27.01 27.01 0 01-2.725-.138 33.1 33.1 0 00-2.931-.136c-1.364 1.363-2.455 2.784-3.272 4.26-.819 1.478-1.592 3.284-2.317 5.419-.638 1.227-1.035 2.465-1.194 3.715-.16 1.25-.238 2.806-.238 4.669-.364 2.908-.546 6.135-.546 9.679 0 6.406.659 13.382 1.978 20.925.317.636.578 1.317.784 2.044.204.727.35 1.204.442 1.432.272.955.511 1.692.716 2.215.204.522.487.965.852 1.329.363 0 .602.069.715.205.113.136.216.431.307.886.09.453.273.818.545 1.09.727.727 1.909 1.091 3.545 1.091 1.408 0 2.76-.261 4.055-.784 1.296-.523 2.101-1.192 2.42-2.011.591-1.498 1.261-3.408 2.011-5.725zm2.284 9.065c-.728.772-1.41 1.363-2.046 1.772-2.636 1.682-5.43 2.523-8.384 2.523-2.954 0-5.69-.784-8.213-2.352-2.521-1.568-4.396-3.488-5.623-5.76a66.59 66.59 0 01-4.226-9.815 41.845 41.845 0 01-1.124-7.326c-.16-2.478-.239-5.578-.239-9.304 0-.591-.045-1.432-.136-2.523-.092-1.181-.136-2.067-.136-2.659 0-1.044.089-2.112.272-3.202.045-.274.181-1.023.409-2.25.227-1.226.34-2.249.34-3.068.091-.453.25-1.317.478-2.589.181-1.227.374-2.204.58-2.931.204-.726.533-1.296.988-1.704.5-.681 1.249-1.794 2.249-3.34 1.363-2.089 2.532-3.725 3.509-4.908.978-1.181 2.204-2.204 3.682-3.066 1.476-.863 3.214-1.295 5.214-1.295.908 0 1.612.045 2.112.136 2.727 0 4.896.408 6.51 1.227 1.613.817 3.124 2.273 4.533 4.362 2.135 1.408 3.941 3.59 5.419 6.543 1.476 2.955 2.373 6.203 2.692 9.747.181 1.864.273 4.317.273 7.361v2.999c0 4.636-.387 8.566-1.159 11.792-1.364 6.453-3.432 12.201-6.202 17.245a12.145 12.145 0 01-1.772 2.385zM78.805 277.187c.377-.4.706-.854.982-1.357.432-.783.65-1.673.65-2.644a5.505 5.505 0 00-1.047-3.279c-.662-.918-1.57-1.657-2.701-2.193-1.106-.523-2.384-.787-3.804-.787-1.687 0-3.169.355-4.403 1.058-1.204.682-2.192 1.564-2.942 2.63a2.335 2.335 0 00-.337 1.959 2.584 2.584 0 001.007 1.463c.677.465 1.441.569 2.161.29.526-.205 1.01-.592 1.403-1.104.397-.47.84-.805 1.355-1.024a4.468 4.468 0 011.755-.342c.818 0 1.47.161 1.94.478.227.156.46.407.46 1.1 0 .734-.274 1.076-.478 1.271-.348.328-.761.48-1.3.48h-1.268c-.694 0-1.299.261-1.75.752-.427.46-.654 1.067-.654 1.751 0 .649.225 1.238.653 1.701.455.491 1.06.752 1.75.752h1.642c.783 0 1.381.192 1.832.588.404.356.592.813.592 1.436 0 .46-.116.853-.353 1.204-.255.375-.602.661-1.058.875-.487.229-1.08.345-1.758.345-.848 0-1.594-.149-2.28-.456-.659-.293-1.141-.628-1.413-.963-.397-.514-.911-.865-1.482-1.012a2.344 2.344 0 00-1.898.32 2.106 2.106 0 00-1.015 1.888c.008.327.021.652.038.979l.015.279.124.25c.413.822 1.096 1.527 2.028 2.095.835.509 1.792.9 2.848 1.164a12.8 12.8 0 003.084.387c1.532 0 2.93-.311 4.153-.924 1.247-.623 2.25-1.484 2.98-2.556a6.483 6.483 0 001.142-3.724c0-1.22-.27-2.286-.803-3.166a6.224 6.224 0 00-1.85-1.964zm23.977 3.556a5.828 5.828 0 01-1.245 1.979c-.536.557-1.183 1-1.92 1.319-1.46.629-3.427.63-4.89-.002a5.638 5.638 0 01-1.9-1.313 6.072 6.072 0 01-1.254-1.993 6.843 6.843 0 01-.456-2.522c0-.905.153-1.754.456-2.522a6.09 6.09 0 011.255-1.994 5.519 5.519 0 011.892-1.297c.732-.308 1.558-.465 2.453-.465.895 0 1.72.157 2.455.465a5.73 5.73 0 011.909 1.304 5.82 5.82 0 011.245 1.977 7.04 7.04 0 01.447 2.532 7.04 7.04 0 01-.447 2.532zm2.454-10.624a10.647 10.647 0 00-3.568-2.361c-2.718-1.101-6.268-1.104-9 0a10.448 10.448 0 00-3.575 2.367 10.762 10.762 0 00-2.315 3.589c-.541 1.361-.814 2.875-.814 4.497 0 1.622.273 3.139.814 4.508a10.739 10.739 0 002.316 3.606 10.477 10.477 0 003.575 2.366c1.365.551 2.88.83 4.504.83 1.624 0 3.136-.28 4.496-.832a10.642 10.642 0 003.568-2.363 10.597 10.597 0 002.332-3.607c.54-1.369.815-2.886.815-4.508 0-1.622-.275-3.136-.816-4.497a10.694 10.694 0 00-2.332-3.595zm24.878 10.624a5.834 5.834 0 01-1.245 1.978 5.906 5.906 0 01-1.92 1.32c-1.461.629-3.428.63-4.891-.002a5.653 5.653 0 01-1.9-1.313 6.073 6.073 0 01-1.254-1.993 6.858 6.858 0 01-.455-2.522c0-.905.153-1.754.456-2.522a6.062 6.062 0 011.255-1.994 5.51 5.51 0 011.89-1.297c.734-.308 1.559-.465 2.455-.465.895 0 1.72.157 2.453.465a5.73 5.73 0 011.911 1.304 5.835 5.835 0 011.245 1.976c.296.772.446 1.625.446 2.533a7.04 7.04 0 01-.446 2.532zm2.452-10.624a10.639 10.639 0 00-3.566-2.361c-2.716-1.101-6.268-1.104-9 0a10.456 10.456 0 00-3.576 2.367 10.786 10.786 0 00-2.314 3.589c-.541 1.361-.816 2.875-.816 4.497 0 1.622.275 3.139.815 4.506a10.726 10.726 0 002.316 3.608c.997 1.013 2.2 1.81 3.576 2.366 1.364.551 2.88.83 4.504.83 1.624 0 3.136-.28 4.495-.832a10.642 10.642 0 003.568-2.363 10.659 10.659 0 002.333-3.607c.54-1.372.813-2.889.813-4.508 0-1.62-.274-3.133-.816-4.498a10.664 10.664 0 00-2.332-3.594m24.676-2.944h-13.236c-.712 0-1.351.255-1.848.736-.508.494-.779 1.147-.779 1.891v16.844c0 .72.266 1.364.764 1.863 1.014 1.014 2.784.988 3.756-.019.48-.497.735-1.135.735-1.844v-14.515h7.981v14.515c0 .72.264 1.364.764 1.863a2.582 2.582 0 001.863.762c.745 0 1.399-.269 1.893-.781.48-.497.735-1.135.735-1.844v-16.844c0-.733-.26-1.38-.752-1.875-.491-.493-1.14-.752-1.876-.752zm15.479 13.012l1.623-3.966 1.596 3.966h-3.219zm4.055-11.272c-.412-1.105-1.312-1.74-2.471-1.74-1.096 0-1.987.612-2.448 1.69l-6.98 16.666c-.377.85-.32 1.744.163 2.518.493.789 1.274 1.222 2.201 1.222.475 0 .936-.129 1.359-.382.464-.272.829-.692 1.069-1.24l1.085-2.656h7.12l1.066 2.649c.204.507.554.927 1.013 1.215.439.276.916.414 1.419.414.933 0 1.716-.414 2.204-1.17.469-.731.544-1.608.194-2.495l-6.994-16.691zm21.776 7.366a2.29 2.29 0 01-.872.872c-.379.216-.823.321-1.355.321h-2.348v-5.244h2.348c.521 0 .957.11 1.329.332.378.227.667.531.884.927.226.412.335.891.335 1.464 0 .513-.105.948-.321 1.328zm1.742-8.111c-1.161-.66-2.496-.994-3.969-.994h-4.975c-.712 0-1.352.254-1.848.736-.509.493-.778 1.146-.778 1.89v16.843c0 .72.264 1.365.762 1.864a2.58 2.58 0 001.864.763c.746 0 1.4-.27 1.891-.779a2.604 2.604 0 00.736-1.848v-4.115h2.348c1.469 0 2.799-.324 3.955-.962a7.08 7.08 0 002.765-2.722c.652-1.144.984-2.454.984-3.893 0-1.484-.329-2.828-.977-3.993a7.167 7.167 0 00-2.758-2.79zm24.997 16.883l-6.193-7.191 5.543-6.437c.433-.496.67-1.075.686-1.668.014-.437-.09-1.096-.668-1.757-.496-.563-1.141-.832-1.941-.838a2.476 2.476 0 00-1.899.915l-6.296 7.532h-.601v-5.807c0-.733-.26-1.381-.752-1.876-.964-.966-2.713-.99-3.721-.016-.511.492-.782 1.147-.782 1.892v16.843c0 .721.267 1.368.764 1.864 1.016 1.016 2.783.985 3.756-.019.48-.497.735-1.134.735-1.845v-6.08h.721l6.742 7.851c.481.552 1.145.85 1.925.869h.065c.926 0 1.515-.392 1.848-.727.715-.714.815-1.438.771-1.916-.049-.576-.288-1.114-.703-1.589z" fill="#276526"/><path d="M102.236 141.818v-.024c0-.136-.003-.272-.007-.408l-.001-.043c-.004-.13-.011-.26-.019-.389l-.004-.057a12.013 12.013 0 00-.075-.814l-.008-.065a15.912 15.912 0 00-.125-.823l-.007-.04a16.221 16.221 0 00-1.296-4.017c-.042-.092-.088-.183-.132-.273-.098-.199-.2-.395-.304-.59l-.009-.017c-.209-.389-.43-.769-.664-1.143-.003-.002-.005-.006-.008-.01a21.92 21.92 0 00-.36-.558h-.001a24.845 24.845 0 00-2.088-2.682v-.002a30.014 30.014 0 00-.894-.962l-.004-.006a41.704 41.704 0 00-.433-.438l-.068-.068a40.122 40.122 0 00-.433-.424 45.77 45.77 0 00-2.451-2.179 78.672 78.672 0 00-1.484-1.197l-.185-.146a98.857 98.857 0 00-.816-.633h-.002a245.283 245.283 0 00-2.194-1.668 82.861 82.861 0 00-.34-.259l-.455-.345-.245-.187-.531-.408-.164-.126c-.23-.179-.461-.358-.69-.538-.49-.386-.977-.777-1.457-1.176a46.776 46.776 0 01-2.164-1.9l-.157-.145a40.544 40.544 0 01-2.195-2.253l-.036-.04c-.142-.158-.282-.318-.422-.478a37.425 37.425 0 01-.53-.617 45.788 45.788 0 01-2.385-3.105 49.534 49.534 0 01-1.712-2.599c-.01-.013-.017-.027-.025-.04a64.076 64.076 0 01-1.576-2.716 68.32 68.32 0 01-2.158-4.329c-.106-.235-.213-.47-.317-.704l-.019-.043a70.55 70.55 0 01-.317-.723l-.143-.328-.037-.085c-.241-.541-.513-1.07-.93-1.485-.522-.52-1.335-.82-2.007-.523-.983.433-1.116 1.765-1.046 2.843a30.584 30.584 0 00.296 2.63l.014.087c.07.441.15.88.24 1.317l.024.115a31.082 31.082 0 003.052 8.337l.102.192a31.544 31.544 0 002.015 3.204l.025.036c.131.182.263.362.398.539l.02.027c.137.182.277.362.42.542a29.958 29.958 0 001.835 2.114l.002.002c.192.202.388.402.587.598l.172.169.24.232c.136.129.272.259.41.385.199.182.399.362.603.538 1.124.974 2.316 1.861 3.535 2.71l.028.02.537.371c.785.536 1.579 1.061 2.372 1.587a180.446 180.446 0 012.241 1.501l.483.333a54.28 54.28 0 011.563 1.132c.814.615 1.61 1.258 2.366 1.939.428.385.844.784 1.244 1.195l-.001.002c.672.692 1.3 1.423 1.868 2.202l.001-.002a16.849 16.849 0 01.927 1.406l.003.004c.061.104.121.209.18.314l.041.076c.045.083.092.167.136.251l.037.071a17.316 17.316 0 01.302.606c.005.012.01.026.017.038.048.104.095.206.14.31l.01.022c.047.11.095.22.14.33l.003.01a14.25 14.25 0 01.627 1.865c.037.14.07.28.103.421l.002.011a13.448 13.448 0 01.155.805l.01.067c.02.132.04.264.055.397v.003c.034.285.058.571.071.856v.001c.005.138.01.276.01.414v.026a9.98 9.98 0 01-.2 2.04l-.014.063c-.013.067-.03.133-.045.2l-.02.083a11.383 11.383 0 01-.167.582c-.017.058-.037.115-.057.172l-.039.114c-.077.21-.161.42-.256.626-1.628-1.354-3.755-2.014-5.867-2.112-2.11-.096-4.146.474-6.188 1.028-2.57.699-4.881 2.114-7.296 3.247-.334.157-.693.312-1.06.272-.542-.057-.962-.539-1.14-1.057.396-.163.754-.412 1.004-.756.296-.408.427-.916.487-1.419.101-.848.021-1.704-.059-2.553a11.79 11.79 0 00-2.39.933l-.018.009a3.47 3.47 0 00-1.185-.909c-.675-.319-1.43-.437-2.176-.424-.59.011-1.2.108-1.697.429-.252.164-.471.382-.742.512-.306.148-.65.17-.996.154a.951.951 0 00-.522-.086l-.004-.002a.715.715 0 00-.255-.099 2.244 2.244 0 00-.439-.055c-.177-.005-.248.04-.284.198a2.099 2.099 0 00-.08.574.322.322 0 00.04.16c-.08.268-.08.558-.062.839.005.092.014.188.04.277-.003.015-.006.03-.007.044l-.001.023v.047l.001.026c0 .015.003.03.004.044l.003.031.009.049.015.063.006.024.015.052.005.017c.095.292.28.596.387.804.35.678.713 1.347 1.076 2.018l.27.501c.587 1.083 1.165 2.171 1.674 3.293.603 1.326 1.11 2.703 1.41 4.132.13.614.106 1.239.297 1.846.193.613.524 1.182.966 1.645-.233 1.265-.338 2.521-.264 3.807-1.69 3.09-3.094 6.252-4.324 9.557-.156-.156-.454-.304-.661-.377-.208-.074-.472-.032-.592.153-.143-.124-.425-.099-.564.031-.137.128-.201.317-.252.498a6.165 6.165 0 00-.165.804c-.022.147-.027.32.084.416.088.078.224.076.329.028a.926.926 0 00.272-.217c.172.237.407.504.697.54.29.035.615-.139.679-.427.115.279.44.407.723.312.284-.094.501-.321.706-.54.464-.5.93-.998 1.392-1.5a148.136 148.136 0 003.76-4.25c.32-.376.642-.76.932-1.163l.016-.021c.051-.071.102-.142.15-.214a7.524 7.524 0 00.184-.284c.04-.066.08-.132.118-.2.008-.016.019-.032.028-.048.043-.077.084-.154.124-.233l.015-.031a6.032 6.032 0 00.223-.513l.001-.001c.004.12.01.24.02.358l.008.095a6.784 6.784 0 00.035.364 11.711 11.711 0 001.128 3.835c.193.394.408.781.55 1.197.143.415.208.871.092 1.296-.181-.207-.48-.308-.75-.339-.07-.008-.146-.008-.204.031-.059.037-.088.127-.043.181-.159-.138-.47-.164-.627-.022a.455.455 0 00-.066.576c-.11.093-.228.177-.296.305a.461.461 0 00-.024.417c.102.2.362.248.586.271l1.374.145c.345.038.728.064 1.008-.141.618-.456.548-1.555.649-2.236.133-.897.279-1.792.436-2.685.223-1.268.47-2.536.524-3.823a12.778 12.778 0 00-1.096-5.728c1.485.416 2.995.445 4.513.181.104-.018.299-.094.406-.146v.001a.733.733 0 01.022-.011l.002.006a35.756 35.756 0 00.241.912v.001a33.974 33.974 0 003.741 8.621c.51.834 1.072 1.663 1.871 2.219a9.034 9.034 0 00-.092 1.576h.06c-.564-.001-1.09.088-1.645.193-.247.048-.518.124-.646.34-.098.167-.074.406.072.531.147.127.404.101.507-.063.095.159.2.232.384.242a.58.58 0 00.483-.226c.197.272.594.376.921.303.328-.075.612-.272.887-.465.654-.46 1.313-.924 1.861-1.507.127-.135.25-.28.307-.456.102-.329-.047-.679-.188-.993a23.35 23.35 0 01-1.519-4.683c-.241-1.149-.576-2.244-.735-3.408a7.97 7.97 0 01.14-2.888l.008-.035c.018-.073.036-.145.056-.218l.015-.054a5.09 5.09 0 01.059-.201c.005-.019.01-.039.017-.059.027-.082.053-.166.083-.249a5.055 5.055 0 00.081.503v.001c.264 1.257.97 2.399 1.661 3.495 1.324 2.1 2.688 4.245 4.647 5.761 1.035.803 1.805 1.864 2.704 2.817-.268.454-.49.922-.61 1.434-.291-.008-.62-.022-.911-.03-.326-.009-.654-.017-.974.039-.32.056-.637.183-.869.411a.792.792 0 00-.23.38.47.47 0 00.097.421c.1.108.261.151.405.12a.584.584 0 00.355-.247c.109.2.338.315.564.327a.688.688 0 00.585-.289c.207.301.577.393.936.326.359-.065.673-.278.952-.514.684-.58 1.21-1.322 1.728-2.054.22-.31.445-.634.515-1.009.078-.425-.054-.86-.198-1.268a22.518 22.518 0 00-2.04-4.304c-.9-1.473-2.109-2.891-2.268-4.613-.076-.823.162-1.64.436-2.419.528-1.493 1.211-2.936 1.592-4.473.382-1.539.394-3.252-.305-4.674.885-.217 1.79-.652 2.425-1.313l.05-.049.073-.083.064-.076c.02-.025.04-.049.059-.075.025-.032.05-.066.074-.1a3.223 3.223 0 00.15-.229l.001-.001.003-.006c.054-.093.106-.186.157-.28.947-1.741 1.371-3.701 1.371-5.689z" fill="#A4AA1E"/><path d="M123.477 170.945c.4-1.184.563-2.435.723-3.675.464-3.584-.647-7.373-2.89-10.194.519-5.22.088-10.72-.32-15.948-.066-.856-.15-1.75-.437-2.546.06-.044.117-.09.172-.137.477-.411 1.363.013 1.347.644a3.423 3.423 0 002.161-.891c-.052.482.279.978.741 1.111a1.065 1.065 0 001.216-.543c.783.494 1.939.232 2.438-.55.213.466.946.565 1.273.17.288.291.755.386 1.131.227.377-.157.64-.557.637-.967.743.344 1.644.32 2.368-.061a2.754 2.754 0 001.344-1.684c.085.859.26 1.715.444 2.557a106.274 106.274 0 002.707 10.002c.488 1.505 1.013 3.01 1.797 4.384.783 1.373 1.844 2.62 3.208 3.409-.807.495-1.717 1.417-2.157 2.26a34.994 34.994 0 00-3.242 9.113c-.317 1.54-.414 3.096-.541 4.663-.672.069-1.504.66-2.176.731-.337.034-.701.081-.948.317-.245.236-.259.729.053.863-.2-.12-.478.086-.481.32-.004.234.193.433.415.508.22.074.46.053.692.03l3.53-.338c.358-.035.588-.17.832-.326a.63.63 0 00.382.339c.22.075.46.053.692.031l3.53-.339c.53-.051.78-.323 1.211-.556.109-.06.211-.099.308-.124.245-.064.473-.043.799-.063.938-.056 1.85-.412 2.632-.928 1.668-1.098 2.88-2.91 3.969-4.554 1.305-1.971 2.28-4.07 3.245-6.219.388-.863.334-1.851.751-2.725.352-.738.941-1.128 1.451-1.706.581-.658 1-1.582 1.333-2.388 1.359-3.289.929-6.989.573-10.436-.204-1.965-.914-3.978-1.525-5.852a58.954 58.954 0 00-2.099-5.492c.359-.173.684-.424 1-.672.411-.322.83-.652 1.122-1.086.29-.435.441-.999.262-1.491a.774.774 0 00.402-.032c.116.056.234.108.356.155.597.225 1.296.318 1.854.005.402-.225.671-.625 1.006-.943.484-.461 1.118-.758 1.534-1.282.416-.524.486-1.44-.098-1.762.58-.265 1.192-.56 1.53-1.102.34-.543.24-1.41-.35-1.648a2.061 2.061 0 001.334-1.707 2.067 2.067 0 00-.976-1.935c.572-.43.827-1.242.604-1.925a1.763 1.763 0 00-1.62-1.189c.456-.23.704-.81.558-1.299a1.126 1.126 0 00-1.176-.773c.398-.396.404-1.12.012-1.523-.391-.404-1.111-.413-1.514-.02.895-.873-.964-2.487-1.716-2.549a2.15 2.15 0 00-1.238.26 1.151 1.151 0 00-1.099-.056c.384-.388.425-1.07.091-1.5-.336-.431-1.003-.555-1.47-.274.388-.516.235-1.352-.309-1.696-.543-.344-1.359-.12-1.653.455a1.396 1.396 0 00-.15-1.536c-.353-.417-.849-.711-1.361-.523a.439.439 0 00-.525-.034 1.1 1.1 0 00-.296-1.16 1.088 1.088 0 00-1.182-.154 1.297 1.297 0 00-.75-1.177c-.654-.289-1.166.325-1.638-.015-.316-.228-.221-1.114-.906-.534-.715-.887-2.195-1.174-3-.203a1.6 1.6 0 00-1.143-1.312 1.587 1.587 0 00-1.637.572 1.437 1.437 0 00-1.355-.987 1.44 1.44 0 00-1.325 1.03 1.603 1.603 0 00-1.208-1.139 1.596 1.596 0 00-1.55.589 1.318 1.318 0 00-.978-1.19 1.31 1.31 0 00-1.408.617c.174-.357-.126-.804-.503-.925-.379-.122-.788-.014-1.167.106-.378.119-.776.25-1.165.172-.568-.112-1.167-.641-1.635-.298-.245.18-.342.561-.64.628-.494.109-.67-.74-1.16-.875-.472-.132-.865.476-1.354.472-.302-.003-.544-.234-.806-.386-.818-.477-2.011-.073-2.378.805a2.262 2.262 0 00-2.166-.977c-.826.12-1.765.642-2.01 1.445.033-.468-.58-.835-.974-.582-.406-.59-1.472-.464-1.734.203-.467-.885-1.927-.96-2.482-.128-.61-.84-2.088-.779-2.63.109-.008-.579-.815-.764-1.356-.572-.542.191-1.063.578-1.628.48-.595-.1-1.18-.717-1.692-.397-.338.209-.45.764-.846.793-.384.028-.581-.476-.936-.625-.408-.17-.845.179-1.098.543-.254.364-.487.804-.911.929-.443.131-.897-.144-1.358-.176-.614-.041-1.19.365-1.526.884a3.25 3.25 0 00-.325.668.392.392 0 01-.203-.368c.02-.216.166-.397.248-.597.231-.56-.136-1.284-.721-1.427.141-.357.286-.735.241-1.117-.047-.383-.357-.762-.74-.74.232-.483.47-.991.45-1.528-.018-.537-.385-1.102-.916-1.146.34-.405.67-.861.714-1.39.044-.53-.319-1.123-.847-1.136.322-.471.651-.966.727-1.531.076-.566-.188-1.22-.73-1.392.163-.462.329-.952.229-1.432-.099-.479-.57-.916-1.04-.785.281-.491.572-1.02.533-1.586-.037-.565-.496-1.22-1.038-1.068a.73.73 0 00-.035-.865l.43-1.194c.088-.242.178-.497.154-.754-.024-.259-.197-.523-.452-.561.065-.356.253-.675.41-1 .16-.326.29-.687.23-1.044-.06-.358-.377-.691-.736-.65.244-.36.49-.728.599-1.15.106-.42.049-.911-.258-1.218-.161-.161-.395-.282-.444-.507-.061-.272.177-.502.339-.729a1.5 1.5 0 00.17-1.39 1.486 1.486 0 00-1.065-.903c.273-.59.555-1.219.481-1.865-.072-.648-.65-1.284-1.286-1.162-.015-.55-.039-1.13-.327-1.598a1.25 1.25 0 00-.29-.322c.37-1.12.725-2.247.93-3.408.234-1.312.273-2.677-.07-3.964-.113-.428-.317-.895-.731-1.038-.477-.167-.975.173-1.341.52a9.532 9.532 0 00-1.471 1.784 9.802 9.802 0 00-.918 1.835c-.122.33-.302.755-.394 1.166a1.13 1.13 0 00-.623.272.818.818 0 00-.682-.53.817.817 0 00-.764.403 1.005 1.005 0 00-.57-.965.998.998 0 00-1.097.205.874.874 0 00-.708-.65.874.874 0 00-.86.429 1.044 1.044 0 00-.966-.57c-.394.02-.764.293-.904.665a1.385 1.385 0 00-1.185-.54 1.39 1.39 0 00-.897.436c-.376-.454-.86-.867-1.15-1.172a14.621 14.621 0 01-1.727-2.215c-.269-.42-.618-.913-1.113-.878-.32.024-.588.286-.709.586-.121.301-.123.634-.11.959.06 1.584.423 3.13.857 4.658a1.94 1.94 0 00-.435.427 2.066 2.066 0 00-.213 2.04.853.853 0 00-.436.921.845.845 0 00.79.639.891.891 0 00.091 1.17.878.878 0 001.165-.022c-.146.341.17.732.528.82.36.088.731-.025 1.093-.099a2.21 2.21 0 01.5-.05c-.025.035-.05.072-.073.109-.422.71-.35 1.514-.873 2.154-.192.235-.412.569-.6.807-.17.219-.265.396-.134.603a.928.928 0 00-.084.068c-.074.11-.229.31-.195.407a3.154 3.154 0 00-.52 1.8 3.15 3.15 0 00.756 1.956c-.03.11-.016.214.092.294l.019.015c-.373.445-.395 1.099-.087 1.605.216.357.556.617.938.785-.012.025-.026.048-.037.075-.108.292.008.628.21.863.204.234.48.388.753.537-.505.201-.645.91-.41 1.403.234.493.722.808 1.205 1.06-.563.392-.642 1.321-.154 1.802.201.2.495.362.522.645.022.254-.189.46-.302.689-.253.512.08 1.218.633 1.346-.52.432-.626 1.288-.224 1.834-.453.317-.534 1.053-.16 1.463-.512.784-.94 1.651-.982 2.589-.017.36.035.78.339.97.12.076.271.106.38.2.249.22.14.622.031.935a8.313 8.313 0 00-.429 2.011c-.04.459-.038.937.147 1.359.184.421.59.77 1.05.762-.245.596-.493 1.208-.503 1.852-.012.643.264 1.334.834 1.627.118.06.252.108.33.215.137.184.052.441-.02.658-.287.855-.251 1.894.368 2.546.148.156.329.292.409.493.212.539-.428 1.175-.15 1.683.143.264.48.364.648.613.154.229.131.528.147.805.016.276.116.595.377.68-.273.703-.242 1.402-.074 2.136.168.735.993 1.36 1.667 1.028a2.061 2.061 0 00-.591 1.876c.137.671.64 1.254 1.28 1.486-.425.824-.026 1.968.819 2.342-.53.856-.018 2.16.95 2.422-.558.944.155 2.361 1.24 2.469-.12.652-.203 1.365.115 1.945.319.582 1.203.874 1.652.387-.055.36.001.733.148 1.067-.179.762-.147 1.558.227 2.236.22.01.444.022.666.034a1.076 1.076 0 00.276 1.328c.39.3.996.262 1.347-.084.04.751 1.126 1.178 1.661.651.041.541.436 1.037.952 1.197a1.387 1.387 0 001.457-.453c.023.372.307.607.663.753-.71 2.114-.616 4.468-.465 6.723.152 2.273.343 4.564.991 6.747.648 2.182 1.789 4.274 3.555 5.698-2.416 3.824-3.146 8.094-2.949 12.619.042.944.189 2.043 1.001 2.52-.336.128-1.085-.112-1.441-.161-.356-.05-.757-.055-1.028.182-.232.203-.244.638-.023.808-.287-.078-.642.17-.686.486-.05.368.215.718.544.886.328.168.708.194 1.074.215l3.371.195c.881.052 1.817.09 2.591-.338.794-.441 1.264-1.293 1.676-2.108a71.998 71.998 0 002.188-4.768c.684-1.648 1.31-3.342 1.524-5.114a11.384 11.384 0 00-.874-5.888c.222-.892.432-1.78.631-2.666.685 1.767 1.677 3.408 3.049 4.691-.121-.073-.269-.123-.357-.092a18.458 18.458 0 001.448 10.863c.648 1.385 1.493 2.809 1.311 4.33-.291.072-.535.018-.834.019-.3 0-.622.056-.829.275-.207.217-.211.637.055.776-.214-.17-.487.241-.326.462.16.222.476.239.748.235 2.003-.028 4.159-.107 5.754-1.328.988-.759 1.645-1.888 2.045-3.072z" fill="#738C2A"/><path d="M188.87 108.825c-.855.856-2.134.952-2.946 1.659-.812.245-1.468-.189-2.15-.133-.718.604-1.115 1.558-2.071 1.741-.345.475.408.709.107 1.156-.358.376-.906.025-1.331.263-.308.22-.407.656-.781.79-.279.318.09.71-.215 1.072-.597.566-1.247-.028-1.889-.081-.499.337-.142.929-.427 1.316-.393.572-.997.821-1.625 1.007a60.022 60.022 0 01-11.23 2.176c-5.121.492-10.142-.136-15.161-.967-2.444-.405-4.9-.759-7.371-.841-5.321-.176-10.226 1.24-14.669 4.185-2.052 1.36-3.479 3.249-4.468 5.485-1.441 3.262-2.535 6.656-3.776 9.994-1.016 2.732-2.047 5.465-3.915 7.761-2.244 2.76-5.076 4.285-8.726 4.065-3.059-.184-4.486-1.922-5.258-4.668-.317-1.133-.06-2.028.69-2.877 1.418-1.608 1.56-3.12.513-4.995l-1.775-3.174c-.11-.742.335-1.315.011-2.047-.62.745-.7 1.584-.817 2.448l-.302-.445c-.237.385-.177.952-.793 1.026.474 1.222.418 2.352-.104 3.475-.223.476-.28 1-.088 1.524.41 1.117.395 2.252.39 3.441-.01 3.53 1.597 6.268 4.651 8.062 2.159 1.268 3.198 1.274 5.694 1.052 1.385-.124 2.761-.263 4.105-.655 2.412-.703 4.153-2.296 5.665-4.199.783-.986 1.535-1.997 2.263-2.948.479-.225.892-.261 1.352-.017.335.841-.009 1.683-.108 2.527-.213 1.824-.724 3.576-1.405 5.272-.826 2.056-2.028 3.762-4.515 4.17-.095 1.498-.216 2.912-.269 4.331a60.699 60.699 0 00.465 10.012c.395 3.093 1.949 4.412 5.072 4.367.435-.007.872-.022 1.3-.082.469-.065.929-.189 1.349-.277.95-1.679.45-2.627-2.674-5.044.061-3.213.5-6.325 3.624-8.308 2.209-1.401 4.342-2.891 6.097-4.859.487-.545.96-1.101 1.605-1.842 1.386 3.75 1.312 7.462 1.303 11.092.195.504.553.753.932.97 2.491 1.43 4.451 3.452 6.305 5.598a33.02 33.02 0 001.412 1.533c.792.803 1.779 1.293 2.883 1.393 2.707.244 5.357-.144 7.896-.778 1.171-1.792-.828-4.622-3.061-4.102-1.386.323-2.442-.053-3.472-.924-1.198-1.012-2.38-2.032-3.403-3.224-1.548-1.801-2.041-3.876-1.647-6.2.287-1.681.887-3.262 1.435-4.866 1.191-3.491 2.341-6.996 3.521-10.53.755-.394 1.647-.525 2.318-1.088 9.229 4.098 18.96 4.304 28.76 3.88.473.83.436 1.672.454 2.475.127 5.324-.23 10.593-1.958 15.687-.379 1.117-.339 2.128.538 3.013.73.736 1.051 1.684 1.332 2.649.06.21.119.418.183.626.945 3.088 2.045 3.909 5.257 3.989 1.302.032 2.602.137 3.903.187.432.016.875.005 1.297-.072 1.896-.342 2.524-1.955 1.36-3.502-.876-1.165-2.132-1.59-3.528-1.676-.474-.029-.95-.005-1.541-.005-.748-2.896-1.62-5.692.027-8.58 1.206-2.12 2.022-4.421 2.668-6.776.056-.208.076-.429.322-.611.176-.117.366.023.539.14 4.387 2.976 8.843 5.85 13.047 9.091 1.888 1.455 3.288 3.335 4.745 5.172.867 1.092 1.776 2.152 2.9 2.983 1.467 1.084 3.013 1.78 4.801.638.204-.129.499-.117.754-.161.994-.171 1.793-.635 2.306-1.529.086-.151.163-.31.266-.448 1.466-1.998 1.232-4.074-.648-5.704-.595-.515-1.27-.91-1.951-1.296-6.057-3.426-11.544-7.583-16.271-12.711-.941-1.023-1.83-2.085-2.418-3.356.169-.716.504-1.308.972-1.967.87.976.997 2.247 1.677 3.363.876-.912.619-2.28 1.613-3.019.544.414.251 1.592 1.244 1.404.382 1.167-.272 2.146-.136 3.412 2.166-1.672 2.164-4.342 3.388-6.165.772-.125.807.651 1.363.719.547-.038.751-.608 1.152-.912.472.044.557.682 1.068.676.387-.31.328-.763.356-1.191l-.011.009c.899.391 1.312 1.363 2.282 1.942.846-1.35.133-3.183 1.41-4.291.47.252.456.957 1.152 1.115.414-.699.18-1.566.483-2.29.408.247.156.954.843 1.138.254-1.336-.123-2.71.496-3.999.902.279 1.093-.603 1.542-1.117.284.362-.013.822.458 1.258.67-.798.68-1.797.874-2.7.207-.961.31-1.945.463-2.957.264.348-.061.845.495 1.135.616-.819.546-1.752.441-2.674-.103-.893-.263-1.778-.403-2.698 4.35.936 5.371.228 5.043-3.511.979-.819 1.161-1.992 1.12-3.248a3.912 3.912 0 01.409-1.88c.586-1.207.315-2.02-.846-2.748-.476-.299-.991-.536-1.495-.789-1.329-.668-2.679-1.723-3.703-2.927-.061-.836-.302-1.605-1.178-2.105-.744-.424-1.562-.77-2.183-1.458.096-2.304-1.879-3.622-2.576-5.761-.468.621-.121 1.039-.171 1.435.05.058.206.08.075.216a19.17 19.17 0 00-.067-.224c-.433-.24-.662-.672-.954-1.04-1.06-1.338-2.484-2.11-4.059-2.654-.203-.069-.419-.117-.585.116-.042.452.464.442.63.719l.132.061-.124-.07c-.518-.027-.985-.348-1.482-.287-.43.169.034.483-.215.724-1.169-.321-2.381-.709-3.64-.693-1.249.014-2.497.158-3.807.25.004.751.596.764 1.05.911l-.107.887c-2.332.832-4.712.517-7.203.398.342.748 1.023.603 1.475.891.132.397-.391.505-.316.813-2.429.818-4.88 1.296-7.241 2.239.366.595.752.629 1.141.656l.156-.097c-.053.03-.107.061-.161.09z" fill="#276427"/><path d="M148.282 10.221c.114-.234.309-.409.481-.593a44.21 44.21 0 001.768-2.048c.215-.26.332-.568.389-.896a.434.434 0 00-.194-.463.574.574 0 00-.375.242c-.244.35-.596.561-.945.777-.488.3-1.018.519-1.539.753-.016.007-.041-.002-.072-.005-.003-.139.092-.233.145-.339.448-.882.894-1.766 1.323-2.658.245-.508.477-1.022.712-1.535.068-.145.115-.301.171-.452.037-.104.041-.201-.046-.284-.121-.05-.197.021-.272.096a4.095 4.095 0 00-.512.659c-.308.474-.728.844-1.138 1.221-.243.223-.5.43-.754.641-.077.064-.146.146-.278.176.052-.174.09-.333.145-.486.18-.503.332-1.015.491-1.524.145-.468.282-.939.392-1.415.073-.32.189-.635.161-.972-.009-.1-.016-.192-.135-.247-.166.038-.217.191-.273.328-.117.291-.219.588-.333.882-.13.333-.359.604-.582.874a28.89 28.89 0 01-1.606 1.838c-.031.03-.054.072-.116.07-.022-.26.089-.502.105-.757.036-.533.149-1.059.167-1.597.009-.314.081-.624.07-.943-.005-.15-.057-.287-.093-.428-.023-.092-.101-.14-.212-.135a.37.37 0 00-.14.302c.001.14-.033.278-.036.417-.005.296-.069.58-.131.867-.082.385-.254.732-.436 1.074-.386.727-.869 1.392-1.341 2.063-.028.039-.053.09-.112.103-.027-.079-.012-.159-.012-.238-.003-.618-.004-1.237-.005-1.856 0-.492-.1-.977-.114-1.468-.006-.252-.076-.492-.108-.738-.028-.222-.07-.45-.276-.603a.334.334 0 00-.217.26c-.011.05-.035.1-.033.15.006.347-.106.682-.095 1.03.012.375-.029.75-.067 1.121-.04.386-.062.776-.134 1.156-.096.51-.202 1.018-.348 1.516-.219.744-.454 1.482-.77 2.191-.05.112-.06.243-.166.355v-.644c0-.5-.007-1.002.001-1.502a8.041 8.041 0 00-.075-1.12c-.044-.365-.065-.732-.121-1.093-.029-.195-.083-.385-.124-.579-.015-.07-.043-.124-.139-.134-.134.082-.145.246-.166.376-.075.47-.167.936-.208 1.412-.023.253-.058.51-.094.762-.005.036-.017.072-.018.108-.014.506-.115 1.002-.152 1.506a6.432 6.432 0 01-.607 2.278c-.439.931-.976 1.802-1.549 2.652-.715 1.058-1.5 2.063-2.275 3.075-.308.401-.555.844-.847 1.256-.204.287-.417.567-.573.885-.132.268-.217.54-.195.844.011.147-.016.296-.064.434-.312.9-.696 1.77-1.088 2.638-.433.962-.893 1.911-1.344 2.864-.469.992-.977 1.964-1.44 2.96-.216.466-.568.751-.974 1.002-.682.42-1.41.748-2.152 1.04-.634-.182-1.264-.37-1.898-.544-.37-.103-.736-.242-1.118-.179-.354.057-.711.077-1.06.177-.31.09-.623.16-.915.294-.184.085-.389.165-.521.318-.236.274-.56.358-.872.482-.367.146-.767.198-1.119.385-.579.307-.787.659-.776 1.307.003.178.068.356.101.521.072.063.134.055.203.013l.217-.364c.226-.1.47-.053.707-.034.176.014.352.038.528.034.237-.004.457.104.695.091.06-.004.104.044.142.093.316.406.767.538 1.247.614.397.062.797.113 1.199.14.109.006.202.085.32.078.281.328.557.651.836.974-.068.137-.2.186-.3.262-.974.742-1.943 1.49-2.934 2.208-1.114.808-2.221 1.632-3.393 2.362-.369.23-.769.386-1.155.58-.512.257-1.002.55-1.49.846a24.1 24.1 0 00-1.535.987c-.161.117-.312.044-.463.003-.436-.123-.869-.255-1.304-.382a161.62 161.62 0 00-1.262-.366c-.176-.05-.352-.103-.531-.142-.397-.085-.732.046-.787.55-.198.16-.494.241-.593.546.105.255.332.406.539.56.665.492 1.374.922 2.11 1.302.347.178.707.321 1.084.418.098.024.206.011.308.016.56.034 1.111-.057 1.664-.124.348-.042.696-.096 1.043-.146.149-.023.289-.116.452-.06-.045.478-.245.97.06 1.418a.7.7 0 00.519-.065c.448-.224.848-.517 1.236-.832.072-.059.13-.145.24-.153.066.052.082.128.105.206.123.432.273.852.532 1.224.227.327.496.36.796.095a3.4 3.4 0 00.665-.84 1.3 1.3 0 01.102-.147c.157.32.422.474.748.535.134.025.26.095.406.08a2.54 2.54 0 001.124-.407c.274-.172.515-.385.758-.6.2-.024.398.003.596 0 .096 0 .192.002.286.003.787.005.92-.043 1.5-.57.136-.125.28-.237.435-.362l1.005-.001c.184 0 .367-.026.543-.08.367-.116.621-.35.707-.72.077-.064.153-.05.225-.05.273 0 .545-.008.817.004.211.01.407-.052.61-.088a.32.32 0 00.153-.082c.213-.18.364-.406.445-.67.035-.113.075-.22.142-.349.19.061.397.037.597.084.268.063.531.072.801-.02a.588.588 0 00.311-.259c.185-.277.303-.585.412-.897.019-.056.023-.116.103-.165.133-.019.292-.06.45-.06.204 0 .387-.087.584-.106.127-.012.226-.102.311-.197.172-.193.311-.408.407-.65a.493.493 0 01.234-.274 2.6 2.6 0 00.566-.415c.256-.244.409-.532.402-.894 0-.028.01-.056.012-.074a.115.115 0 01.111-.037c.285.045.573.04.859.037.846-.008 1.686.124 2.533.091a.482.482 0 01.244.057c.249.267.517.528.787.788.252.244.557.38.873.488.564.196 1.083.48 1.611.75.669.345 1.342.684 2.048.952.205.078.421.09.63.05.243-.045.358-.242.439-.453.036-.095.049-.199.073-.304.07-.053.159-.043.228-.017.263.097.55.097.807.212a.553.553 0 00.105.032c.276.056.404-.046.419-.326.008-.145-.02-.293.037-.462.202.078.406.12.61.164.408.088.812.077 1.197-.05.416-.14.495-.308.388-.818-.067-.31-.267-.568-.455-.822-.022-.029-.052-.053-.05-.093.218-.125.47-.085.704-.145.193-.05.377-.112.546-.22.171-.108.196-.208.104-.386a.949.949 0 00-.26-.293l-.152-.123c.063-.125.17-.196.258-.28.204-.2.349-.436.452-.696.156-.394-.068-.792-.499-.89-.077-.018-.165-.006-.231-.124.171-.32.295-.684.207-1.07-.043-.189-.084-.388-.204-.554a.74.74 0 00-.196-.186c-.199-.008-.404-.02-.605.043a.458.458 0 01-.152.025 7.709 7.709 0 00-1.254.076c-.417.054-.834.058-1.25.09-.395.03-.787.101-1.184.104a10.84 10.84 0 00-1.21.073c-.562.065-1.128.07-1.69.117-.206.018-.403.076-.612.08-.236.002-.472.003-.688-.097-.223-.105-.474-.145-.702-.295.283-.47.112-.909-.09-1.364.445-.22.94-.306 1.372-.494.2-.354.152-.69.058-1.026.124-.156.314-.198.463-.3.309-.212.619-.42.879-.694a1.81 1.81 0 00.117-.132c.207-.27.176-.498-.096-.7-.04-.03-.087-.052-.133-.08.305-.224.604-.448.909-.662.159-.109.284-.253.432-.373.191-.155.229-.355.225-.588-.008-.39-.14-.745-.272-1.113.112-.15.303-.19.454-.287.294-.19.594-.37.864-.6.241-.207.297-.457.238-.753-.042-.21-.128-.406-.202-.623.165-.139.336-.288.51-.43a7.888 7.888 0 001.043-1.005c.216-.25.251-.542.165-.865a4.831 4.831 0 00-.264-.732c.363-.153.683-.36.927-.676.221-.288.232-.447.007-.725-.17-.21-.4-.34-.631-.47-.037-.022-.085-.029-.113-.108.122-.146.256-.306.392-.465a3.76 3.76 0 00.472-.685c.065-.124.049-.223-.031-.326a.953.953 0 00-.363-.28c-.252-.117-.5-.244-.78-.289-.037-.005-.064-.033-.072-.092.256-.18.523-.356.778-.55.433-.327.866-.657 1.194-1.098.138-.185.25-.381.251-.621.001-.279-.099-.388-.376-.41-.036-.004-.071-.006-.128-.01.115-.203.231-.388.327-.582.1-.204.192-.412.185-.648-.005-.172-.005-.18-.147-.333-.16-.044-.329-.015-.516-.005.106-.235.25-.43.332-.658.034-.09.059-.18.083-.273.036-.135.035-.27-.088-.361-.125-.094-.26-.159-.428-.084-.14.062-.303.06-.439.136l-.006.004.008-.002z" fill="#738D2A"/></svg>