<svg width="173" height="142" fill="none" xmlns="http://www.w3.org/2000/svg"><path d="M0 0h173v46c0 53.02-42.981 96-96 96h-5c-39.764 0-72-32.235-72-72V0z" fill="#fff"/><path d="M81.093 23.897c-9.85 0-17.835 7.994-17.835 17.854v31.406h35.67V41.751c0-9.86-7.985-17.854-17.835-17.854z" fill="#C2EBFB"/><path d="M87.412 42.101c1.532-.625 3.258.066 4.88-.246a5.458 5.458 0 001.85-.709c.475-.295.768-.64 1.346-.662.11-.004 2.122-.172 1.888-.616.172.326.396 1.615.396 1.615a1.5 1.5 0 01-.206 1.115c-.168.284-.525.022-.525.022-.057.133.118.297.12.344.002.048-.208.169-.208.169-.319.062-.468-.24-.468-.24-.02.152.065.315.247.413.181.098.14.192.14.192-.255.201-.655-.142-.655-.142.079.23.58.393.812.425.233.032.373-.033.243.19-.13.221-.626.2-.626.2.184.146.666.043.666.043.12.135.62-.215.62-.215.544-.269.405-.414.667-.81.262-.397.382-1.675.382-1.675.02-.538.387-2.643.387-2.643 1.575-.449 1.721-1.608 2.225-2.587.504-.979.458-1.412.458-1.412.439.072 1.274-.25 1.677-.325.403-.075.956-.058 1.262-.116.305-.058.22-.43.22-.43.464-.112.214-.62.214-.62-.089-.516-1.721-1.043-1.815-1.187a2.08 2.08 0 00-.863-.698c-.447-.182-1.101-.405-1.101-.405l-.035.027s-.244-1.346-.881-1.735c-.638-.39-.672.152-.672.152-.74.128-.378.919-.217 1.297.16.379.316 1.128.316 1.128-.374.757-.266 1.925-1.048 2.228-.782.304-2.195-.38-4.154-1.171-1.96-.791-4.201-.666-5.91-.025-1.85.694-2.973 2.364-4.126 3.858-1.342 1.738-2.86 3.36-4.642 4.65-2.309 1.674-5.104 2.775-7.953 2.707a4.805 4.805 0 01-1.959-.433c-.374-.172-.627-.449-.853-.784-.106-.157-.544-.965-.748-.417a.665.665 0 00-.024.269c.037.643.214 1.047.662 1.495 1.723 1.723 4.49 1.484 6.662 1.02 2.513-.539 4.953-1.562 7.02-3.103a14.448 14.448 0 001.5-1.285c.365-.358.763-.927 1.29-1.05.287-.068.443.425.723 1.404.28.98.816.778.816.778z" fill="#F46B90"/><path d="M88.037 45.952c.297.491 1.476 1.044 2.173 1.385.696.341 1.916 1.257 1.916 1.257-.003.334.37.626.822.747.452.122.652.252.652.252l-.05-.242s.03.06.583.285c.552.224.885.137.885.137s-.137.095.189.206c.325.11.547.057.742.05.196-.006.465.091.465.091l-.177-.267c.24.053.776.187.776.187-.11-.361-.426-.579-1.075-.754-.649-.176-1.367-.744-1.553-.875-.702-.492-1.386-1.01-2.078-1.516-.275-.202-.63-.39-.869-.636-.168-.174-.243-.394-.445-.556-.24-.194-.539-.312-.768-.523a.921.921 0 01-.262-.368c-.199-.568 1.05-.885 1.44-.948.527-.084 1.028.047 1.541-.086a3.811 3.811 0 001.572-.83 3.822 3.822 0 001.203-2.092c.11-.547.064-1.192-.36-1.553-.314-.268-.755-.313-1.167-.346-.542-.043-1.11-.047-1.63-.184-.558-.147-1.126-.193-1.702-.193-1.097.03-2.209.402-3 1.162-.288.276-.543.644-.495 1.04.047.373.348.656.532.984.216.386.272.846.235 1.287-.047.573-.266 1.086-.255 1.66.008.369-.04.907.16 1.239z" fill="#F46B90"/><path d="M37.38 96.539c.042-.234.078-.556.106-.967 0-.255.022-.532.064-.83.183-1.345.587-3.265 1.21-5.758l.552-2.274a49.578 49.578 0 001.231-8.671l.425-.447c.495-.155.905-.233 1.23-.233.34 0 .624.088.85.266.227.177.403.464.53.86.185 1.658.418 3.415.701 5.27.283 1.857.659 4.166 1.126 6.929a406.76 406.76 0 011.082 6.61c.297 0 .542.049.733.148.19.1.385.34.584.723a.531.531 0 01-.085.233c-.057.1-.177.17-.361.213a2.906 2.906 0 01-.616.064c-.354 0-.764-.036-1.231-.107-.708-.085-1.239-.12-1.592-.106-.34 0-.637.05-.892.149a1.468 1.468 0 01-.17-.66c0-.212.053-.4.16-.562.105-.163.258-.33.456-.5a26.101 26.101 0 01-.584-3.442 78.309 78.309 0 01-.265-4.038c-.085-2.111-.199-3.733-.34-4.867-.127-.297-.252-.513-.372-.648s-.286-.202-.498-.202a35.814 35.814 0 01-.5 2.954 82.242 82.242 0 01-.838 3.485c-.41 1.644-.722 2.969-.934 3.974a26.935 26.935 0 00-.467 3.188c.17 0 .318.078.446.234.141.141.283.212.424.212v.426c0 .07-.025.162-.074.276-.05.113-.167.17-.35.17-.227 0-.58-.014-1.062-.043l-.976-.02c-.312 0-.595.02-.85.063a4.463 4.463 0 01-.137-.34 1.506 1.506 0 01-.096-.532c0-.212.067-.34.202-.382.134-.043.435-.064.902-.064a2.66 2.66 0 00.276-.754zm15.93-16.354c0 .383.036.808.106 1.275.014.1.036.302.064.606.028.305.036.578.021.818-.028.865-.085 2.246-.17 4.145a438.013 438.013 0 00-.19 5.036 148.03 148.03 0 00-.086 4.803c.142.142.368.29.68.447.283.141.488.276.616.403 0 .128-.029.224-.085.287a1.81 1.81 0 01-.297.245 2.27 2.27 0 00-.468.36c-.155-.07-.424-.134-.806-.19a16.018 16.018 0 00-.998-.022c-.481 0-.881-.014-1.2-.042a4.07 4.07 0 01-.923-.191c-.029-.015-.067-.064-.117-.15a.578.578 0 01-.074-.297.52.52 0 01.191-.403c0-.1.021-.16.064-.18a.502.502 0 01.212-.033c.127 0 .219-.007.276-.021a.628.628 0 00.297-.213c.127-.127.191-.312.191-.552a2.13 2.13 0 00-.042-.393 6.525 6.525 0 00-.064-.309 3.058 3.058 0 01-.085-.488c0-.44.014-1.084.043-1.934l.02-1.87a3.727 3.727 0 01-.041-.394 8.288 8.288 0 01-.022-.627V78.953c-.269 0-.478-.025-.626-.075-.149-.05-.223-.173-.223-.372v-.87c0-.128.05-.192.148-.192.043 0 .184.032.425.096.24.063.481.095.722.095.156 0 .488-.028.998-.085.113-.014.318-.035.615-.063.298-.029.56-.043.786-.043.48 0 .842.064 1.083.191.113.114.17.255.17.425 0 .227-.096.433-.287.616a1.01 1.01 0 01-.733.277c-.127.34-.19.751-.19 1.232zm12.445 7.025c.113-.532.208-1.028.286-1.488.078-.46.131-.762.16-.904.07-.368.198-.885.382-1.55l.403-1.595.191-.701c.113-.44.198-.787.255-1.041a3.77 3.77 0 00.085-.808c0-.425.184-.818.552-1.18.368-.36.771-.542 1.21-.542h2.611c.127 0 .223.032.287.096.063.064.145.167.244.308.141.213.262.369.36.468-.198.198-.378.35-.54.457-.163.106-.35.16-.563.16a1.47 1.47 0 01-.658-.17 3.613 3.613 0 00-.191 1.189c0 .227.028.581.085 1.063.07.425.106.836.106 1.232v7.46l-.021 1.254c-.015.198-.021.488-.021.87 0 .412.013.724.042.936a15.6 15.6 0 01.085 1.658c0 .368-.014.85-.043 1.445-.028.595-.042 1.02-.042 1.275.467 0 .884.12 1.252.361s.552.489.552.744c0 .198-.106.347-.318.447a1.5 1.5 0 01-.467-.064.86.86 0 01-.17-.032 1.24 1.24 0 00-.297-.032 4.35 4.35 0 00-.467.064c-.17.056-.333.085-.489.085l-.764-.149c.085-.043.042-.05-.127-.021-.17.028-.368.06-.595.095a4.886 4.886 0 01-.743.054c0-.1-.017-.17-.053-.213a.744.744 0 00-.212-.15c-.106-.056-.16-.155-.16-.296 0-.114.047-.202.139-.266.092-.064.244-.138.456-.223.368-.156.609-.29.722-.404-.198-1.332-.297-2.947-.297-4.846 0-.594.014-1.558.042-2.89.028-.963.043-1.693.043-2.189 0-.17.028-.566.085-1.19.085-.708.127-1.232.127-1.572V82.65c0-.156-.004-.273-.01-.351-.008-.078-.061-.237-.16-.478l.021-.404c0-.156-.099-.333-.297-.531 0 .014.007.053.022.117.013.063.02.145.02.244 0 .212-.035.39-.106.531-.141.355-.286.818-.435 1.392a42.747 42.747 0 00-.414 1.754 52.11 52.11 0 01-.403 1.657c-.029.1-.088.302-.18.606-.093.305-.16.549-.202.733l-.297 1.594c-.241 1.204-.397 1.97-.468 2.295-.042.184-.092.532-.148 1.041a10.94 10.94 0 01-.18 1.222c-.064.277-.16.415-.287.415-.184 0-.403-.078-.658-.234-.284-.142-.488-.212-.616-.212 0-.312-.025-.592-.074-.84a8.734 8.734 0 00-.244-.903l-.128-.446-.36-1.318c-.072-.24-.178-.62-.32-1.137a46.678 46.678 0 00-1.295-4.028 7.096 7.096 0 01-.148-.456 2.675 2.675 0 00-.212-.52 1.861 1.861 0 00-.319-.426v3.06c0 .355-.063.928-.19 1.722-.156 1.062-.234 1.8-.234 2.21v6.143c.283 0 .499.025.648.075.148.049.223.173.223.371 0 .354-.199.598-.595.733-.396.135-.913.202-1.55.202-.311 0-.708-.014-1.188-.042l-.595-.022c-.127 0-.223-.031-.287-.095a2.468 2.468 0 01-.244-.308 3.211 3.211 0 00-.36-.468c.098-.1.187-.205.265-.319a.945.945 0 01.223-.244.43.43 0 01.255-.074c.14 0 .34.064.594.191V78.72a1.08 1.08 0 00-.414.075.968.968 0 01-.372.074c-.085 0-.173-.01-.265-.032a1.023 1.023 0 00-.202-.032 1.91 1.91 0 00-.51-.085c-.226-.226-.357-.393-.392-.5-.035-.106-.053-.378-.053-.818a4.24 4.24 0 011.337-.191c1.033 0 2.194.206 3.482.617.227.481.428.892.605 1.232.177.34.322.624.435.85.043.057.135.234.276.531v.447c.312.623.598 1.3.86 2.03.262.73.548 1.597.86 2.602l.382 1.19c.113.34.223.628.329.861.106.234.223.465.35.691l.276.532c.17-.525.311-1.053.425-1.584zm19.692 6.683c0 .737.025 1.42.075 2.05.049.631.166 1.13.35 1.499 0 .113.092.188.276.223.184.036.329.088.435.16.106.07.16.226.16.467-.482.156-1.084.234-1.805.234-.411 0-1.012-.043-1.805-.128-.877-.085-1.528-.12-1.953-.106 0-.142.028-.319.085-.531.056-.213.177-.319.36-.319h.404c.199-1.516.322-3.177.372-4.984.05-1.806.074-4.034.074-6.683v-4.272c0-.425.035-.836.106-1.233.014-.113.029-.244.043-.393a5.13 5.13 0 00.02-.478c0-.34-.056-.63-.169-.871h-3.842c0 1.29-.071 3.223-.213 5.802-.141 2.72-.212 4.767-.212 6.142v4.271l-.021 1.764c0 .184.042.33.127.436.085.106.205.216.361.329.141.099.248.194.319.287a.53.53 0 01.106.33l-.043.254c-.057.156-.254.273-.594.35a5.72 5.72 0 01-1.252.118c-.765 0-1.43-.057-1.996-.17-.199-.043-.316-.11-.35-.202-.036-.092-.054-.259-.054-.5 0-.127.029-.223.085-.286.057-.064.163-.146.319-.245.028-.028.091-.07.19-.127.1-.057.185-.12.256-.192V85.35c0-.425.028-1.148.084-2.168.057-1.105.085-1.955.085-2.55 0-.95-.056-1.8-.17-2.55a4.77 4.77 0 01-.923-.075c-.248-.05-.372-.16-.372-.33.198-.368.588-.552 1.168-.552.24 0 .489.021.743.064a8.5 8.5 0 00.637.042h8.959c.311 0 .467.142.467.425 0 .213-.085.411-.255.596a.83.83 0 01-.637.276v15.365zm10.863.595a22.51 22.51 0 00.52-1.828c.184-.58.3-1.161.35-1.742.05-.581.075-1.304.075-2.168 0-.297.028-.673.084-1.126 0-.085.011-.237.032-.457a6.53 6.53 0 00.032-.627 14.656 14.656 0 00-.064-1.296 14.11 14.11 0 01-.084-1.276c-.142-.283-.283-.708-.425-1.275-.142-.595-.29-1.041-.446-1.339l-.233-.51a11.439 11.439 0 00-.68-1.296 1.911 1.911 0 00-.764-.701c-.283 0-.566-.014-.849-.043a10.241 10.241 0 00-.913-.043 5.999 5.999 0 00-1.019 1.329 10.46 10.46 0 00-.722 1.69 3.447 3.447 0 00-.371 1.157c-.05.39-.075.876-.075 1.456-.113.907-.17 1.913-.17 3.018 0 1.998.206 4.173.616 6.525.1.198.18.41.244.637.064.226.11.375.139.446.084.298.159.528.222.69.064.164.152.302.266.415.113 0 .187.022.222.064.036.043.068.135.096.276a.648.648 0 00.17.34c.226.227.594.34 1.104.34.438 0 .86-.081 1.263-.244.403-.163.654-.372.754-.627a31.73 31.73 0 00.626-1.785zm.71 2.826a3.493 3.493 0 01-.636.553c-.82.524-1.691.787-2.611.787a4.75 4.75 0 01-2.558-.734c-.785-.489-1.37-1.087-1.751-1.796a20.765 20.765 0 01-1.317-3.06c-.184-.75-.3-1.512-.35-2.284a46.511 46.511 0 01-.074-2.901c0-.184-.014-.447-.043-.787a11.686 11.686 0 01-.042-.829c0-.325.028-.658.085-.998.013-.086.056-.32.127-.702.07-.382.106-.701.106-.956.028-.142.078-.411.149-.808.056-.382.117-.687.18-.913a1.09 1.09 0 01.308-.532c.156-.212.39-.56.7-1.041.425-.651.79-1.162 1.094-1.53a4.25 4.25 0 011.146-.957c.46-.268 1.002-.403 1.624-.403.283 0 .503.014.658.042.85 0 1.525.127 2.028.383.502.255.973.709 1.412 1.36.665.439 1.227 1.12 1.687 2.04.46.921.74 1.934.839 3.039.056.581.085 1.346.085 2.295v.935c0 1.446-.12 2.671-.36 3.677-.426 2.012-1.07 3.804-1.933 5.377a3.766 3.766 0 01-.552.743zm14.747-3.421c0 .737.024 1.42.074 2.05.05.631.166 1.13.35 1.499 0 .113.093.188.277.223a1.2 1.2 0 01.435.16c.106.07.159.226.159.467-.481.156-1.083.234-1.805.234-.41 0-1.012-.043-1.804-.128-.877-.085-1.529-.12-1.953-.106 0-.142.028-.319.085-.531.056-.213.177-.319.361-.319h.403c.198-1.516.322-3.177.371-4.984.05-1.806.075-4.034.075-6.683v-4.272c0-.425.035-.836.106-1.233.014-.113.028-.244.042-.393.015-.149.022-.308.022-.478 0-.34-.057-.63-.17-.871h-3.842c0 1.29-.071 3.223-.213 5.802-.142 2.72-.212 4.767-.212 6.142v4.271l-.021 1.764c0 .184.042.33.127.436.085.106.205.216.361.329.141.099.247.194.318.287a.524.524 0 01.106.33l-.042.254c-.057.156-.255.273-.594.35a5.64 5.64 0 01-1.253.118c-.764 0-1.43-.057-1.996-.17-.198-.043-.315-.11-.35-.202-.035-.092-.053-.259-.053-.5 0-.127.028-.223.085-.286.056-.064.163-.146.318-.245.029-.028.092-.07.191-.127a1.22 1.22 0 00.255-.192V85.35c0-.425.029-1.148.085-2.168.057-1.105.085-1.955.085-2.55 0-.95-.057-1.8-.17-2.55-.368 0-.676-.025-.923-.075-.248-.05-.372-.16-.372-.33.198-.368.587-.552 1.168-.552.24 0 .488.021.743.064.311.028.524.042.637.042h8.958c.312 0 .468.142.468.425 0 .213-.085.411-.255.596a.83.83 0 01-.637.276v15.365zm10.863.595c.233-.723.406-1.332.52-1.828.184-.58.3-1.161.35-1.742.05-.581.075-1.304.075-2.168 0-.297.028-.673.084-1.126 0-.085.011-.237.032-.457.021-.22.032-.429.032-.627 0-.199-.007-.428-.021-.69a14.076 14.076 0 00-.043-.606 14.2 14.2 0 01-.084-1.276c-.142-.283-.284-.708-.425-1.275-.142-.595-.29-1.041-.446-1.339l-.233-.51a11.443 11.443 0 00-.68-1.296 1.91 1.91 0 00-.764-.701c-.283 0-.566-.014-.849-.043a10.233 10.233 0 00-.913-.043 5.994 5.994 0 00-1.019 1.329 10.46 10.46 0 00-.722 1.69 3.448 3.448 0 00-.371 1.157c-.05.39-.075.876-.075 1.456-.113.907-.17 1.913-.17 3.018 0 1.998.206 4.173.616 6.525.099.198.181.41.245.637.063.226.109.375.137.446.085.298.159.528.223.69.064.164.152.302.266.415.113 0 .187.022.222.064.036.043.068.135.096.276a.644.644 0 00.17.34c.226.227.594.34 1.104.34.439 0 .86-.081 1.263-.244.404-.163.654-.372.754-.627a31.68 31.68 0 00.626-1.785zm.711 2.826a3.563 3.563 0 01-.637.553c-.821.524-1.691.787-2.611.787a4.75 4.75 0 01-2.558-.734c-.786-.489-1.369-1.087-1.752-1.796a20.859 20.859 0 01-1.316-3.06 13.048 13.048 0 01-.35-2.284 46.387 46.387 0 01-.074-2.901c0-.184-.015-.447-.043-.787a11.962 11.962 0 01-.042-.829c0-.325.028-.658.085-.998.014-.086.056-.32.127-.702a5.41 5.41 0 00.106-.956c.028-.142.078-.411.149-.808.056-.382.116-.687.18-.913.064-.227.166-.404.308-.532.156-.212.389-.56.701-1.041a17.18 17.18 0 011.093-1.53 4.242 4.242 0 011.146-.957c.46-.268 1.001-.403 1.624-.403.283 0 .502.014.658.042.849 0 1.525.127 2.028.383.502.255.973.709 1.412 1.36.664.439 1.227 1.12 1.687 2.04.46.921.74 1.934.839 3.039.056.581.085 1.346.085 2.295v.935c0 1.446-.121 2.671-.361 3.677-.425 2.012-1.069 3.804-1.932 5.377a3.752 3.752 0 01-.552.743z" fill="#2C8579"/><path d="M60.312 105.155c.118-.125.22-.267.306-.424a1.68 1.68 0 00.203-.824c0-.377-.11-.721-.326-1.022a2.145 2.145 0 00-.842-.684 2.748 2.748 0 00-1.185-.245c-.525 0-.986.11-1.37.329a2.784 2.784 0 00-.917.82.73.73 0 00-.105.611c.05.188.157.345.313.456a.707.707 0 00.674.091c.163-.064.314-.185.436-.344.124-.147.262-.252.422-.32.168-.071.352-.107.547-.107.255 0 .458.051.604.15.071.048.143.126.143.343 0 .228-.085.335-.148.396a.556.556 0 01-.405.15h-.395a.72.72 0 00-.545.234.786.786 0 00-.204.546c0 .202.07.386.204.53.141.153.33.235.545.235h.511c.244 0 .43.06.57.183.127.111.185.254.185.448a.647.647 0 01-.11.375.79.79 0 01-.33.273 1.291 1.291 0 01-.547.108 1.7 1.7 0 01-.71-.143c-.205-.091-.356-.195-.44-.3a.857.857 0 00-.462-.315.727.727 0 00-.591.1.654.654 0 00-.316.588c.002.102.006.204.012.305l.005.087.038.078c.129.256.341.476.632.654.26.158.558.28.887.362.32.08.644.121.96.121.477 0 .913-.097 1.294-.288.388-.194.7-.463.928-.797.236-.346.356-.736.356-1.161 0-.381-.084-.713-.25-.987a1.928 1.928 0 00-.577-.612zm7.468 1.108c-.09.236-.22.444-.388.617a1.822 1.822 0 01-.598.411 2.036 2.036 0 01-1.522 0 1.76 1.76 0 01-.593-.41 1.879 1.879 0 01-.39-.621 2.135 2.135 0 01-.142-.786c0-.282.048-.547.142-.787.093-.238.225-.447.39-.621a1.72 1.72 0 01.59-.405c.228-.096.485-.145.764-.145s.536.049.765.145a1.776 1.776 0 01.982 1.023 2.2 2.2 0 01.14.79c0 .283-.047.549-.14.789zm.764-3.312a3.304 3.304 0 00-1.11-.736c-.847-.344-1.953-.345-2.804 0a3.249 3.249 0 00-1.113.737 3.37 3.37 0 00-.721 1.12 3.78 3.78 0 00-.254 1.402c0 .505.085.978.254 1.405.169.43.412.808.721 1.125.31.315.685.564 1.113.737.426.172.897.259 1.403.259s.977-.087 1.4-.259a3.314 3.314 0 001.112-.737 3.31 3.31 0 00.726-1.125c.168-.427.254-.9.254-1.405a3.78 3.78 0 00-.254-1.402 3.315 3.315 0 00-.727-1.121zm7.749 3.312a1.82 1.82 0 01-.387.617 1.826 1.826 0 01-.599.411 2.037 2.037 0 01-1.523 0 1.762 1.762 0 01-.592-.41 1.882 1.882 0 01-.39-.621 2.145 2.145 0 01-.142-.786c0-.282.048-.547.142-.787a1.89 1.89 0 01.39-.621 1.74 1.74 0 01.59-.405c.228-.096.485-.145.764-.145s.536.049.764.145a1.778 1.778 0 01.983 1.023c.093.241.14.507.14.79 0 .283-.047.549-.14.789zm.764-3.312a3.301 3.301 0 00-1.11-.736c-.847-.344-1.953-.345-2.804 0a3.252 3.252 0 00-1.114.737 3.37 3.37 0 00-.72 1.12 3.78 3.78 0 00-.254 1.402c0 .505.085.978.253 1.405.17.43.412.808.722 1.125.31.315.685.564 1.114.737.424.172.896.259 1.402.259a3.7 3.7 0 001.4-.259 3.311 3.311 0 001.112-.737c.312-.316.556-.694.726-1.125.168-.427.254-.901.254-1.405 0-.505-.086-.977-.254-1.403a3.328 3.328 0 00-.727-1.12zm7.686-.918H80.62a.803.803 0 00-.818.819v5.252c0 .224.083.425.238.581a.842.842 0 001.17-.006.812.812 0 00.229-.575v-4.526h2.486v4.526c0 .224.082.425.237.581a.804.804 0 00.58.237.8.8 0 00.59-.243.812.812 0 00.23-.575v-5.252a.812.812 0 00-.235-.585.807.807 0 00-.584-.234zm4.821 4.057l.505-1.237.497 1.237h-1.002zm1.263-3.515a.79.79 0 00-.77-.542c-.341 0-.619.191-.762.527l-2.174 5.196a.817.817 0 00.05.785.783.783 0 00.686.381.816.816 0 00.756-.506l.338-.828h2.218l.332.826a.818.818 0 00.758.508c.29 0 .534-.129.686-.365a.832.832 0 00.06-.777l-2.178-5.205zm6.782 2.297a.717.717 0 01-.272.272.834.834 0 01-.422.1h-.73v-1.635h.73c.163 0 .299.034.414.103a.751.751 0 01.276.289c.07.129.104.278.104.457 0 .16-.033.295-.1.414zm.543-2.529a2.464 2.464 0 00-1.237-.31h-1.549a.802.802 0 00-.818.819v5.251a.807.807 0 00.818.819.8.8 0 00.589-.242.814.814 0 00.23-.577v-1.283h.73c.458 0 .872-.101 1.232-.3a2.2 2.2 0 00.861-.848c.204-.357.307-.766.307-1.214a2.53 2.53 0 00-.304-1.245 2.228 2.228 0 00-.86-.87zm7.785 5.264l-1.929-2.242 1.727-2.007a.825.825 0 00.214-.52.789.789 0 00-.208-.548.768.768 0 00-.605-.261.766.766 0 00-.591.285l-1.961 2.348h-.188v-1.81a.81.81 0 00-.234-.585c-.3-.301-.845-.309-1.159-.005a.8.8 0 00-.243.59v5.251c0 .225.083.427.238.582a.842.842 0 001.169-.006.811.811 0 00.229-.576v-1.895h.225l2.1 2.447c.15.173.356.266.599.272h.021a.788.788 0 00.575-.227c.223-.223.254-.449.24-.597a.851.851 0 00-.219-.496z" fill="#F57455"/><path d="M67.61 62.947v-.007c0-.043 0-.085-.002-.128V62.8a3.724 3.724 0 00-.006-.121l-.001-.018a3.558 3.558 0 00-.01-.118l-.001-.02a5.45 5.45 0 00-.013-.116l-.002-.02a5.913 5.913 0 00-.016-.117l-.003-.018a4.21 4.21 0 00-.02-.122l-.002-.012a5.072 5.072 0 00-.404-1.253l-.041-.085a6.762 6.762 0 00-.305-.545l-.002-.004a7.767 7.767 0 00-.763-1.01 9.495 9.495 0 00-.278-.3l-.001-.002a14.531 14.531 0 00-.291-.29 14.377 14.377 0 00-.964-.844l-.262-.209-.058-.045-.254-.198a73.296 73.296 0 00-.538-.41l-.146-.11-.106-.08-.141-.108a7.73 7.73 0 00-.077-.058l-.165-.128-.051-.039a23.723 23.723 0 01-.669-.534c-.23-.191-.455-.388-.674-.593l-.049-.045a12.537 12.537 0 01-.536-.542l-.002-.002a10.048 10.048 0 01-.145-.159c-.004-.004-.008-.007-.011-.012l-.132-.149-.02-.022a11.995 11.995 0 01-.417-.505 14.947 14.947 0 01-1.012-1.456 20.407 20.407 0 01-.795-1.429c-.128-.254-.25-.51-.368-.768l-.099-.22-.006-.013-.098-.225-.045-.102-.011-.027a1.493 1.493 0 00-.29-.463c-.163-.162-.416-.256-.625-.163-.306.135-.348.55-.326.886a9.512 9.512 0 00.092.82l.005.027c.021.138.047.275.074.411l.008.036a9.692 9.692 0 00.95 2.6l.032.06a9.872 9.872 0 00.628.998l.008.012.123.168.007.008.13.17.002.001a9.379 9.379 0 00.754.844l.053.053.075.072.128.12c.062.057.124.113.187.168.35.304.722.58 1.101.845l.01.006.166.116c.245.167.492.33.74.495.115.076.23.152.345.23l.008.005c.116.077.23.154.344.233l.15.104c.164.114.327.232.487.353.254.191.502.392.738.604.133.12.262.245.387.373.209.216.404.444.581.687a5.243 5.243 0 01.29.438c.02.033.038.066.056.099l.013.024.043.078.011.022.042.082a3.687 3.687 0 01.052.106l.005.013.044.096.003.007.044.103v.003a4.423 4.423 0 01.228.713v.003a3.966 3.966 0 01.049.252l.003.02c.007.041.012.083.017.124v.001a3.46 3.46 0 01.025.396v.008a3.251 3.251 0 01-.026.422c-.01.072-.021.143-.036.215l-.004.02a1.512 1.512 0 01-.02.087 3.404 3.404 0 01-.052.182l-.018.054-.012.035a2.96 2.96 0 01-.08.195c-.507-.422-1.17-.628-1.827-.658-.658-.03-1.292.147-1.928.32-.8.218-1.52.66-2.272 1.013-.104.049-.216.097-.33.084-.17-.017-.3-.168-.355-.33a.72.72 0 00.312-.235.936.936 0 00.152-.442c.032-.265.007-.532-.018-.797-.258.07-.508.168-.745.291l-.005.003c-.1-.12-.228-.216-.37-.283-.21-.1-.445-.136-.677-.132-.184.003-.374.033-.529.134-.079.05-.147.118-.23.16a.636.636 0 01-.311.047.296.296 0 00-.163-.027h-.001a.224.224 0 00-.08-.031.687.687 0 00-.136-.017c-.055-.002-.077.012-.089.061a.65.65 0 00-.024.18c0 .017.003.035.012.05a.756.756 0 00-.007.347l-.002.014v.03l.001.014.001.01.003.015.004.02.003.007c0 .005.002.01.004.016l.002.005c.03.091.087.186.12.251.109.211.222.42.335.629l.085.156c.182.338.362.677.52 1.027.188.413.347.843.44 1.288.04.192.033.387.092.576.06.191.164.369.301.513a4.928 4.928 0 00-.082 1.187 22.52 22.52 0 00-1.347 2.98.626.626 0 00-.206-.118c-.064-.023-.147-.01-.184.048-.044-.039-.132-.03-.176.01a.326.326 0 00-.078.155c-.023.082-.04.166-.052.25-.006.046-.008.1.027.13.027.024.07.024.102.009a.29.29 0 00.085-.068c.054.074.127.157.217.169.09.01.191-.044.212-.133a.18.18 0 00.224.097c.089-.03.157-.1.22-.169a46.068 46.068 0 001.605-1.793c.1-.117.2-.237.29-.362l.006-.007.046-.066.005-.007.046-.072.006-.01.037-.062.01-.015.038-.073.004-.01a.95.95 0 00.03-.064l.01-.02.03-.075c.001.037.003.074.006.11l.003.03c.002.03.004.059.008.088l.002.026c.047.416.168.818.352 1.196.06.123.127.243.171.373a.69.69 0 01.029.404.368.368 0 00-.234-.106c-.021-.002-.045-.002-.063.01-.019.012-.028.04-.014.056-.049-.043-.146-.05-.195-.007a.142.142 0 00-.02.18c-.035.03-.072.055-.093.095a.144.144 0 00-.007.13c.032.063.113.078.183.085l.427.045c.108.012.227.02.314-.044.193-.142.17-.485.202-.697.042-.28.087-.559.136-.838.07-.395.147-.79.163-1.191a3.988 3.988 0 00-.34-1.786c.462.13.932.138 1.405.056a.636.636 0 00.126-.046l.007-.002v.001l.04.152.036.133c.262.945.654 1.852 1.165 2.688.159.26.334.519.583.692a2.815 2.815 0 00-.029.491h.019c-.176 0-.34.028-.513.06-.077.016-.16.04-.2.107-.032.052-.024.126.022.165.045.04.126.032.157-.02.03.05.063.073.12.076a.18.18 0 00.15-.07c.062.084.186.117.287.094a.808.808 0 00.276-.145c.204-.144.41-.288.58-.47a.39.39 0 00.096-.142c.032-.103-.015-.212-.059-.31a7.283 7.283 0 01-.473-1.46c-.075-.358-.18-.7-.229-1.063a2.488 2.488 0 01.087-1.058l.005-.019.026-.077a1.533 1.533 0 00.025.156c.082.393.303.749.518 1.09.412.655.837 1.324 1.447 1.797.322.25.562.58.842.878a1.583 1.583 0 00-.19.447c-.09-.002-.193-.007-.284-.01a1.512 1.512 0 00-.303.013.508.508 0 00-.27.128.248.248 0 00-.072.118.147.147 0 00.03.132.136.136 0 00.126.037.183.183 0 00.11-.077.212.212 0 00.176.102.214.214 0 00.182-.09c.065.094.18.123.292.102a.657.657 0 00.297-.16c.213-.181.376-.413.538-.64a.827.827 0 00.16-.316c.025-.132-.016-.268-.061-.395a7.032 7.032 0 00-.636-1.342c-.28-.46-.657-.901-.706-1.438-.024-.257.05-.512.136-.754.164-.466.377-.916.495-1.395.12-.48.123-1.014-.095-1.457.276-.068.558-.204.756-.41l.015-.015.023-.026.02-.024.018-.023a.812.812 0 00.023-.031l.014-.019a.882.882 0 00.033-.053l.001-.002.05-.087a3.7 3.7 0 00.426-1.774z" fill="#A8DB4F"/><path d="M74.226 72.029c.125-.37.175-.76.225-1.146.145-1.118-.201-2.3-.9-3.179.162-1.627.028-3.342-.1-4.972-.02-.267-.046-.546-.136-.794a.89.89 0 00.054-.043c.149-.128.424.004.42.201.246-.01.49-.11.672-.278a.335.335 0 00.231.347.332.332 0 00.38-.17.572.572 0 00.758-.171c.067.145.295.176.397.053.09.09.235.12.352.07a.332.332 0 00.199-.3c.23.107.512.099.737-.02a.859.859 0 00.419-.525c.026.268.08.535.138.797a33.22 33.22 0 00.843 3.119c.152.47.316.939.56 1.367.244.428.574.817.999 1.063a2.035 2.035 0 00-.672.704 10.919 10.919 0 00-1.01 2.842c-.098.48-.129.965-.168 1.454-.21.021-.468.205-.678.228-.105.01-.218.025-.295.098-.076.074-.08.228.017.27-.063-.038-.15.026-.15.1-.002.072.06.134.129.157a.514.514 0 00.215.01l1.1-.106a.545.545 0 00.26-.1.196.196 0 00.118.105.514.514 0 00.215.01l1.1-.106c.165-.016.243-.101.377-.174a.416.416 0 01.096-.038c.076-.02.147-.014.249-.02a1.68 1.68 0 00.82-.29c.52-.342.897-.907 1.236-1.42.406-.614.71-1.268 1.01-1.938.122-.27.105-.577.234-.85.11-.23.294-.352.452-.532.181-.205.312-.493.416-.744.423-1.026.29-2.18.178-3.254-.063-.613-.285-1.24-.475-1.825a18.44 18.44 0 00-.654-1.712 1.76 1.76 0 00.312-.21c.128-.1.258-.203.35-.339.09-.135.137-.311.081-.464a.24.24 0 00.125-.01c.036.017.073.033.11.048.187.07.404.1.578.002.125-.07.21-.196.314-.294.15-.144.348-.237.478-.4.13-.164.15-.45-.031-.55.18-.082.371-.174.477-.343.105-.17.074-.44-.11-.514a.643.643 0 00.416-.532.645.645 0 00-.304-.603.557.557 0 00.188-.6.55.55 0 00-.504-.372.355.355 0 00.173-.405.351.351 0 00-.366-.24.351.351 0 00.004-.475.344.344 0 00-.472-.007c.279-.272-.3-.775-.534-.794a.672.672 0 00-.386.08.359.359 0 00-.342-.017.368.368 0 00.028-.468.362.362 0 00-.457-.085.382.382 0 00-.097-.529.376.376 0 00-.515.142.435.435 0 00-.046-.479c-.11-.13-.265-.221-.424-.163a.137.137 0 00-.164-.01.343.343 0 00-.092-.362.338.338 0 00-.368-.048.404.404 0 00-.234-.367c-.203-.09-.363.101-.51-.005-.098-.07-.069-.347-.282-.166-.223-.277-.684-.366-.935-.064a.498.498 0 00-.356-.409.494.494 0 00-.51.179.447.447 0 00-.421-.308.448.448 0 00-.413.32.5.5 0 00-.376-.354.497.497 0 00-.483.184.411.411 0 00-.305-.372.408.408 0 00-.438.193c.054-.111-.04-.25-.157-.289-.118-.037-.245-.004-.363.034-.118.037-.242.077-.363.053-.177-.035-.364-.2-.51-.093-.076.056-.106.175-.199.196-.154.034-.209-.23-.361-.273-.147-.04-.27.149-.422.147-.094 0-.17-.072-.25-.12a.541.541 0 00-.742.25.704.704 0 00-.674-.303c-.258.037-.55.2-.626.45.01-.146-.181-.26-.303-.181-.127-.184-.459-.145-.54.063-.146-.276-.6-.3-.774-.04-.19-.262-.65-.243-.819.034-.002-.18-.254-.238-.422-.178-.169.06-.331.18-.507.15-.186-.032-.368-.224-.527-.125-.105.066-.14.239-.264.248-.12.008-.18-.149-.291-.195-.127-.053-.263.055-.342.169-.08.114-.152.25-.284.29-.138.04-.28-.045-.423-.055-.191-.013-.37.114-.475.276a1.02 1.02 0 00-.102.208.122.122 0 01-.063-.115c.007-.067.052-.124.078-.186a.343.343 0 00-.225-.445c.044-.111.09-.23.075-.348-.014-.12-.111-.238-.23-.23.072-.152.146-.31.14-.478-.006-.167-.12-.343-.286-.357.106-.126.21-.268.223-.433.014-.165-.1-.35-.264-.355.1-.146.203-.3.226-.477.024-.176-.058-.38-.227-.434.05-.144.102-.297.071-.446-.03-.15-.178-.286-.324-.245.088-.153.178-.318.167-.494-.012-.177-.155-.38-.324-.333a.228.228 0 00-.01-.27l.133-.372a.555.555 0 00.048-.236c-.007-.08-.061-.163-.14-.175.02-.11.078-.21.127-.311a.552.552 0 00.072-.326c-.02-.111-.118-.215-.23-.202a1.18 1.18 0 00.187-.359c.033-.131.015-.284-.08-.38-.05-.05-.123-.088-.139-.158-.019-.084.056-.156.106-.227a.469.469 0 00.053-.434.463.463 0 00-.332-.281c.085-.184.173-.38.15-.582-.022-.202-.203-.4-.4-.362-.005-.172-.013-.352-.102-.498a.39.39 0 00-.09-.1c.115-.35.225-.701.289-1.063.073-.41.085-.835-.022-1.236-.035-.133-.098-.279-.228-.324-.148-.052-.303.054-.417.163a2.966 2.966 0 00-.744 1.128c-.038.103-.094.235-.123.363a.352.352 0 00-.194.085.255.255 0 00-.213-.165.254.254 0 00-.238.126.314.314 0 00-.177-.301.31.31 0 00-.342.064.273.273 0 00-.22-.203.272.272 0 00-.268.134.325.325 0 00-.3-.178.326.326 0 00-.282.207.431.431 0 00-.37-.168.433.433 0 00-.279.136c-.117-.142-.268-.27-.358-.366a4.56 4.56 0 01-.538-.69c-.084-.131-.192-.285-.346-.274-.1.008-.184.09-.221.183a.726.726 0 00-.035.299c.02.493.132.976.267 1.452a.606.606 0 00-.135.133.645.645 0 00-.067.636.266.266 0 00-.136.288.263.263 0 00.246.199.278.278 0 00.029.364c.098.09.267.088.363-.006-.046.106.053.228.164.255.112.028.228-.008.34-.03a.678.678 0 01.157-.016.496.496 0 00-.023.034c-.132.221-.11.472-.272.672-.06.073-.129.177-.187.251-.053.068-.083.124-.042.188a.3.3 0 00-.026.021c-.023.035-.071.097-.06.127a.984.984 0 00-.163.562.983.983 0 00.236.61c-.01.034-.005.066.028.091l.006.005a.434.434 0 00-.027.5.632.632 0 00.292.245l-.011.023c-.034.091.002.196.066.27.063.072.149.12.234.167-.158.063-.201.283-.128.437.073.154.225.252.375.33a.384.384 0 00-.047.563c.062.062.154.112.162.2.007.08-.059.144-.094.215-.079.16.025.38.197.42a.436.436 0 00-.07.572.32.32 0 00-.05.456c-.159.244-.292.515-.305.807-.006.113.01.244.105.303.038.024.085.033.118.062.078.069.044.194.01.292-.07.202-.115.413-.133.627a.865.865 0 00.045.423c.058.132.184.24.327.238-.076.186-.153.377-.156.578-.004.2.082.415.26.507.036.019.078.033.103.067.042.057.015.137-.007.205-.09.267-.078.59.115.794.046.048.102.09.127.154.066.167-.133.366-.047.524.045.083.15.114.202.191.048.072.041.165.046.252.005.086.036.185.118.212-.086.219-.076.436-.024.666.053.229.31.424.52.32a.643.643 0 00-.184.585c.042.209.199.39.398.463a.554.554 0 00.255.73c-.165.267-.005.674.296.755-.174.295.048.737.386.77-.037.204-.063.426.036.607.1.181.375.272.515.12a.606.606 0 00.046.333c-.056.238-.046.486.07.697l.208.011a.336.336 0 00.086.414.33.33 0 00.42-.026c.012.234.35.367.517.203a.435.435 0 00.296.373.43.43 0 00.454-.141c.007.116.096.189.207.235-.221.659-.192 1.393-.145 2.096.047.709.106 1.423.308 2.103.202.68.558 1.333 1.108 1.777-.753 1.192-.98 2.524-.919 3.935.013.294.06.636.312.785-.105.04-.338-.035-.449-.05-.11-.015-.236-.017-.32.057-.072.063-.076.199-.007.252-.09-.025-.2.053-.214.151-.015.115.067.224.17.277a.83.83 0 00.334.067l1.05.06c.275.017.566.029.807-.105.248-.138.394-.403.522-.657.245-.487.473-.983.681-1.487.213-.514.409-1.042.475-1.594a3.553 3.553 0 00-.272-1.836c.07-.279.135-.555.197-.831.213.55.522 1.062.95 1.462-.038-.023-.085-.038-.112-.029a5.762 5.762 0 00.451 3.387c.202.432.465.876.408 1.35-.09.023-.166.006-.26.007-.093 0-.193.017-.258.085-.064.068-.065.199.017.242-.066-.053-.151.075-.1.144.049.07.147.075.232.073.624-.008 1.295-.033 1.792-.414.308-.236.513-.588.637-.957z" fill="#5EC9BB"/><path d="M94.593 52.66c-.266.267-.664.297-.917.518-.253.076-.457-.06-.67-.042-.223.188-.347.486-.645.543-.107.148.127.221.033.36-.11.117-.282.008-.414.082-.096.069-.127.205-.243.247-.087.099.028.22-.067.334-.186.176-.389-.009-.589-.025-.155.105-.044.29-.133.41-.122.178-.31.256-.506.314a18.667 18.667 0 01-3.497.678c-1.595.154-3.16-.042-4.722-.301-.762-.127-1.527-.237-2.296-.262a7.634 7.634 0 00-4.57 1.305c-.638.424-1.083 1.013-1.39 1.71-.45 1.017-.79 2.075-1.177 3.116-.316.852-.637 1.704-1.22 2.42-.698.86-1.58 1.336-2.717 1.267-.953-.057-1.397-.6-1.638-1.455-.099-.354-.018-.633.215-.898.442-.5.486-.972.16-1.557l-.553-.99c-.034-.23.104-.41.003-.638-.193.233-.218.494-.254.764l-.094-.14c-.074.12-.055.297-.247.32.148.382.13.734-.032 1.084a.606.606 0 00-.028.475c.128.349.123.703.122 1.073-.003 1.1.497 1.955 1.448 2.514.673.395.996.397 1.774.328.431-.039.86-.082 1.278-.204.752-.22 1.294-.716 1.765-1.31.244-.307.478-.622.705-.919.149-.07.277-.081.42-.005.105.262-.002.525-.033.788a6.41 6.41 0 01-.438 1.644c-.257.64-.631 1.173-1.406 1.3-.03.467-.067.908-.084 1.35-.04 1.045.013 2.086.145 3.122.123.964.607 1.376 1.58 1.361.135-.002.272-.006.405-.025.146-.02.29-.059.42-.086.296-.524.14-.82-.833-1.573.02-1.002.156-1.972 1.129-2.59.688-.437 1.352-.902 1.899-1.515.151-.17.299-.344.5-.575.431 1.17.409 2.327.406 3.459.06.157.172.234.29.302.776.446 1.386 1.076 1.964 1.745.141.164.288.324.44.478.246.25.554.404.897.435.844.076 1.669-.045 2.46-.243.364-.559-.258-1.44-.954-1.279-.431.101-.76-.016-1.081-.288-.373-.315-.741-.633-1.06-1.005-.482-.562-.636-1.209-.513-1.933.09-.524.276-1.017.447-1.517.37-1.089.73-2.182 1.097-3.284.235-.123.513-.163.722-.339 2.874 1.278 5.905 1.342 8.957 1.21.148.259.136.521.142.772.04 1.66-.072 3.303-.61 4.89-.118.349-.106.664.168.94.227.23.327.525.414.826l.057.195c.295.963.637 1.22 1.638 1.244.405.01.81.043 1.215.058.135.005.273.002.404-.022.59-.107.787-.61.424-1.092-.273-.363-.664-.496-1.099-.522-.148-.01-.296-.002-.48-.002-.233-.903-.504-1.775.008-2.675.376-.661.63-1.379.831-2.113.018-.065.024-.134.1-.19.056-.037.115.007.169.043 1.366.928 2.754 1.824 4.063 2.835.588.453 1.024 1.04 1.478 1.612.27.34.553.671.903.93.457.338.939.555 1.496.2.063-.041.155-.037.234-.05.31-.054.559-.199.719-.478.027-.047.051-.096.083-.14.456-.622.383-1.27-.202-1.778a3.69 3.69 0 00-.608-.404c-1.886-1.068-3.595-2.364-5.067-3.963-.294-.319-.57-.65-.754-1.047.053-.223.157-.407.303-.613.271.305.31.7.522 1.049.273-.285.193-.711.503-.942.17.13.078.497.387.438.119.364-.084.67-.042 1.064.674-.521.674-1.354 1.055-1.922.24-.04.251.203.425.224.17-.012.233-.19.358-.284.147.013.174.212.333.21.12-.096.102-.237.111-.37l-.003.002c.279.122.408.425.71.605.264-.42.042-.992.44-1.338.146.079.142.299.358.348.129-.218.056-.488.151-.714.127.077.048.297.262.355.079-.417-.038-.845.155-1.247.281.087.34-.188.48-.348.089.113-.004.256.143.392.208-.249.211-.56.272-.842.064-.3.096-.606.144-.922.082.109-.019.264.154.354.192-.255.17-.546.138-.834-.032-.278-.082-.554-.126-.841 1.355.292 1.673.071 1.571-1.095.305-.255.361-.62.349-1.012a1.21 1.21 0 01.127-.587c.182-.376.098-.63-.264-.856-.148-.093-.308-.167-.465-.246a3.828 3.828 0 01-1.153-.913c-.019-.26-.095-.5-.368-.656-.231-.133-.486-.24-.679-.455.03-.718-.585-1.13-.803-1.796-.145.194-.037.324-.053.447.016.019.064.025.023.068l-.02-.07c-.135-.075-.207-.21-.298-.325-.33-.416-.773-.657-1.264-.827-.063-.021-.13-.036-.182.036-.013.141.144.138.196.224l.041.02-.038-.023c-.162-.008-.307-.108-.462-.089-.134.053.011.15-.067.226-.364-.1-.742-.221-1.134-.216-.389.004-.777.05-1.185.078.001.234.185.238.327.284l-.034.276c-.726.26-1.467.162-2.243.124.106.234.319.188.46.278.04.124-.122.158-.1.254-.756.255-1.519.404-2.254.698.114.185.234.196.355.204l.049-.03-.05.028z" fill="#F14D3D"/><path d="M81.952 21.916c.035-.073.096-.128.15-.185.191-.206.372-.422.55-.639a.59.59 0 00.122-.279.136.136 0 00-.061-.144.179.179 0 00-.117.075c-.076.11-.185.175-.294.242-.152.094-.317.162-.48.235-.004.003-.012 0-.022-.001 0-.043.029-.073.045-.106.14-.275.279-.55.412-.829.077-.158.15-.318.222-.478.021-.046.036-.094.053-.141.012-.033.013-.063-.014-.089-.038-.015-.061.007-.085.03a1.267 1.267 0 00-.159.206c-.096.148-.227.263-.355.38-.075.07-.155.135-.234.2-.024.02-.046.046-.087.055.016-.054.028-.104.045-.152.056-.156.104-.316.153-.475.045-.146.088-.293.122-.44.023-.1.06-.199.05-.304-.003-.031-.005-.06-.042-.077-.052.012-.067.06-.085.102-.036.091-.068.184-.103.275-.04.104-.112.189-.182.273-.16.197-.323.39-.5.573-.01.01-.017.022-.036.021-.007-.08.028-.156.033-.235.01-.167.046-.33.052-.498.002-.098.025-.195.022-.294-.002-.047-.018-.09-.03-.134-.007-.028-.031-.043-.066-.042a.115.115 0 00-.043.094c0 .044-.01.087-.011.13-.002.093-.022.181-.041.27-.026.12-.08.229-.136.336-.12.226-.27.434-.418.643-.008.012-.016.028-.035.032-.008-.025-.003-.05-.003-.074l-.002-.579c0-.153-.031-.305-.035-.458-.002-.078-.024-.153-.034-.23-.009-.069-.022-.14-.086-.188a.104.104 0 00-.067.081c-.004.016-.011.032-.01.047.001.108-.034.213-.03.321.003.117-.01.234-.021.35-.013.12-.02.242-.042.36a5.436 5.436 0 01-.348 1.156c-.016.035-.019.076-.052.11v-.2c0-.156-.002-.313 0-.468a2.51 2.51 0 00-.023-.35c-.013-.113-.02-.228-.038-.34-.009-.061-.025-.12-.038-.18-.005-.023-.014-.04-.043-.043-.042.026-.046.077-.052.117-.024.147-.052.292-.065.44a4.702 4.702 0 01-.03.238c0 .012-.005.023-.005.034-.004.158-.036.312-.047.47a2.007 2.007 0 01-.19.71 6.26 6.26 0 01-.482.827c-.222.33-.467.643-.708.959-.096.125-.173.263-.264.391-.064.09-.13.177-.179.276a.5.5 0 00-.06.263.339.339 0 01-.02.135 9.84 9.84 0 01-.34.823c-.134.3-.277.596-.418.893-.146.31-.304.612-.448.923a.724.724 0 01-.304.312 4.186 4.186 0 01-.67.325c-.197-.057-.394-.116-.591-.17-.115-.032-.23-.075-.348-.056-.11.018-.222.024-.33.055-.097.028-.195.05-.285.092-.058.027-.122.052-.163.1-.073.084-.174.11-.271.15-.115.045-.24.061-.349.12-.18.095-.245.205-.241.407 0 .056.02.11.031.163.022.019.042.017.063.004l.068-.114c.07-.031.146-.017.22-.01.055.004.11.011.164.01.074-.001.143.033.217.028.019 0 .032.014.044.03.099.126.239.167.389.19.123.02.248.036.373.044.034.003.063.027.1.025l.26.303c-.021.043-.062.059-.093.082-.304.231-.606.465-.914.689-.347.252-.692.509-1.057.736-.115.072-.24.12-.36.18-.16.081-.312.172-.464.265a7.528 7.528 0 00-.478.307c-.05.037-.097.014-.144.001-.136-.038-.27-.08-.406-.119a49.191 49.191 0 00-.394-.114 2.359 2.359 0 00-.165-.044c-.124-.027-.228.014-.245.171-.062.05-.154.076-.185.17.033.08.104.127.168.175.207.154.428.288.658.406.108.056.22.1.337.13.03.008.064.004.096.006.175.01.346-.018.518-.04.109-.012.217-.029.325-.045.047-.007.09-.036.14-.018-.013.149-.076.302.02.442a.218.218 0 00.161-.02c.14-.07.264-.162.385-.26.023-.018.04-.045.075-.048.02.017.026.04.033.065.038.134.085.265.165.381.071.102.155.112.248.03.085-.075.15-.166.207-.262l.032-.046c.05.1.132.148.233.167.042.008.081.03.127.025a.79.79 0 00.35-.127c.085-.054.16-.12.236-.187.062-.008.124 0 .185 0h.09c.245.002.286-.013.467-.177.042-.039.087-.074.135-.113h.313a.566.566 0 00.17-.025.303.303 0 00.22-.225c.023-.02.047-.015.07-.015.085 0 .17-.003.254.001.066.003.127-.016.19-.027a.099.099 0 00.048-.026.437.437 0 00.138-.21.619.619 0 01.044-.108c.06.02.124.012.186.027a.44.44 0 00.25-.007.183.183 0 00.097-.08 1.22 1.22 0 00.128-.28c.006-.018.007-.036.032-.052.042-.006.091-.018.14-.018.064 0 .121-.027.182-.033.04-.004.07-.032.097-.062a.683.683 0 00.127-.202.154.154 0 01.073-.086.822.822 0 00.176-.13.364.364 0 00.125-.278c0-.009.003-.017.004-.023a.035.035 0 01.035-.012c.088.015.178.013.267.012.264-.002.525.039.79.028a.15.15 0 01.075.018c.078.083.161.165.245.246a.707.707 0 00.272.152c.176.061.337.15.502.234.208.107.418.213.638.296a.356.356 0 00.196.016c.076-.014.111-.075.137-.141.011-.03.015-.062.023-.095.021-.016.049-.013.07-.005.082.03.172.03.252.066.01.005.021.007.033.01.086.017.125-.014.13-.102.002-.045-.006-.091.012-.144.062.025.126.038.19.051a.7.7 0 00.372-.015c.13-.044.154-.096.121-.255-.02-.097-.083-.177-.141-.256-.007-.01-.017-.017-.016-.03.068-.039.146-.026.22-.045a.573.573 0 00.17-.068c.053-.034.06-.065.032-.12a.3.3 0 00-.081-.092 3.979 3.979 0 01-.048-.038c.02-.04.053-.061.08-.088a.61.61 0 00.141-.217c.049-.123-.02-.246-.155-.277-.024-.006-.051-.002-.072-.039a.48.48 0 00.065-.334c-.014-.058-.027-.12-.064-.172a.232.232 0 00-.061-.058c-.062-.003-.126-.007-.189.013a.142.142 0 01-.047.008 2.397 2.397 0 00-.39.024c-.13.016-.26.018-.39.028-.123.01-.245.031-.369.032a3.15 3.15 0 00-.376.023c-.175.02-.352.022-.527.037-.064.005-.125.023-.19.024a.486.486 0 01-.215-.03c-.07-.033-.147-.045-.218-.092.088-.146.035-.283-.028-.425.138-.069.292-.096.427-.154.062-.11.047-.215.018-.32.039-.049.098-.062.144-.094.097-.066.193-.13.274-.216a.487.487 0 00.037-.041c.064-.085.054-.155-.03-.218-.013-.01-.027-.017-.042-.025.095-.07.188-.14.283-.207.05-.034.089-.079.135-.116.06-.048.071-.11.07-.183-.002-.122-.043-.233-.085-.348.035-.046.095-.059.141-.089.092-.059.186-.116.27-.187.075-.064.092-.143.074-.235-.013-.065-.04-.126-.063-.194.051-.043.105-.09.159-.134.118-.095.226-.199.325-.313.067-.079.078-.17.051-.27a1.518 1.518 0 00-.082-.228.69.69 0 00.289-.211c.069-.09.072-.14.002-.226-.053-.066-.125-.106-.197-.147-.011-.007-.026-.009-.035-.033l.122-.145a1.25 1.25 0 00.147-.214c.02-.039.015-.07-.01-.102a.298.298 0 00-.112-.087c-.079-.036-.156-.076-.243-.09-.012-.002-.02-.01-.023-.029.08-.056.163-.11.242-.171.135-.102.27-.205.372-.343a.327.327 0 00.078-.193c0-.087-.03-.121-.117-.128l-.04-.003c.036-.063.072-.121.102-.181a.431.431 0 00.058-.203c-.002-.053-.002-.056-.046-.104-.05-.013-.102-.004-.16-.001.032-.073.077-.134.103-.205a.914.914 0 00.026-.085c.01-.042.01-.085-.028-.113-.039-.03-.08-.05-.133-.026-.044.02-.094.018-.137.042-.003.002-.006.004-.002.002h.003z" fill="#8D76AA"/></svg>