<svg width="68" height="68" viewBox="0 0 68 68" fill="none" xmlns="http://www.w3.org/2000/svg">
<path d="M56.6667 51C56.6667 49.4653 56.1059 48.1371 54.9844 47.0156C53.8628 45.8941 52.5347 45.3333 51 45.3333C49.4653 45.3333 48.1371 45.8941 47.0156 47.0156C45.8941 48.1371 45.3333 49.4653 45.3333 51C45.3333 52.5347 45.8941 53.8628 47.0156 54.9844C48.1371 56.1059 49.4653 56.6667 51 56.6667C52.5347 56.6667 53.8628 56.1059 54.9844 54.9844C56.1059 53.8628 56.6667 52.5347 56.6667 51ZM22.6667 17C22.6667 15.4653 22.1059 14.1372 20.9844 13.0156C19.8628 11.8941 18.5347 11.3333 17 11.3333C15.4653 11.3333 14.1372 11.8941 13.0156 13.0156C11.8941 14.1372 11.3333 15.4653 11.3333 17C11.3333 18.5347 11.8941 19.8628 13.0156 20.9844C14.1372 22.1059 15.4653 22.6667 17 22.6667C18.5347 22.6667 19.8628 22.1059 20.9844 20.9844C22.1059 19.8628 22.6667 18.5347 22.6667 17ZM68 51C68 55.6927 66.3398 59.6992 63.0195 63.0195C59.6992 66.3398 55.6927 68 51 68C46.3073 68 42.3008 66.3398 38.9805 63.0195C35.6602 59.6992 34 55.6927 34 51C34 46.3073 35.6602 42.3008 38.9805 38.9805C42.3008 35.6602 46.3073 34 51 34C55.6927 34 59.6992 35.6602 63.0195 38.9805C66.3398 42.3008 68 46.3073 68 51ZM63.75 2.83333C63.75 3.42361 63.5582 3.98438 63.1745 4.51562L16.4245 66.849C15.8637 67.6163 15.1111 68 14.1667 68H7.08333C6.31597 68 5.65191 67.7196 5.09115 67.1589C4.53038 66.5981 4.25 65.934 4.25 65.1667C4.25 64.5764 4.44184 64.0156 4.82552 63.4844L51.5755 1.15104C52.1363 0.383681 52.8889 0 53.8333 0H60.9167C61.684 0 62.3481 0.280382 62.9089 0.841146C63.4696 1.40191 63.75 2.06597 63.75 2.83333ZM34 17C34 21.6927 32.3398 25.6992 29.0195 29.0195C25.6992 32.3398 21.6927 34 17 34C12.3073 34 8.30078 32.3398 4.98047 29.0195C1.66016 25.6992 0 21.6927 0 17C0 12.3073 1.66016 8.30078 4.98047 4.98047C8.30078 1.66016 12.3073 0 17 0C21.6927 0 25.6992 1.66016 29.0195 4.98047C32.3398 8.30078 34 12.3073 34 17Z" fill="white"/>
</svg>
