<svg width="28" height="29" fill="#ffffff" xmlns="http://www.w3.org/2000/svg"><path d="M14 .35c-7.732 0-14 6.269-14 14 0 7.733 6.268 14 14 14s14-6.267 14-14c0-7.731-6.268-14-14-14zM8.969 5.913c.288-.017.549.155.747.461l1.914 3.63c.201.43.087.89-.214 1.198l-.877.877a.43.43 0 00-.09.25c.336 1.3 1.356 2.501 2.256 3.327.9.825 1.867 1.943 3.122 2.208.155.043.345.058.456-.045l1.019-1.037c.351-.267.86-.396 1.235-.178h.017l3.454 2.039c.507.318.56.932.197 1.306l-2.38 2.36c-.35.36-.817.481-1.27.482-2.006-.06-3.9-1.045-5.457-2.056-2.555-1.859-4.899-4.164-6.37-6.95-.564-1.167-1.227-2.657-1.164-3.96.006-.49.139-.971.484-1.287l2.379-2.38c.185-.157.369-.235.542-.245z" fill="url(#paint0_linear_1_396)"/><defs><linearGradient id="paint0_linear_1_396" x1="14" y1=".351" x2="14" y2="28.351" gradientUnits="userSpaceOnUse"><stop stop-color="#F3673F"/><stop offset="1" stop-color="#F29C2C"/></linearGradient></defs></svg>