<svg width="84" height="84" viewBox="0 0 84 84" fill="none" xmlns="http://www.w3.org/2000/svg">
<path d="M42 0.333374C18.9583 0.333374 0.333336 18.9584 0.333336 42C0.333336 65.0417 18.9583 83.6667 42 83.6667C65.0417 83.6667 83.6667 65.0417 83.6667 42C83.6667 18.9584 65.0417 0.333374 42 0.333374ZM59.9167 59.9167C59.5312 60.303 59.0733 60.6094 58.5693 60.8185C58.0652 61.0276 57.5249 61.1352 56.9792 61.1352C56.4335 61.1352 55.8931 61.0276 55.3891 60.8185C54.885 60.6094 54.4271 60.303 54.0417 59.9167L42 47.875L29.9583 59.9167C29.1793 60.6958 28.1226 61.1335 27.0208 61.1335C25.9191 61.1335 24.8624 60.6958 24.0833 59.9167C23.3043 59.1376 22.8666 58.081 22.8666 56.9792C22.8666 56.4337 22.974 55.8935 23.1828 55.3894C23.3916 54.8854 23.6976 54.4275 24.0833 54.0417L36.125 42L24.0833 29.9584C23.3043 29.1793 22.8666 28.1226 22.8666 27.0209C22.8666 25.9191 23.3043 24.8624 24.0833 24.0834C24.8624 23.3043 25.9191 22.8666 27.0208 22.8666C28.1226 22.8666 29.1793 23.3043 29.9583 24.0834L42 36.125L54.0417 24.0834C54.4274 23.6976 54.8854 23.3916 55.3894 23.1828C55.8934 22.9741 56.4336 22.8666 56.9792 22.8666C57.5247 22.8666 58.0649 22.9741 58.5689 23.1828C59.0729 23.3916 59.5309 23.6976 59.9167 24.0834C60.3024 24.4691 60.6084 24.9271 60.8172 25.4311C61.026 25.9351 61.1334 26.4753 61.1334 27.0209C61.1334 27.5664 61.026 28.1066 60.8172 28.6106C60.6084 29.1147 60.3024 29.5726 59.9167 29.9584L47.875 42L59.9167 54.0417C61.5 55.625 61.5 58.2917 59.9167 59.9167Z" fill="white"/>
</svg>
