<svg width="1146" height="145" viewBox="0 0 1146 145" fill="none" xmlns="http://www.w3.org/2000/svg">
<path opacity="0.3" d="M24.2 137L23.7479 137.892L23.7528 137.894L24.2 137ZM1 116.4L0.47436 115.549L-0.396989 116.088L0.162137 116.946L1 116.4ZM25.6 101.2L26.439 100.656L25.9066 99.8351L25.0744 100.349L25.6 101.2ZM38.2 113L37.7087 113.871L37.7218 113.878L37.7352 113.885L38.2 113ZM73.8 112.4L73.1356 111.653L73.8 112.4ZM76.8 91.4L75.9346 91.901L75.9442 91.9177L75.9545 91.934L76.8 91.4ZM69.6 85.6L69.1833 86.5091L69.2057 86.5193L69.2286 86.5285L69.6 85.6ZM39 83.4H38V84.4H39V83.4ZM39 58.8V57.8H38V58.8H39ZM67.6 57L68.0104 57.9119L68.029 57.9035L68.0472 57.8944L67.6 57ZM73.4 51.8L72.5381 51.293L72.5332 51.3013L72.5284 51.3097L73.4 51.8ZM73.2 36.4L72.3381 36.907L72.356 36.9374L72.376 36.9665L73.2 36.4ZM66.8 31.2L66.3862 32.1104L66.4036 32.1183L66.4214 32.1255L66.8 31.2ZM36.4 33.4L35.9259 32.5195V32.5195L36.4 33.4ZM24.6 44.2L24.0233 45.017L24.8994 45.6354L25.4552 44.7183L24.6 44.2ZM0.8 27.4L-0.00929976 26.8126L-0.604485 27.6326L0.223317 28.217L0.8 27.4ZM23 7.59999L23.489 8.47228L23.4933 8.46983L23 7.59999ZM83.8 4.4L84.1657 3.46925L83.8 4.4ZM101 17.6L100.174 18.1633L100.181 18.1742L100.189 18.1848L101 17.6ZM102.6 56.8L101.718 56.3283L101.714 56.336L102.6 56.8ZM87.8 70L87.3809 69.092L84.9427 70.2174L87.5231 70.9609L87.8 70ZM106 82.4L105.185 82.9795L106 82.4ZM105.2 126L105.981 126.625L105.988 126.616L105.2 126ZM85.6 139.8L85.9478 140.738L85.961 140.733L85.6 139.8ZM57.4 143.4C45.271 143.4 34.3601 140.962 24.6472 136.106L23.7528 137.894C33.7732 142.905 44.9957 145.4 57.4 145.4V143.4ZM24.6521 136.108C15.0692 131.251 7.47143 124.501 1.83786 115.854L0.162137 116.946C5.99524 125.899 13.8642 132.882 23.7479 137.892L24.6521 136.108ZM1.52564 117.251L26.1256 102.051L25.0744 100.349L0.47436 115.549L1.52564 117.251ZM24.761 101.744C28.0502 106.815 32.3704 110.86 37.7087 113.871L38.6913 112.129C33.6296 109.274 29.5498 105.452 26.439 100.656L24.761 101.744ZM37.7352 113.885C43.2322 116.771 49.5293 118.2 56.6 118.2V116.2C49.804 116.2 43.8345 114.829 38.6648 112.115L37.7352 113.885ZM56.6 118.2C64.5661 118.2 70.5959 116.586 74.4644 113.147L73.1356 111.653C69.8041 114.614 64.3672 116.2 56.6 116.2V118.2ZM74.4644 113.147C78.2837 109.752 80.2 105.411 80.2 100.2H78.2C78.2 104.856 76.5163 108.648 73.1356 111.653L74.4644 113.147ZM80.2 100.2C80.2 96.6996 79.3575 93.5768 77.6455 90.866L75.9545 91.934C77.4425 94.2899 78.2 97.0337 78.2 100.2H80.2ZM77.6654 90.899C76.063 88.1312 73.4643 86.0687 69.9714 84.6715L69.2286 86.5285C72.4024 87.798 74.6037 89.6022 75.9346 91.901L77.6654 90.899ZM70.0167 84.6909C66.6416 83.144 62.352 82.4 57.2 82.4V84.4C62.1813 84.4 66.1584 85.1226 69.1833 86.5091L70.0167 84.6909ZM57.2 82.4H39V84.4H57.2V82.4ZM40 83.4V58.8H38V83.4H40ZM39 59.8H57.4V57.8H39V59.8ZM57.4 59.8C61.6204 59.8 65.1729 59.1888 68.0104 57.9119L67.1896 56.0881C64.6938 57.2112 61.4463 57.8 57.4 57.8V59.8ZM68.0472 57.8944C70.8531 56.4915 72.9541 54.6325 74.2716 52.2903L72.5284 51.3097C71.4459 53.2342 69.6802 54.8419 67.1528 56.1056L68.0472 57.8944ZM74.2619 52.307C75.6958 49.8695 76.4 47.0905 76.4 44H74.4C74.4 46.7761 73.7709 49.1972 72.5381 51.293L74.2619 52.307ZM76.4 44C76.4 40.8923 75.6202 38.1551 74.024 35.8335L72.376 36.9665C73.7132 38.9116 74.4 41.2411 74.4 44H76.4ZM74.0619 35.893C72.5963 33.4014 70.2718 31.5398 67.1786 30.2745L66.4214 32.1255C69.1949 33.2602 71.137 34.8653 72.3381 36.907L74.0619 35.893ZM67.2138 30.2896C64.1058 28.8769 60.1504 28.2 55.4 28.2V30.2C59.9829 30.2 63.6275 30.8564 66.3862 32.1104L67.2138 30.2896ZM55.4 28.2C47.8106 28.2 41.3051 29.623 35.9259 32.5195L36.8741 34.2805C41.8949 31.577 48.056 30.2 55.4 30.2V28.2ZM35.9259 32.5195C30.5924 35.3914 26.5169 39.1077 23.7448 43.6817L25.4552 44.7183C28.0164 40.4923 31.8076 37.0086 36.8741 34.2805L35.9259 32.5195ZM25.1767 43.383L1.37668 26.583L0.223317 28.217L24.0233 45.017L25.1767 43.383ZM1.6093 27.9874C7.52548 19.8362 14.8167 13.334 23.489 8.47227L22.511 6.72771C13.5833 11.7326 6.07452 18.4304 -0.00929976 26.8126L1.6093 27.9874ZM23.4933 8.46983C32.2352 3.51176 43.3187 0.999992 56.8 0.999992V-1.00001C43.0813 -1.00001 31.6315 1.5549 22.5067 6.73016L23.4933 8.46983ZM56.8 0.999992C67.2453 0.999992 76.1143 2.45502 83.4344 5.33075L84.1657 3.46925C76.5523 0.478298 67.4214 -1.00001 56.8 -1.00001V0.999992ZM83.4344 5.33075C90.7392 8.20052 96.3012 12.4836 100.174 18.1633L101.826 17.0367C97.6988 10.9831 91.7941 6.46614 84.1657 3.46925L83.4344 5.33075ZM100.189 18.1848C104.176 23.715 106.2 30.6321 106.2 39H108.2C108.2 30.3012 106.091 22.9516 101.811 17.0152L100.189 18.1848ZM106.2 39C106.2 44.9589 104.712 50.7311 101.718 56.3283L103.482 57.2716C106.621 51.4022 108.2 45.3078 108.2 39H106.2ZM101.714 56.336C98.9031 61.7025 94.1569 65.9647 87.3809 69.092L88.2191 70.908C95.3098 67.6353 100.43 63.0975 103.486 57.264L101.714 56.336ZM87.5231 70.9609C95.1983 73.1724 101.064 77.1846 105.185 82.9795L106.815 81.8205C102.402 75.6154 96.1351 71.3609 88.0769 69.0391L87.5231 70.9609ZM105.185 82.9795C109.321 88.7954 111.4 95.5888 111.4 103.4H113.4C113.4 95.2112 111.213 88.0045 106.815 81.8205L105.185 82.9795ZM111.4 103.4C111.4 112.144 109.055 119.452 104.413 125.384L105.988 126.616C110.945 120.282 113.4 112.522 113.4 103.4H111.4ZM104.419 125.375C99.7455 131.217 93.3666 135.721 85.239 138.867L85.961 140.733C94.3667 137.479 101.055 132.783 105.981 126.625L104.419 125.375ZM85.2522 138.862C77.1162 141.881 67.8371 143.4 57.4 143.4V145.4C68.0295 145.4 77.5505 143.853 85.9478 140.738L85.2522 138.862ZM166.581 138.2L166.145 139.1L166.154 139.104L166.162 139.108L166.581 138.2ZM144.381 121.8L143.632 122.463L143.639 122.47L143.646 122.478L144.381 121.8ZM130.181 98.6L129.248 98.959L129.25 98.9638L130.181 98.6ZM130.381 44.8L129.46 44.4113L129.455 44.4236L130.381 44.8ZM145.181 22L144.453 21.3146L144.453 21.3151L145.181 22ZM167.781 5.99999L167.374 5.08676L167.781 5.99999ZM224.781 6.39999L224.345 7.29998L224.354 7.30404L224.362 7.30795L224.781 6.39999ZM246.981 22.8L246.232 23.4626L246.239 23.4705L246.981 22.8ZM261.381 46.2L260.448 46.559L260.45 46.5638L261.381 46.2ZM261.181 99.4L260.255 99.0236L261.181 99.4ZM246.381 122.4L247.103 123.093L247.109 123.085L246.381 122.4ZM223.781 138.4L224.194 139.311L224.2 139.308L223.781 138.4ZM160.981 88.2L160.025 88.4941L160.028 88.5011L160.981 88.2ZM167.981 101.8L167.188 102.408L167.194 102.417L167.2 102.425L167.981 101.8ZM179.781 111.4L180.239 110.511L179.781 111.4ZM212.181 111.4L212.639 112.289L212.649 112.284L212.658 112.279L212.181 111.4ZM223.781 101.4L224.584 101.996L223.781 101.4ZM230.581 87.6L229.625 87.3059L229.623 87.3139L229.621 87.3219L230.581 87.6ZM230.581 56L229.628 56.3011L230.581 56ZM223.381 42.4L222.591 43.0122L222.595 43.0185L222.6 43.0247L223.381 42.4ZM211.581 32.8L211.144 33.6995V33.6995L211.581 32.8ZM179.381 33L178.924 32.1106L178.913 32.1162L179.381 33ZM167.781 42.8L166.991 42.1878L166.988 42.1916L167.781 42.8ZM160.781 56.6L159.825 56.3059L159.823 56.3139L159.821 56.3219L160.781 56.6ZM195.581 143.2C185.042 143.2 175.521 141.225 167 137.292L166.162 139.108C174.975 143.175 184.787 145.2 195.581 145.2V143.2ZM167.017 137.3C158.594 133.22 151.296 127.828 145.117 121.122L143.646 122.478C150 129.372 157.502 134.913 166.145 139.1L167.017 137.3ZM145.13 121.137C139.074 114.291 134.403 106.659 131.113 98.2361L129.25 98.9638C132.626 107.608 137.422 115.442 143.632 122.463L145.13 121.137ZM131.115 98.241C127.825 89.6878 126.181 80.8761 126.181 71.8H124.181C124.181 81.1239 125.871 90.1788 129.248 98.959L131.115 98.241ZM126.181 71.8C126.181 62.4587 127.891 53.5868 131.308 45.1764L129.455 44.4236C125.938 53.0798 124.181 62.208 124.181 71.8H126.181ZM131.303 45.1887C134.857 36.7634 139.726 29.264 145.91 22.6849L144.453 21.3151C138.104 28.0693 133.105 35.7699 129.46 44.4113L131.303 45.1887ZM145.909 22.6854C152.217 15.9834 159.641 10.7268 168.189 6.91322L167.374 5.08676C158.588 9.00649 150.945 14.4166 144.453 21.3146L145.909 22.6854ZM168.189 6.91322C176.717 3.10832 186.043 1.19999 196.181 1.19999V-0.800011C185.786 -0.800011 176.179 1.15833 167.374 5.08676L168.189 6.91322ZM196.181 1.19999C206.581 1.19999 215.962 3.23946 224.345 7.29998L225.217 5.50001C216.534 1.29385 206.849 -0.800011 196.181 -0.800011V1.19999ZM224.362 7.30795C232.907 11.2517 240.194 16.6363 246.232 23.4626L247.73 22.1374C241.502 15.0971 233.989 9.54823 225.2 5.49203L224.362 7.30795ZM246.239 23.4705C252.424 30.3133 257.159 38.0078 260.448 46.559L262.315 45.841C258.937 37.0589 254.072 29.1534 247.723 22.1295L246.239 23.4705ZM260.45 46.5638C263.739 54.9842 265.381 63.5944 265.381 72.4H267.381C267.381 63.339 265.69 54.4824 262.313 45.8361L260.45 46.5638ZM265.381 72.4C265.381 81.7413 263.672 90.6132 260.255 99.0236L262.108 99.7764C265.624 91.1202 267.381 81.992 267.381 72.4H265.381ZM260.255 99.0236C256.835 107.441 251.97 115.003 245.653 121.715L247.109 123.085C253.593 116.197 258.594 108.426 262.108 99.7764L260.255 99.0236ZM245.66 121.707C239.349 128.281 231.919 133.543 223.362 137.492L224.2 139.308C232.977 135.257 240.613 129.852 247.103 123.093L245.66 121.707ZM223.369 137.489C214.977 141.292 205.719 143.2 195.581 143.2V145.2C205.976 145.2 215.519 143.242 224.194 139.311L223.369 137.489ZM157.581 72.2C157.581 77.7659 158.396 83.1983 160.025 88.4941L161.937 87.9059C160.366 82.8016 159.581 77.5675 159.581 72.2H157.581ZM160.028 88.5011C161.661 93.6727 164.046 98.3112 167.188 102.408L168.775 101.192C165.783 97.2888 163.502 92.8606 161.935 87.8989L160.028 88.5011ZM167.2 102.425C170.491 106.537 174.535 109.826 179.324 112.289L180.239 110.511C175.694 108.174 171.872 105.063 168.762 101.175L167.2 102.425ZM179.324 112.289C184.151 114.772 189.645 116 195.781 116V114C189.917 114 184.745 112.828 180.239 110.511L179.324 112.289ZM195.781 116C202.176 116 207.805 114.775 212.639 112.289L211.724 110.511C207.224 112.825 201.92 114 195.781 114V116ZM212.658 112.279C217.449 109.678 221.428 106.25 224.584 101.996L222.978 100.804C220.001 104.817 216.247 108.055 211.704 110.521L212.658 112.279ZM224.584 101.996C227.724 97.7644 230.043 93.0563 231.542 87.8781L229.621 87.3219C228.186 92.277 225.972 96.7689 222.978 100.804L224.584 101.996ZM231.537 87.8941C233.166 82.6007 233.981 77.235 233.981 71.8H231.981C231.981 77.0316 231.197 82.1992 229.625 87.3059L231.537 87.8941ZM233.981 71.8C233.981 66.2342 233.166 60.8657 231.535 55.6989L229.628 56.3011C231.196 61.2676 231.981 66.4325 231.981 71.8H233.981ZM231.535 55.6989C229.899 50.5191 227.442 45.8752 224.162 41.7753L222.6 43.0247C225.721 46.9248 228.063 51.3476 229.628 56.3011L231.535 55.6989ZM224.172 41.7878C220.878 37.5337 216.824 34.2349 212.018 31.9005L211.144 33.6995C215.671 35.8984 219.484 38.9996 222.591 43.0122L224.172 41.7878ZM212.018 31.9005C207.199 29.5595 201.779 28.4 195.781 28.4V30.4C201.516 30.4 206.631 31.5072 211.144 33.6995L212.018 31.9005ZM195.781 28.4C189.386 28.4 183.757 29.6251 178.924 32.1107L179.839 33.8893C184.339 31.5749 189.643 30.4 195.781 30.4V28.4ZM178.913 32.1162C174.252 34.5841 170.276 37.9442 166.991 42.1878L168.572 43.4122C171.687 39.3891 175.444 36.2159 179.849 33.8838L178.913 32.1162ZM166.988 42.1916C163.843 46.2931 161.458 51.0014 159.825 56.3059L161.737 56.8941C163.305 51.7986 165.586 47.3069 168.575 43.4084L166.988 42.1916ZM159.821 56.3219C158.328 61.48 157.581 66.7736 157.581 72.2H159.581C159.581 66.9597 160.302 61.8533 161.742 56.8781L159.821 56.3219ZM318.534 138.2L318.098 139.1L318.107 139.104L318.115 139.108L318.534 138.2ZM296.334 121.8L295.585 122.463L295.592 122.47L295.599 122.478L296.334 121.8ZM282.134 98.6L281.201 98.959L281.203 98.9638L282.134 98.6ZM282.334 44.8L281.413 44.4113L281.408 44.4236L282.334 44.8ZM297.134 22L296.406 21.3146L296.406 21.3151L297.134 22ZM319.734 5.99999L319.327 5.08676L319.734 5.99999ZM376.734 6.39999L376.298 7.29998L376.307 7.30404L376.315 7.30795L376.734 6.39999ZM398.934 22.8L398.185 23.4626L398.193 23.4705L398.934 22.8ZM413.334 46.2L412.401 46.559L412.403 46.5638L413.334 46.2ZM413.134 99.4L412.208 99.0236L413.134 99.4ZM398.334 122.4L399.056 123.093L399.063 123.085L398.334 122.4ZM375.734 138.4L376.147 139.311L376.153 139.308L375.734 138.4ZM312.934 88.2L311.979 88.4941L311.981 88.5011L312.934 88.2ZM319.934 101.8L319.141 102.408L319.147 102.417L319.154 102.425L319.934 101.8ZM331.734 111.4L332.192 110.511L331.734 111.4ZM364.134 111.4L364.592 112.289L364.602 112.284L364.611 112.279L364.134 111.4ZM375.734 101.4L376.537 101.996L375.734 101.4ZM382.534 87.6L381.579 87.3059L381.576 87.3139L381.574 87.3219L382.534 87.6ZM382.534 56L381.581 56.3011L382.534 56ZM375.334 42.4L374.544 43.0122L374.549 43.0185L374.553 43.0247L375.334 42.4ZM363.534 32.8L363.097 33.6995V33.6995L363.534 32.8ZM331.334 33L330.877 32.1106L330.866 32.1162L331.334 33ZM319.734 42.8L318.944 42.1878L318.941 42.1916L319.734 42.8ZM312.734 56.6L311.779 56.3059L311.776 56.3139L311.774 56.3219L312.734 56.6ZM347.534 143.2C336.995 143.2 327.474 141.225 318.953 137.292L318.115 139.108C326.928 143.175 336.74 145.2 347.534 145.2V143.2ZM318.97 137.3C310.547 133.22 303.249 127.828 297.07 121.122L295.599 122.478C301.953 129.372 309.455 134.913 318.098 139.1L318.97 137.3ZM297.083 121.137C291.027 114.291 286.356 106.659 283.066 98.2361L281.203 98.9638C284.579 107.608 289.375 115.442 295.585 122.463L297.083 121.137ZM283.068 98.241C279.778 89.6878 278.134 80.8761 278.134 71.8H276.134C276.134 81.1239 277.824 90.1788 281.201 98.959L283.068 98.241ZM278.134 71.8C278.134 62.4587 279.844 53.5868 283.261 45.1764L281.408 44.4236C277.891 53.0798 276.134 62.208 276.134 71.8H278.134ZM283.256 45.1887C286.81 36.7634 291.679 29.264 297.863 22.6849L296.406 21.3151C290.057 28.0693 285.059 35.7699 281.413 44.4113L283.256 45.1887ZM297.863 22.6854C304.17 15.9834 311.594 10.7268 320.142 6.91322L319.327 5.08676C310.541 9.00649 302.898 14.4166 296.406 21.3146L297.863 22.6854ZM320.142 6.91322C328.67 3.10832 337.996 1.19999 348.134 1.19999V-0.800011C337.739 -0.800011 328.132 1.15833 319.327 5.08676L320.142 6.91322ZM348.134 1.19999C358.534 1.19999 367.915 3.23946 376.298 7.29998L377.17 5.50001C368.487 1.29385 358.802 -0.800011 348.134 -0.800011V1.19999ZM376.315 7.30795C384.86 11.2517 392.147 16.6363 398.185 23.4626L399.683 22.1374C393.455 15.0971 385.942 9.54823 377.153 5.49203L376.315 7.30795ZM398.193 23.4705C404.377 30.3133 409.112 38.0078 412.401 46.559L414.268 45.841C410.89 37.0589 406.025 29.1534 399.676 22.1295L398.193 23.4705ZM412.403 46.5638C415.692 54.9842 417.334 63.5944 417.334 72.4H419.334C419.334 63.339 417.643 54.4824 414.266 45.8361L412.403 46.5638ZM417.334 72.4C417.334 81.7413 415.625 90.6132 412.208 99.0236L414.061 99.7764C417.577 91.1202 419.334 81.992 419.334 72.4H417.334ZM412.208 99.0236C408.788 107.441 403.923 115.003 397.606 121.715L399.063 123.085C405.546 116.197 410.547 108.426 414.061 99.7764L412.208 99.0236ZM397.613 121.707C391.302 128.281 383.872 133.543 375.315 137.492L376.153 139.308C384.93 135.257 392.566 129.852 399.056 123.093L397.613 121.707ZM375.322 137.489C366.93 141.292 357.672 143.2 347.534 143.2V145.2C357.93 145.2 367.472 143.242 376.147 139.311L375.322 137.489ZM309.534 72.2C309.534 77.7659 310.349 83.1983 311.979 88.4941L313.89 87.9059C312.32 82.8016 311.534 77.5675 311.534 72.2H309.534ZM311.981 88.5011C313.614 93.6727 316 98.3112 319.141 102.408L320.728 101.192C317.736 97.2888 315.455 92.8606 313.888 87.8989L311.981 88.5011ZM319.154 102.425C322.444 106.537 326.488 109.826 331.277 112.289L332.192 110.511C327.647 108.174 323.825 105.063 320.715 101.175L319.154 102.425ZM331.277 112.289C336.104 114.772 341.598 116 347.734 116V114C341.871 114 336.698 112.828 332.192 110.511L331.277 112.289ZM347.734 116C354.129 116 359.759 114.775 364.592 112.289L363.677 110.511C359.177 112.825 353.873 114 347.734 114V116ZM364.611 112.279C369.402 109.678 373.381 106.25 376.537 101.996L374.931 100.804C371.954 104.817 368.2 108.055 363.657 110.521L364.611 112.279ZM376.537 101.996C379.677 97.7644 381.996 93.0563 383.495 87.8781L381.574 87.3219C380.139 92.277 377.925 96.7689 374.931 100.804L376.537 101.996ZM383.49 87.8941C385.119 82.6007 385.934 77.235 385.934 71.8H383.934C383.934 77.0316 383.15 82.1992 381.579 87.3059L383.49 87.8941ZM385.934 71.8C385.934 66.2342 385.12 60.8657 383.488 55.6989L381.581 56.3011C383.149 61.2676 383.934 66.4325 383.934 71.8H385.934ZM383.488 55.6989C381.852 50.5191 379.395 45.8752 376.115 41.7753L374.553 43.0247C377.674 46.9248 380.017 51.3476 381.581 56.3011L383.488 55.6989ZM376.125 41.7878C372.832 37.5337 368.778 34.2349 363.971 31.9005L363.097 33.6995C367.625 35.8984 371.437 38.9996 374.544 43.0122L376.125 41.7878ZM363.971 31.9005C359.152 29.5595 353.733 28.4 347.734 28.4V30.4C353.47 30.4 358.584 31.5072 363.097 33.6995L363.971 31.9005ZM347.734 28.4C341.339 28.4 335.71 29.6251 330.877 32.1107L331.792 33.8893C336.292 31.5749 341.596 30.4 347.734 30.4V28.4ZM330.866 32.1162C326.205 34.5841 322.229 37.9442 318.944 42.1878L320.525 43.4122C323.64 39.3891 327.397 36.2159 331.802 33.8838L330.866 32.1162ZM318.941 42.1916C315.796 46.2931 313.411 51.0014 311.779 56.3059L313.69 56.8941C315.258 51.7986 317.539 47.3069 320.528 43.4084L318.941 42.1916ZM311.774 56.3219C310.281 61.48 309.534 66.7736 309.534 72.2H311.534C311.534 66.9597 312.255 61.8533 313.695 56.8781L311.774 56.3219ZM437.888 143H436.888V144H437.888V143ZM437.888 0.999992V-7.62939e-06H436.888V0.999992H437.888ZM556.088 0.999992H557.088V-7.62939e-06H556.088V0.999992ZM556.088 143V144H557.088V143H556.088ZM523.287 143H522.287V144H523.287V143ZM523.287 29.8H524.287V28.8H523.287V29.8ZM470.688 29.8V28.8H469.688V29.8H470.688ZM470.688 143V144H471.688V143H470.688ZM438.888 143V0.999992H436.888V143H438.888ZM437.888 1.99999H556.088V-7.62939e-06H437.888V1.99999ZM555.088 0.999992V143H557.088V0.999992H555.088ZM556.088 142H523.287V144H556.088V142ZM524.287 143V29.8H522.287V143H524.287ZM523.287 28.8H470.688V30.8H523.287V28.8ZM469.688 29.8V143H471.688V29.8H469.688ZM470.688 142H437.888V144H470.688V142ZM619.767 0.999992V-7.62939e-06H619.054L618.822 0.673798L619.767 0.999992ZM655.167 0.999992L656.113 0.674988L655.881 -7.62939e-06H655.167V0.999992ZM703.967 143V144H705.368L704.913 142.675L703.967 143ZM670.367 143L669.422 143.327L669.655 144H670.367V143ZM659.367 111.2L660.312 110.873L660.079 110.2H659.367V111.2ZM615.167 111.2V110.2H614.451L614.22 110.878L615.167 111.2ZM604.367 143V144H605.084L605.314 143.322L604.367 143ZM570.767 143L569.822 142.674L569.364 144H570.767V143ZM653.967 88.6V89.6H655.316L654.924 88.3091L653.967 88.6ZM637.367 34L638.324 33.7091L637.379 30.5996L636.412 33.7027L637.367 34ZM620.367 88.6L619.412 88.3027L619.008 89.6H620.367V88.6ZM619.767 1.99999H655.167V-7.62939e-06H619.767V1.99999ZM654.221 1.325L703.021 143.325L704.913 142.675L656.113 0.674988L654.221 1.325ZM703.967 142H670.367V144H703.967V142ZM671.312 142.673L660.312 110.873L658.422 111.527L669.422 143.327L671.312 142.673ZM659.367 110.2H615.167V112.2H659.367V110.2ZM614.22 110.878L603.42 142.678L605.314 143.322L616.114 111.522L614.22 110.878ZM604.367 142H570.767V144H604.367V142ZM571.712 143.326L620.712 1.32619L618.822 0.673798L569.822 142.674L571.712 143.326ZM654.924 88.3091L638.324 33.7091L636.41 34.2909L653.01 88.8909L654.924 88.3091ZM636.412 33.7027L619.412 88.3027L621.322 88.8973L638.322 34.2973L636.412 33.7027ZM620.367 89.6H653.967V87.6H620.367V89.6ZM717.952 143H716.952V144H717.952V143ZM717.952 0.999992V-7.62939e-06H716.952V0.999992H717.952ZM797.152 5.2L796.704 6.09443L796.717 6.10075L796.73 6.10672L797.152 5.2ZM811.952 16.2L811.203 16.863L811.208 16.8684L811.213 16.8738L811.952 16.2ZM821.552 31.6L822.482 31.2323V31.2323L821.552 31.6ZM819.152 72.4L818.267 71.9336L818.264 71.9399L818.26 71.9463L819.152 72.4ZM803.352 90.4L803.914 91.2269L803.917 91.2245L803.352 90.4ZM750.752 97.2V96.2H749.752V97.2H750.752ZM750.752 143V144H751.752V143H750.752ZM750.752 68.6H749.752V69.6H750.752V68.6ZM789.752 59.8L790.662 60.2138L789.752 59.8ZM789.352 38.2L788.457 38.6472L788.47 38.672L788.483 38.6961L789.352 38.2ZM783.552 31.8L783.045 32.6619L783.055 32.6682L783.066 32.6741L783.552 31.8ZM750.752 29.8V28.8H749.752V29.8H750.752ZM718.952 143V0.999992H716.952V143H718.952ZM717.952 1.99999H778.552V-7.62939e-06H717.952V1.99999ZM778.552 1.99999C785.21 1.99999 791.255 3.36969 796.704 6.09443L797.599 4.30557C791.848 1.43029 785.493 -7.62939e-06 778.552 -7.62939e-06V1.99999ZM796.73 6.10672C802.34 8.71631 807.162 12.3007 811.203 16.863L812.7 15.537C808.474 10.766 803.429 7.01701 797.573 4.29328L796.73 6.10672ZM811.213 16.8738C815.264 21.317 818.399 26.3465 820.622 31.9677L822.482 31.2323C820.171 25.3868 816.906 20.1496 812.691 15.5262L811.213 16.8738ZM820.622 31.9677C822.843 37.5872 823.952 43.3294 823.952 49.2H825.952C825.952 43.0706 824.793 37.0794 822.482 31.2323L820.622 31.9677ZM823.952 49.2C823.952 57.1676 822.059 64.7411 818.267 71.9336L820.036 72.8664C823.977 65.3922 825.952 57.4991 825.952 49.2H823.952ZM818.26 71.9463C814.603 79.1305 809.448 85.0031 802.786 89.5755L803.917 91.2245C810.855 86.4636 816.233 80.3362 820.043 72.8537L818.26 71.9463ZM802.789 89.5731C796.311 93.9782 788.58 96.2 779.552 96.2V98.2C788.923 98.2 797.059 95.8884 803.914 91.2269L802.789 89.5731ZM779.552 96.2H750.752V98.2H779.552V96.2ZM749.752 97.2V143H751.752V97.2H749.752ZM750.752 142H717.952V144H750.752V142ZM750.752 69.6H777.552V67.6H750.752V69.6ZM777.552 69.6C780.292 69.6 782.822 68.8026 785.118 67.224L783.985 65.576C782.015 66.9307 779.878 67.6 777.552 67.6V69.6ZM785.118 67.224C787.434 65.632 789.272 63.2724 790.662 60.2138L788.841 59.3862C787.565 62.1943 785.936 64.2347 783.985 65.576L785.118 67.224ZM790.662 60.2138C792.07 57.1156 792.752 53.3653 792.752 49H790.752C790.752 53.168 790.1 56.6177 788.841 59.3862L790.662 60.2138ZM792.752 49C792.752 44.4867 791.932 40.7002 790.22 37.7039L788.483 38.6961C789.971 41.2998 790.752 44.7133 790.752 49H792.752ZM790.246 37.7528C788.707 34.6749 786.645 32.3748 784.037 30.9258L783.066 32.6741C785.258 33.8919 787.063 35.8584 788.457 38.6472L790.246 37.7528ZM784.059 30.9381C781.644 29.5179 779.07 28.8 776.352 28.8V30.8C778.7 30.8 780.925 31.4154 783.045 32.6619L784.059 30.9381ZM776.352 28.8H750.752V30.8H776.352V28.8ZM749.752 29.8V68.6H751.752V29.8H749.752ZM843.161 143H842.161V144H843.161V143ZM843.161 0.999992V-7.62939e-06H842.161V0.999992H843.161ZM875.761 0.999992H876.761V-7.62939e-06H875.761V0.999992ZM875.761 56H874.761V57H875.761V56ZM886.961 56V57H887.473L887.772 56.5843L886.961 56ZM926.561 0.999992V-7.62939e-06H926.049L925.749 0.415688L926.561 0.999992ZM962.961 0.999992L963.765 1.59511L964.946 -7.62939e-06H962.961V0.999992ZM912.161 69.6L911.357 69.0049L910.913 69.6046L911.362 70.201L912.161 69.6ZM967.361 143V144H969.364L968.16 142.399L967.361 143ZM927.561 143L926.752 143.588L927.052 144H927.561V143ZM885.961 85.8L886.77 85.2118L886.47 84.8H885.961V85.8ZM875.761 85.8V84.8H874.761V85.8H875.761ZM875.761 143V144H876.761V143H875.761ZM844.161 143V0.999992H842.161V143H844.161ZM843.161 1.99999H875.761V-7.62939e-06H843.161V1.99999ZM874.761 0.999992V56H876.761V0.999992H874.761ZM875.761 57H886.961V55H875.761V57ZM887.772 56.5843L927.372 1.5843L925.749 0.415688L886.149 55.4157L887.772 56.5843ZM926.561 1.99999H962.961V-7.62939e-06H926.561V1.99999ZM962.157 0.404877L911.357 69.0049L912.965 70.1951L963.765 1.59511L962.157 0.404877ZM911.362 70.201L966.562 143.601L968.16 142.399L912.96 68.999L911.362 70.201ZM967.361 142H927.561V144H967.361V142ZM928.37 142.412L886.77 85.2118L885.152 86.3882L926.752 143.588L928.37 142.412ZM885.961 84.8H875.761V86.8H885.961V84.8ZM874.761 85.8V143H876.761V85.8H874.761ZM875.761 142H843.161V144H875.761V142ZM1045.29 137L1044.84 137.892L1044.85 137.894L1045.29 137ZM1022.09 116.4L1021.57 115.549L1020.7 116.088L1021.26 116.946L1022.09 116.4ZM1046.69 101.2L1047.53 100.656L1047 99.8351L1046.17 100.349L1046.69 101.2ZM1059.29 113L1058.8 113.871L1058.82 113.878L1058.83 113.885L1059.29 113ZM1094.89 112.4L1094.23 111.653L1094.89 112.4ZM1097.89 91.4L1097.03 91.901L1097.04 91.9177L1097.05 91.934L1097.89 91.4ZM1090.69 85.6L1090.28 86.5091L1090.3 86.5193L1090.32 86.5285L1090.69 85.6ZM1060.09 83.4H1059.09V84.4H1060.09V83.4ZM1060.09 58.8V57.8H1059.09V58.8H1060.09ZM1088.69 57L1089.1 57.9119L1089.12 57.9035L1089.14 57.8944L1088.69 57ZM1094.49 51.8L1093.63 51.293L1093.63 51.3013L1093.62 51.3097L1094.49 51.8ZM1094.29 36.4L1093.43 36.907L1093.45 36.9374L1093.47 36.9665L1094.29 36.4ZM1087.89 31.2L1087.48 32.1104L1087.5 32.1183L1087.52 32.1255L1087.89 31.2ZM1057.49 33.4L1057.02 32.5195V32.5195L1057.49 33.4ZM1045.69 44.2L1045.12 45.017L1045.99 45.6354L1046.55 44.7183L1045.69 44.2ZM1021.89 27.4L1021.08 26.8126L1020.49 27.6326L1021.32 28.217L1021.89 27.4ZM1044.09 7.59999L1044.58 8.47228L1044.59 8.46983L1044.09 7.59999ZM1104.89 4.4L1105.26 3.46925L1104.89 4.4ZM1122.09 17.6L1121.27 18.1633L1121.27 18.1742L1121.28 18.1848L1122.09 17.6ZM1123.69 56.8L1122.81 56.3283L1122.81 56.336L1123.69 56.8ZM1108.89 70L1108.47 69.092L1106.04 70.2174L1108.62 70.9609L1108.89 70ZM1127.09 82.4L1126.28 82.9795L1127.09 82.4ZM1126.29 126L1127.07 126.625L1127.08 126.616L1126.29 126ZM1106.69 139.8L1107.04 140.738L1107.05 140.733L1106.69 139.8ZM1078.49 143.4C1066.36 143.4 1055.45 140.962 1045.74 136.106L1044.85 137.894C1054.87 142.905 1066.09 145.4 1078.49 145.4V143.4ZM1045.75 136.108C1036.16 131.251 1028.57 124.501 1022.93 115.854L1021.26 116.946C1027.09 125.899 1034.96 132.882 1044.84 137.892L1045.75 136.108ZM1022.62 117.251L1047.22 102.051L1046.17 100.349L1021.57 115.549L1022.62 117.251ZM1045.85 101.744C1049.14 106.815 1053.46 110.86 1058.8 113.871L1059.79 112.129C1054.72 109.274 1050.64 105.452 1047.53 100.656L1045.85 101.744ZM1058.83 113.885C1064.33 116.771 1070.62 118.2 1077.69 118.2V116.2C1070.9 116.2 1064.93 114.829 1059.76 112.115L1058.83 113.885ZM1077.69 118.2C1085.66 118.2 1091.69 116.586 1095.56 113.147L1094.23 111.653C1090.9 114.614 1085.46 116.2 1077.69 116.2V118.2ZM1095.56 113.147C1099.38 109.752 1101.29 105.411 1101.29 100.2H1099.29C1099.29 104.856 1097.61 108.648 1094.23 111.653L1095.56 113.147ZM1101.29 100.2C1101.29 96.6996 1100.45 93.5768 1098.74 90.866L1097.05 91.934C1098.54 94.2899 1099.29 97.0337 1099.29 100.2H1101.29ZM1098.76 90.899C1097.16 88.1312 1094.56 86.0687 1091.07 84.6715L1090.32 86.5285C1093.5 87.798 1095.7 89.6022 1097.03 91.901L1098.76 90.899ZM1091.11 84.6909C1087.74 83.144 1083.45 82.4 1078.29 82.4V84.4C1083.28 84.4 1087.25 85.1226 1090.28 86.5091L1091.11 84.6909ZM1078.29 82.4H1060.09V84.4H1078.29V82.4ZM1061.09 83.4V58.8H1059.09V83.4H1061.09ZM1060.09 59.8H1078.49V57.8H1060.09V59.8ZM1078.49 59.8C1082.71 59.8 1086.27 59.1888 1089.1 57.9119L1088.28 56.0881C1085.79 57.2112 1082.54 57.8 1078.49 57.8V59.8ZM1089.14 57.8944C1091.95 56.4915 1094.05 54.6325 1095.37 52.2903L1093.62 51.3097C1092.54 53.2342 1090.77 54.8419 1088.25 56.1056L1089.14 57.8944ZM1095.36 52.307C1096.79 49.8695 1097.49 47.0905 1097.49 44H1095.49C1095.49 46.7761 1094.86 49.1972 1093.63 51.293L1095.36 52.307ZM1097.49 44C1097.49 40.8923 1096.71 38.1551 1095.12 35.8335L1093.47 36.9665C1094.81 38.9116 1095.49 41.2411 1095.49 44H1097.49ZM1095.16 35.893C1093.69 33.4014 1091.37 31.5398 1088.27 30.2745L1087.52 32.1255C1090.29 33.2602 1092.23 34.8653 1093.43 36.907L1095.16 35.893ZM1088.31 30.2896C1085.2 28.8769 1081.24 28.2 1076.49 28.2V30.2C1081.08 30.2 1084.72 30.8564 1087.48 32.1104L1088.31 30.2896ZM1076.49 28.2C1068.9 28.2 1062.4 29.623 1057.02 32.5195L1057.97 34.2805C1062.99 31.577 1069.15 30.2 1076.49 30.2V28.2ZM1057.02 32.5195C1051.69 35.3914 1047.61 39.1077 1044.84 43.6817L1046.55 44.7183C1049.11 40.4923 1052.9 37.0086 1057.97 34.2805L1057.02 32.5195ZM1046.27 43.383L1022.47 26.583L1021.32 28.217L1045.12 45.017L1046.27 43.383ZM1022.7 27.9874C1028.62 19.8362 1035.91 13.334 1044.58 8.47227L1043.6 6.72771C1034.68 11.7326 1027.17 18.4304 1021.08 26.8126L1022.7 27.9874ZM1044.59 8.46983C1053.33 3.51176 1064.41 0.999992 1077.89 0.999992V-1.00001C1064.18 -1.00001 1052.73 1.5549 1043.6 6.73016L1044.59 8.46983ZM1077.89 0.999992C1088.34 0.999992 1097.21 2.45502 1104.53 5.33075L1105.26 3.46925C1097.65 0.478298 1088.52 -1.00001 1077.89 -1.00001V0.999992ZM1104.53 5.33075C1111.83 8.20052 1117.4 12.4836 1121.27 18.1633L1122.92 17.0367C1118.79 10.9831 1112.89 6.46614 1105.26 3.46925L1104.53 5.33075ZM1121.28 18.1848C1125.27 23.715 1127.29 30.6321 1127.29 39H1129.29C1129.29 30.3012 1127.18 22.9516 1122.9 17.0152L1121.28 18.1848ZM1127.29 39C1127.29 44.9589 1125.81 50.7311 1122.81 56.3283L1124.58 57.2716C1127.71 51.4022 1129.29 45.3078 1129.29 39H1127.29ZM1122.81 56.336C1120 61.7025 1115.25 65.9647 1108.47 69.092L1109.31 70.908C1116.4 67.6353 1121.52 63.0975 1124.58 57.264L1122.81 56.336ZM1108.62 70.9609C1116.29 73.1724 1122.16 77.1846 1126.28 82.9795L1127.91 81.8205C1123.5 75.6154 1117.23 71.3609 1109.17 69.0391L1108.62 70.9609ZM1126.28 82.9795C1130.41 88.7954 1132.49 95.5888 1132.49 103.4H1134.49C1134.49 95.2112 1132.31 88.0045 1127.91 81.8205L1126.28 82.9795ZM1132.49 103.4C1132.49 112.144 1130.15 119.452 1125.51 125.384L1127.08 126.616C1132.04 120.282 1134.49 112.522 1134.49 103.4H1132.49ZM1125.51 125.375C1120.84 131.217 1114.46 135.721 1106.33 138.867L1107.05 140.733C1115.46 137.479 1122.15 132.783 1127.07 126.625L1125.51 125.375ZM1106.35 138.862C1098.21 141.881 1088.93 143.4 1078.49 143.4V145.4C1089.12 145.4 1098.64 143.853 1107.04 140.738L1106.35 138.862ZM1187.68 138.2L1187.24 139.1L1187.25 139.104L1187.26 139.108L1187.68 138.2ZM1165.47 121.8L1164.73 122.463L1164.73 122.47L1164.74 122.478L1165.47 121.8ZM1151.28 98.6L1150.34 98.959L1150.34 98.9638L1151.28 98.6ZM1151.47 44.8L1150.55 44.4113L1150.55 44.4236L1151.47 44.8ZM1166.28 22L1165.55 21.3146L1165.55 21.3151L1166.28 22ZM1188.88 5.99999L1188.47 5.08676L1188.88 5.99999ZM1245.88 6.39999L1245.44 7.29998L1245.45 7.30404L1245.46 7.30795L1245.88 6.39999ZM1268.07 22.8L1267.33 23.4626L1267.33 23.4705L1268.07 22.8ZM1282.47 46.2L1281.54 46.559L1281.54 46.5638L1282.47 46.2ZM1282.28 99.4L1281.35 99.0236L1282.28 99.4ZM1267.47 122.4L1268.2 123.093L1268.2 123.085L1267.47 122.4ZM1244.88 138.4L1245.29 139.311L1245.29 139.308L1244.88 138.4ZM1182.07 88.2L1181.12 88.4941L1181.12 88.5011L1182.07 88.2ZM1189.07 101.8L1188.28 102.408L1188.29 102.417L1188.29 102.425L1189.07 101.8ZM1200.88 111.4L1201.33 110.511L1200.88 111.4ZM1233.28 111.4L1233.73 112.289L1233.74 112.284L1233.75 112.279L1233.28 111.4ZM1244.88 101.4L1245.68 101.996L1244.88 101.4ZM1251.68 87.6L1250.72 87.3059L1250.72 87.3139L1250.71 87.3219L1251.68 87.6ZM1251.68 56L1250.72 56.3011L1251.68 56ZM1244.47 42.4L1243.68 43.0122L1243.69 43.0185L1243.69 43.0247L1244.47 42.4ZM1232.68 32.8L1232.24 33.6995V33.6995L1232.68 32.8ZM1200.47 33L1200.02 32.1106L1200.01 32.1162L1200.47 33ZM1188.88 42.8L1188.08 42.1878L1188.08 42.1916L1188.88 42.8ZM1181.88 56.6L1180.92 56.3059L1180.92 56.3139L1180.91 56.3219L1181.88 56.6ZM1216.68 143.2C1206.14 143.2 1196.61 141.225 1188.09 137.292L1187.26 139.108C1196.07 143.175 1205.88 145.2 1216.68 145.2V143.2ZM1188.11 137.3C1179.69 133.22 1172.39 127.828 1166.21 121.122L1164.74 122.478C1171.09 129.372 1178.6 134.913 1187.24 139.1L1188.11 137.3ZM1166.22 121.137C1160.17 114.291 1155.5 106.659 1152.21 98.2361L1150.34 98.9638C1153.72 107.608 1158.52 115.442 1164.73 122.463L1166.22 121.137ZM1152.21 98.241C1148.92 89.6878 1147.28 80.8761 1147.28 71.8H1145.28C1145.28 81.1239 1146.96 90.1788 1150.34 98.959L1152.21 98.241ZM1147.28 71.8C1147.28 62.4587 1148.98 53.5868 1152.4 45.1764L1150.55 44.4236C1147.03 53.0798 1145.28 62.208 1145.28 71.8H1147.28ZM1152.4 45.1887C1155.95 36.7634 1160.82 29.264 1167 22.6849L1165.55 21.3151C1159.2 28.0693 1154.2 35.7699 1150.55 44.4113L1152.4 45.1887ZM1167 22.6854C1173.31 15.9834 1180.73 10.7268 1189.28 6.91322L1188.47 5.08676C1179.68 9.00649 1172.04 14.4166 1165.55 21.3146L1167 22.6854ZM1189.28 6.91322C1197.81 3.10832 1207.14 1.19999 1217.28 1.19999V-0.800011C1206.88 -0.800011 1197.27 1.15833 1188.47 5.08676L1189.28 6.91322ZM1217.28 1.19999C1227.67 1.19999 1237.06 3.23946 1245.44 7.29998L1246.31 5.50001C1237.63 1.29385 1227.94 -0.800011 1217.28 -0.800011V1.19999ZM1245.46 7.30795C1254 11.2517 1261.29 16.6363 1267.33 23.4626L1268.82 22.1374C1262.6 15.0971 1255.08 9.54823 1246.29 5.49203L1245.46 7.30795ZM1267.33 23.4705C1273.52 30.3133 1278.25 38.0078 1281.54 46.559L1283.41 45.841C1280.03 37.0589 1275.17 29.1534 1268.82 22.1295L1267.33 23.4705ZM1281.54 46.5638C1284.83 54.9842 1286.47 63.5944 1286.47 72.4H1288.47C1288.47 63.339 1286.78 54.4824 1283.41 45.8361L1281.54 46.5638ZM1286.47 72.4C1286.47 81.7413 1284.77 90.6132 1281.35 99.0236L1283.2 99.7764C1286.72 91.1202 1288.47 81.992 1288.47 72.4H1286.47ZM1281.35 99.0236C1277.93 107.441 1273.06 115.003 1266.75 121.715L1268.2 123.085C1274.69 116.197 1279.69 108.426 1283.2 99.7764L1281.35 99.0236ZM1266.75 121.707C1260.44 128.281 1253.01 133.543 1244.46 137.492L1245.29 139.308C1254.07 135.257 1261.71 129.852 1268.2 123.093L1266.75 121.707ZM1244.46 137.489C1236.07 141.292 1226.81 143.2 1216.68 143.2V145.2C1227.07 145.2 1236.61 143.242 1245.29 139.311L1244.46 137.489ZM1178.68 72.2C1178.68 77.7659 1179.49 83.1983 1181.12 88.4941L1183.03 87.9059C1181.46 82.8016 1180.68 77.5675 1180.68 72.2H1178.68ZM1181.12 88.5011C1182.75 93.6727 1185.14 98.3112 1188.28 102.408L1189.87 101.192C1186.88 97.2888 1184.6 92.8606 1183.03 87.8989L1181.12 88.5011ZM1188.29 102.425C1191.58 106.537 1195.63 109.826 1200.42 112.289L1201.33 110.511C1196.79 108.174 1192.97 105.063 1189.86 101.175L1188.29 102.425ZM1200.42 112.289C1205.24 114.772 1210.74 116 1216.88 116V114C1211.01 114 1205.84 112.828 1201.33 110.511L1200.42 112.289ZM1216.88 116C1223.27 116 1228.9 114.775 1233.73 112.289L1232.82 110.511C1228.32 112.825 1223.01 114 1216.88 114V116ZM1233.75 112.279C1238.54 109.678 1242.52 106.25 1245.68 101.996L1244.07 100.804C1241.09 104.817 1237.34 108.055 1232.8 110.521L1233.75 112.279ZM1245.68 101.996C1248.82 97.7644 1251.14 93.0563 1252.64 87.8781L1250.71 87.3219C1249.28 92.277 1247.07 96.7689 1244.07 100.804L1245.68 101.996ZM1252.63 87.8941C1254.26 82.6007 1255.07 77.235 1255.07 71.8H1253.07C1253.07 77.0316 1252.29 82.1992 1250.72 87.3059L1252.63 87.8941ZM1255.07 71.8C1255.07 66.2342 1254.26 60.8657 1252.63 55.6989L1250.72 56.3011C1252.29 61.2676 1253.07 66.4325 1253.07 71.8H1255.07ZM1252.63 55.6989C1250.99 50.5191 1248.54 45.8752 1245.26 41.7753L1243.69 43.0247C1246.81 46.9248 1249.16 51.3476 1250.72 56.3011L1252.63 55.6989ZM1245.27 41.7878C1241.97 37.5337 1237.92 34.2349 1233.11 31.9005L1232.24 33.6995C1236.77 35.8984 1240.58 38.9996 1243.68 43.0122L1245.27 41.7878ZM1233.11 31.9005C1228.29 29.5595 1222.87 28.4 1216.88 28.4V30.4C1222.61 30.4 1227.72 31.5072 1232.24 33.6995L1233.11 31.9005ZM1216.88 28.4C1210.48 28.4 1204.85 29.6251 1200.02 32.1107L1200.93 33.8893C1205.43 31.5749 1210.74 30.4 1216.88 30.4V28.4ZM1200.01 32.1162C1195.35 34.5841 1191.37 37.9442 1188.08 42.1878L1189.67 43.4122C1192.78 39.3891 1196.54 36.2159 1200.94 33.8838L1200.01 32.1162ZM1188.08 42.1916C1184.94 46.2931 1182.55 51.0014 1180.92 56.3059L1182.83 56.8941C1184.4 51.7986 1186.68 47.3069 1189.67 43.4084L1188.08 42.1916ZM1180.91 56.3219C1179.42 61.48 1178.68 66.7736 1178.68 72.2H1180.68C1180.68 66.9597 1181.4 61.8533 1182.84 56.8781L1180.91 56.3219ZM1339.63 138.2L1339.19 139.1L1339.2 139.104L1339.21 139.108L1339.63 138.2ZM1317.43 121.8L1316.68 122.463L1316.69 122.47L1316.69 122.478L1317.43 121.8ZM1303.23 98.6L1302.29 98.959L1302.3 98.9638L1303.23 98.6ZM1303.43 44.8L1302.51 44.4113L1302.5 44.4236L1303.43 44.8ZM1318.23 22L1317.5 21.3146L1317.5 21.3151L1318.23 22ZM1340.83 5.99999L1340.42 5.08676L1340.83 5.99999ZM1397.83 6.39999L1397.39 7.29998L1397.4 7.30404L1397.41 7.30795L1397.83 6.39999ZM1420.03 22.8L1419.28 23.4626L1419.29 23.4705L1420.03 22.8ZM1434.43 46.2L1433.49 46.559L1433.5 46.5638L1434.43 46.2ZM1434.23 99.4L1433.3 99.0236L1434.23 99.4ZM1419.43 122.4L1420.15 123.093L1420.16 123.085L1419.43 122.4ZM1396.83 138.4L1397.24 139.311L1397.25 139.308L1396.83 138.4ZM1334.03 88.2L1333.07 88.4941L1333.07 88.5011L1334.03 88.2ZM1341.03 101.8L1340.23 102.408L1340.24 102.417L1340.25 102.425L1341.03 101.8ZM1352.83 111.4L1353.29 110.511L1352.83 111.4ZM1385.23 111.4L1385.69 112.289L1385.7 112.284L1385.71 112.279L1385.23 111.4ZM1396.83 101.4L1397.63 101.996L1396.83 101.4ZM1403.63 87.6L1402.67 87.3059L1402.67 87.3139L1402.67 87.3219L1403.63 87.6ZM1403.63 56L1402.67 56.3011L1403.63 56ZM1396.43 42.4L1395.64 43.0122L1395.64 43.0185L1395.65 43.0247L1396.43 42.4ZM1384.63 32.8L1384.19 33.6995V33.6995L1384.63 32.8ZM1352.43 33L1351.97 32.1106L1351.96 32.1162L1352.43 33ZM1340.83 42.8L1340.04 42.1878L1340.03 42.1916L1340.83 42.8ZM1333.83 56.6L1332.87 56.3059L1332.87 56.3139L1332.87 56.3219L1333.83 56.6ZM1368.63 143.2C1358.09 143.2 1348.57 141.225 1340.05 137.292L1339.21 139.108C1348.02 143.175 1357.83 145.2 1368.63 145.2V143.2ZM1340.06 137.3C1331.64 133.22 1324.34 127.828 1318.16 121.122L1316.69 122.478C1323.05 129.372 1330.55 134.913 1339.19 139.1L1340.06 137.3ZM1318.18 121.137C1312.12 114.291 1307.45 106.659 1304.16 98.2361L1302.3 98.9638C1305.67 107.608 1310.47 115.442 1316.68 122.463L1318.18 121.137ZM1304.16 98.241C1300.87 89.6878 1299.23 80.8761 1299.23 71.8H1297.23C1297.23 81.1239 1298.92 90.1788 1302.29 98.959L1304.16 98.241ZM1299.23 71.8C1299.23 62.4587 1300.94 53.5868 1304.35 45.1764L1302.5 44.4236C1298.99 53.0798 1297.23 62.208 1297.23 71.8H1299.23ZM1304.35 45.1887C1307.9 36.7634 1312.77 29.264 1318.96 22.6849L1317.5 21.3151C1311.15 28.0693 1306.15 35.7699 1302.51 44.4113L1304.35 45.1887ZM1318.96 22.6854C1325.26 15.9834 1332.69 10.7268 1341.24 6.91322L1340.42 5.08676C1331.64 9.00649 1323.99 14.4166 1317.5 21.3146L1318.96 22.6854ZM1341.24 6.91322C1349.76 3.10832 1359.09 1.19999 1369.23 1.19999V-0.800011C1358.83 -0.800011 1349.23 1.15833 1340.42 5.08676L1341.24 6.91322ZM1369.23 1.19999C1379.63 1.19999 1389.01 3.23946 1397.39 7.29998L1398.26 5.50001C1389.58 1.29385 1379.9 -0.800011 1369.23 -0.800011V1.19999ZM1397.41 7.30795C1405.95 11.2517 1413.24 16.6363 1419.28 23.4626L1420.78 22.1374C1414.55 15.0971 1407.04 9.54823 1398.25 5.49203L1397.41 7.30795ZM1419.29 23.4705C1425.47 30.3133 1430.21 38.0078 1433.49 46.559L1435.36 45.841C1431.98 37.0589 1427.12 29.1534 1420.77 22.1295L1419.29 23.4705ZM1433.5 46.5638C1436.79 54.9842 1438.43 63.5944 1438.43 72.4H1440.43C1440.43 63.339 1438.74 54.4824 1435.36 45.8361L1433.5 46.5638ZM1438.43 72.4C1438.43 81.7413 1436.72 90.6132 1433.3 99.0236L1435.15 99.7764C1438.67 91.1202 1440.43 81.992 1440.43 72.4H1438.43ZM1433.3 99.0236C1429.88 107.441 1425.02 115.003 1418.7 121.715L1420.16 123.085C1426.64 116.197 1431.64 108.426 1435.15 99.7764L1433.3 99.0236ZM1418.71 121.707C1412.4 128.281 1404.97 133.543 1396.41 137.492L1397.25 139.308C1406.02 135.257 1413.66 129.852 1420.15 123.093L1418.71 121.707ZM1396.42 137.489C1388.02 141.292 1378.77 143.2 1368.63 143.2V145.2C1379.02 145.2 1388.57 143.242 1397.24 139.311L1396.42 137.489ZM1330.63 72.2C1330.63 77.7659 1331.44 83.1983 1333.07 88.4941L1334.98 87.9059C1333.41 82.8016 1332.63 77.5675 1332.63 72.2H1330.63ZM1333.07 88.5011C1334.71 93.6727 1337.09 98.3112 1340.23 102.408L1341.82 101.192C1338.83 97.2888 1336.55 92.8606 1334.98 87.8989L1333.07 88.5011ZM1340.25 102.425C1343.54 106.537 1347.58 109.826 1352.37 112.289L1353.29 110.511C1348.74 108.174 1344.92 105.063 1341.81 101.175L1340.25 102.425ZM1352.37 112.289C1357.2 114.772 1362.69 116 1368.83 116V114C1362.96 114 1357.79 112.828 1353.29 110.511L1352.37 112.289ZM1368.83 116C1375.22 116 1380.85 114.775 1385.69 112.289L1384.77 110.511C1380.27 112.825 1374.97 114 1368.83 114V116ZM1385.71 112.279C1390.5 109.678 1394.47 106.25 1397.63 101.996L1396.03 100.804C1393.05 104.817 1389.29 108.055 1384.75 110.521L1385.71 112.279ZM1397.63 101.996C1400.77 97.7644 1403.09 93.0563 1404.59 87.8781L1402.67 87.3219C1401.23 92.277 1399.02 96.7689 1396.03 100.804L1397.63 101.996ZM1404.58 87.8941C1406.21 82.6007 1407.03 77.235 1407.03 71.8H1405.03C1405.03 77.0316 1404.24 82.1992 1402.67 87.3059L1404.58 87.8941ZM1407.03 71.8C1407.03 66.2342 1406.21 60.8657 1404.58 55.6989L1402.67 56.3011C1404.24 61.2676 1405.03 66.4325 1405.03 71.8H1407.03ZM1404.58 55.6989C1402.95 50.5191 1400.49 45.8752 1397.21 41.7753L1395.65 43.0247C1398.77 46.9248 1401.11 51.3476 1402.67 56.3011L1404.58 55.6989ZM1397.22 41.7878C1393.93 37.5337 1389.87 34.2349 1385.07 31.9005L1384.19 33.6995C1388.72 35.8984 1392.53 38.9996 1395.64 43.0122L1397.22 41.7878ZM1385.07 31.9005C1380.25 29.5595 1374.83 28.4 1368.83 28.4V30.4C1374.56 30.4 1379.68 31.5072 1384.19 33.6995L1385.07 31.9005ZM1368.83 28.4C1362.43 28.4 1356.8 29.6251 1351.97 32.1107L1352.89 33.8893C1357.39 31.5749 1362.69 30.4 1368.83 30.4V28.4ZM1351.96 32.1162C1347.3 34.5841 1343.32 37.9442 1340.04 42.1878L1341.62 43.4122C1344.73 39.3891 1348.49 36.2159 1352.9 33.8838L1351.96 32.1162ZM1340.03 42.1916C1336.89 46.2931 1334.5 51.0014 1332.87 56.3059L1334.78 56.8941C1336.35 51.7986 1338.63 47.3069 1341.62 43.4084L1340.03 42.1916ZM1332.87 56.3219C1331.37 61.48 1330.63 66.7736 1330.63 72.2H1332.63C1332.63 66.9597 1333.35 61.8533 1334.79 56.8781L1332.87 56.3219ZM1458.98 143H1457.98V144H1458.98V143ZM1458.98 0.999992V-7.62939e-06H1457.98V0.999992H1458.98ZM1577.18 0.999992H1578.18V-7.62939e-06H1577.18V0.999992ZM1577.18 143V144H1578.18V143H1577.18ZM1544.38 143H1543.38V144H1544.38V143ZM1544.38 29.8H1545.38V28.8H1544.38V29.8ZM1491.78 29.8V28.8H1490.78V29.8H1491.78ZM1491.78 143V144H1492.78V143H1491.78ZM1459.98 143V0.999992H1457.98V143H1459.98ZM1458.98 1.99999H1577.18V-7.62939e-06H1458.98V1.99999ZM1576.18 0.999992V143H1578.18V0.999992H1576.18ZM1577.18 142H1544.38V144H1577.18V142ZM1545.38 143V29.8H1543.38V143H1545.38ZM1544.38 28.8H1491.78V30.8H1544.38V28.8ZM1490.78 29.8V143H1492.78V29.8H1490.78ZM1491.78 142H1458.98V144H1491.78V142ZM1640.86 0.999992V-7.62939e-06H1640.15L1639.92 0.673798L1640.86 0.999992ZM1676.26 0.999992L1677.21 0.674988L1676.97 -7.62939e-06H1676.26V0.999992ZM1725.06 143V144H1726.46L1726.01 142.675L1725.06 143ZM1691.46 143L1690.52 143.327L1690.75 144H1691.46V143ZM1680.46 111.2L1681.41 110.873L1681.17 110.2H1680.46V111.2ZM1636.26 111.2V110.2H1635.54L1635.31 110.878L1636.26 111.2ZM1625.46 143V144H1626.18L1626.41 143.322L1625.46 143ZM1591.86 143L1590.92 142.674L1590.46 144H1591.86V143ZM1675.06 88.6V89.6H1676.41L1676.02 88.3091L1675.06 88.6ZM1658.46 34L1659.42 33.7091L1658.47 30.5996L1657.51 33.7027L1658.46 34ZM1641.46 88.6L1640.51 88.3027L1640.1 89.6H1641.46V88.6ZM1640.86 1.99999H1676.26V-7.62939e-06H1640.86V1.99999ZM1675.32 1.325L1724.12 143.325L1726.01 142.675L1677.21 0.674988L1675.32 1.325ZM1725.06 142H1691.46V144H1725.06V142ZM1692.41 142.673L1681.41 110.873L1679.52 111.527L1690.52 143.327L1692.41 142.673ZM1680.46 110.2H1636.26V112.2H1680.46V110.2ZM1635.31 110.878L1624.51 142.678L1626.41 143.322L1637.21 111.522L1635.31 110.878ZM1625.46 142H1591.86V144H1625.46V142ZM1592.81 143.326L1641.81 1.32619L1639.92 0.673798L1590.92 142.674L1592.81 143.326ZM1676.02 88.3091L1659.42 33.7091L1657.5 34.2909L1674.1 88.8909L1676.02 88.3091ZM1657.51 33.7027L1640.51 88.3027L1642.42 88.8973L1659.42 34.2973L1657.51 33.7027ZM1641.46 89.6H1675.06V87.6H1641.46V89.6ZM1739.05 143H1738.05V144H1739.05V143ZM1739.05 0.999992V-7.62939e-06H1738.05V0.999992H1739.05ZM1818.25 5.2L1817.8 6.09443L1817.81 6.10075L1817.82 6.10672L1818.25 5.2ZM1833.05 16.2L1832.3 16.863L1832.3 16.8684L1832.31 16.8738L1833.05 16.2ZM1842.65 31.6L1843.58 31.2323V31.2323L1842.65 31.6ZM1840.25 72.4L1839.36 71.9336L1839.36 71.9399L1839.35 71.9463L1840.25 72.4ZM1824.45 90.4L1825.01 91.2269L1825.01 91.2245L1824.45 90.4ZM1771.85 97.2V96.2H1770.85V97.2H1771.85ZM1771.85 143V144H1772.85V143H1771.85ZM1771.85 68.6H1770.85V69.6H1771.85V68.6ZM1810.85 59.8L1811.76 60.2138L1810.85 59.8ZM1810.45 38.2L1809.55 38.6472L1809.56 38.672L1809.58 38.6961L1810.45 38.2ZM1804.65 31.8L1804.14 32.6619L1804.15 32.6682L1804.16 32.6741L1804.65 31.8ZM1771.85 29.8V28.8H1770.85V29.8H1771.85ZM1740.05 143V0.999992H1738.05V143H1740.05ZM1739.05 1.99999H1799.65V-7.62939e-06H1739.05V1.99999ZM1799.65 1.99999C1806.3 1.99999 1812.35 3.36969 1817.8 6.09443L1818.69 4.30557C1812.94 1.43029 1806.59 -7.62939e-06 1799.65 -7.62939e-06V1.99999ZM1817.82 6.10672C1823.43 8.71631 1828.26 12.3007 1832.3 16.863L1833.79 15.537C1829.57 10.766 1824.52 7.01701 1818.67 4.29328L1817.82 6.10672ZM1832.31 16.8738C1836.36 21.317 1839.49 26.3465 1841.72 31.9677L1843.58 31.2323C1841.26 25.3868 1838 20.1496 1833.78 15.5262L1832.31 16.8738ZM1841.72 31.9677C1843.94 37.5872 1845.05 43.3294 1845.05 49.2H1847.05C1847.05 43.0706 1845.89 37.0794 1843.58 31.2323L1841.72 31.9677ZM1845.05 49.2C1845.05 57.1676 1843.15 64.7411 1839.36 71.9336L1841.13 72.8664C1845.07 65.3922 1847.05 57.4991 1847.05 49.2H1845.05ZM1839.35 71.9463C1835.7 79.1305 1830.54 85.0031 1823.88 89.5755L1825.01 91.2245C1831.95 86.4636 1837.33 80.3362 1841.14 72.8537L1839.35 71.9463ZM1823.88 89.5731C1817.4 93.9782 1809.67 96.2 1800.65 96.2V98.2C1810.02 98.2 1818.15 95.8884 1825.01 91.2269L1823.88 89.5731ZM1800.65 96.2H1771.85V98.2H1800.65V96.2ZM1770.85 97.2V143H1772.85V97.2H1770.85ZM1771.85 142H1739.05V144H1771.85V142ZM1771.85 69.6H1798.65V67.6H1771.85V69.6ZM1798.65 69.6C1801.39 69.6 1803.92 68.8026 1806.21 67.224L1805.08 65.576C1803.11 66.9307 1800.97 67.6 1798.65 67.6V69.6ZM1806.21 67.224C1808.53 65.632 1810.37 63.2724 1811.76 60.2138L1809.93 59.3862C1808.66 62.1943 1807.03 64.2347 1805.08 65.576L1806.21 67.224ZM1811.76 60.2138C1813.16 57.1156 1813.85 53.3653 1813.85 49H1811.85C1811.85 53.168 1811.19 56.6177 1809.93 59.3862L1811.76 60.2138ZM1813.85 49C1813.85 44.4867 1813.03 40.7002 1811.31 37.7039L1809.58 38.6961C1811.06 41.2998 1811.85 44.7133 1811.85 49H1813.85ZM1811.34 37.7528C1809.8 34.6749 1807.74 32.3748 1805.13 30.9258L1804.16 32.6741C1806.35 33.8919 1808.16 35.8584 1809.55 38.6472L1811.34 37.7528ZM1805.15 30.9381C1802.74 29.5179 1800.16 28.8 1797.45 28.8V30.8C1799.79 30.8 1802.02 31.4154 1804.14 32.6619L1805.15 30.9381ZM1797.45 28.8H1771.85V30.8H1797.45V28.8ZM1770.85 29.8V68.6H1772.85V29.8H1770.85ZM1864.25 143H1863.25V144H1864.25V143ZM1864.25 0.999992V-7.62939e-06H1863.25V0.999992H1864.25ZM1896.85 0.999992H1897.85V-7.62939e-06H1896.85V0.999992ZM1896.85 56H1895.85V57H1896.85V56ZM1908.05 56V57H1908.57L1908.87 56.5843L1908.05 56ZM1947.65 0.999992V-7.62939e-06H1947.14L1946.84 0.415688L1947.65 0.999992ZM1984.05 0.999992L1984.86 1.59511L1986.04 -7.62939e-06H1984.05V0.999992ZM1933.25 69.6L1932.45 69.0049L1932.01 69.6046L1932.46 70.201L1933.25 69.6ZM1988.45 143V144H1990.46L1989.25 142.399L1988.45 143ZM1948.65 143L1947.85 143.588L1948.15 144H1948.65V143ZM1907.05 85.8L1907.86 85.2118L1907.56 84.8H1907.05V85.8ZM1896.85 85.8V84.8H1895.85V85.8H1896.85ZM1896.85 143V144H1897.85V143H1896.85ZM1865.25 143V0.999992H1863.25V143H1865.25ZM1864.25 1.99999H1896.85V-7.62939e-06H1864.25V1.99999ZM1895.85 0.999992V56H1897.85V0.999992H1895.85ZM1896.85 57H1908.05V55H1896.85V57ZM1908.87 56.5843L1948.47 1.5843L1946.84 0.415688L1907.24 55.4157L1908.87 56.5843ZM1947.65 1.99999H1984.05V-7.62939e-06H1947.65V1.99999ZM1983.25 0.404877L1932.45 69.0049L1934.06 70.1951L1984.86 1.59511L1983.25 0.404877ZM1932.46 70.201L1987.66 143.601L1989.25 142.399L1934.05 68.999L1932.46 70.201ZM1988.45 142H1948.65V144H1988.45V142ZM1949.46 142.412L1907.86 85.2118L1906.25 86.3882L1947.85 143.588L1949.46 142.412ZM1907.05 84.8H1896.85V86.8H1907.05V84.8ZM1895.85 85.8V143H1897.85V85.8H1895.85ZM1896.85 142H1864.25V144H1896.85V142ZM2066.39 137L2065.94 137.892L2065.94 137.894L2066.39 137ZM2043.19 116.4L2042.66 115.549L2041.79 116.088L2042.35 116.946L2043.19 116.4ZM2067.79 101.2L2068.63 100.656L2068.09 99.8351L2067.26 100.349L2067.79 101.2ZM2080.39 113L2079.9 113.871L2079.91 113.878L2079.92 113.885L2080.39 113ZM2115.99 112.4L2115.32 111.653L2115.99 112.4ZM2118.99 91.4L2118.12 91.901L2118.13 91.9177L2118.14 91.934L2118.99 91.4ZM2111.79 85.6L2111.37 86.5091L2111.39 86.5193L2111.42 86.5285L2111.79 85.6ZM2081.19 83.4H2080.19V84.4H2081.19V83.4ZM2081.19 58.8V57.8H2080.19V58.8H2081.19ZM2109.79 57L2110.2 57.9119L2110.22 57.9035L2110.23 57.8944L2109.79 57ZM2115.59 51.8L2114.73 51.293L2114.72 51.3013L2114.72 51.3097L2115.59 51.8ZM2115.39 36.4L2114.53 36.907L2114.54 36.9374L2114.56 36.9665L2115.39 36.4ZM2108.99 31.2L2108.57 32.1104L2108.59 32.1183L2108.61 32.1255L2108.99 31.2ZM2078.59 33.4L2078.11 32.5195V32.5195L2078.59 33.4ZM2066.79 44.2L2066.21 45.017L2067.09 45.6354L2067.64 44.7183L2066.79 44.2ZM2042.99 27.4L2042.18 26.8126L2041.58 27.6326L2042.41 28.217L2042.99 27.4ZM2065.19 7.59999L2065.68 8.47228L2065.68 8.46983L2065.19 7.59999ZM2125.99 4.4L2126.35 3.46925L2125.99 4.4ZM2143.19 17.6L2142.36 18.1633L2142.37 18.1742L2142.38 18.1848L2143.19 17.6ZM2144.79 56.8L2143.91 56.3283L2143.9 56.336L2144.79 56.8ZM2129.99 70L2129.57 69.092L2127.13 70.2174L2129.71 70.9609L2129.99 70ZM2148.19 82.4L2147.37 82.9795L2148.19 82.4ZM2147.39 126L2148.17 126.625L2148.18 126.616L2147.39 126ZM2127.79 139.8L2128.14 140.738L2128.15 140.733L2127.79 139.8ZM2099.59 143.4C2087.46 143.4 2076.55 140.962 2066.83 136.106L2065.94 137.894C2075.96 142.905 2087.18 145.4 2099.59 145.4V143.4ZM2066.84 136.108C2057.26 131.251 2049.66 124.501 2044.03 115.854L2042.35 116.946C2048.18 125.899 2056.05 132.882 2065.94 137.892L2066.84 136.108ZM2043.71 117.251L2068.31 102.051L2067.26 100.349L2042.66 115.549L2043.71 117.251ZM2066.95 101.744C2070.24 106.815 2074.56 110.86 2079.9 113.871L2080.88 112.129C2075.82 109.274 2071.74 105.452 2068.63 100.656L2066.95 101.744ZM2079.92 113.885C2085.42 116.771 2091.72 118.2 2098.79 118.2V116.2C2091.99 116.2 2086.02 114.829 2080.85 112.115L2079.92 113.885ZM2098.79 118.2C2106.75 118.2 2112.78 116.586 2116.65 113.147L2115.32 111.653C2111.99 114.614 2106.55 116.2 2098.79 116.2V118.2ZM2116.65 113.147C2120.47 109.752 2122.39 105.411 2122.39 100.2H2120.39C2120.39 104.856 2118.7 108.648 2115.32 111.653L2116.65 113.147ZM2122.39 100.2C2122.39 96.6996 2121.55 93.5768 2119.83 90.866L2118.14 91.934C2119.63 94.2899 2120.39 97.0337 2120.39 100.2H2122.39ZM2119.85 90.899C2118.25 88.1312 2115.65 86.0687 2112.16 84.6715L2111.42 86.5285C2114.59 87.798 2116.79 89.6022 2118.12 91.901L2119.85 90.899ZM2112.2 84.6909C2108.83 83.144 2104.54 82.4 2099.39 82.4V84.4C2104.37 84.4 2108.35 85.1226 2111.37 86.5091L2112.2 84.6909ZM2099.39 82.4H2081.19V84.4H2099.39V82.4ZM2082.19 83.4V58.8H2080.19V83.4H2082.19ZM2081.19 59.8H2099.59V57.8H2081.19V59.8ZM2099.59 59.8C2103.81 59.8 2107.36 59.1888 2110.2 57.9119L2109.38 56.0881C2106.88 57.2112 2103.63 57.8 2099.59 57.8V59.8ZM2110.23 57.8944C2113.04 56.4915 2115.14 54.6325 2116.46 52.2903L2114.72 51.3097C2113.63 53.2342 2111.87 54.8419 2109.34 56.1056L2110.23 57.8944ZM2116.45 52.307C2117.88 49.8695 2118.59 47.0905 2118.59 44H2116.59C2116.59 46.7761 2115.96 49.1972 2114.73 51.293L2116.45 52.307ZM2118.59 44C2118.59 40.8923 2117.81 38.1551 2116.21 35.8335L2114.56 36.9665C2115.9 38.9116 2116.59 41.2411 2116.59 44H2118.59ZM2116.25 35.893C2114.78 33.4014 2112.46 31.5398 2109.37 30.2745L2108.61 32.1255C2111.38 33.2602 2113.32 34.8653 2114.53 36.907L2116.25 35.893ZM2109.4 30.2896C2106.29 28.8769 2102.34 28.2 2097.59 28.2V30.2C2102.17 30.2 2105.81 30.8564 2108.57 32.1104L2109.4 30.2896ZM2097.59 28.2C2090 28.2 2083.49 29.623 2078.11 32.5195L2079.06 34.2805C2084.08 31.577 2090.24 30.2 2097.59 30.2V28.2ZM2078.11 32.5195C2072.78 35.3914 2068.7 39.1077 2065.93 43.6817L2067.64 44.7183C2070.2 40.4923 2074 37.0086 2079.06 34.2805L2078.11 32.5195ZM2067.36 43.383L2043.56 26.583L2042.41 28.217L2066.21 45.017L2067.36 43.383ZM2043.8 27.9874C2049.71 19.8362 2057 13.334 2065.68 8.47227L2064.7 6.72771C2055.77 11.7326 2048.26 18.4304 2042.18 26.8126L2043.8 27.9874ZM2065.68 8.46983C2074.42 3.51176 2085.51 0.999992 2098.99 0.999992V-1.00001C2085.27 -1.00001 2073.82 1.5549 2064.69 6.73016L2065.68 8.46983ZM2098.99 0.999992C2109.43 0.999992 2118.3 2.45502 2125.62 5.33075L2126.35 3.46925C2118.74 0.478298 2109.61 -1.00001 2098.99 -1.00001V0.999992ZM2125.62 5.33075C2132.93 8.20052 2138.49 12.4836 2142.36 18.1633L2144.01 17.0367C2139.89 10.9831 2133.98 6.46614 2126.35 3.46925L2125.62 5.33075ZM2142.38 18.1848C2146.36 23.715 2148.39 30.6321 2148.39 39H2150.39C2150.39 30.3012 2148.28 22.9516 2144 17.0152L2142.38 18.1848ZM2148.39 39C2148.39 44.9589 2146.9 50.7311 2143.91 56.3283L2145.67 57.2716C2148.81 51.4022 2150.39 45.3078 2150.39 39H2148.39ZM2143.9 56.336C2141.09 61.7025 2136.34 65.9647 2129.57 69.092L2130.41 70.908C2137.5 67.6353 2142.62 63.0975 2145.67 57.264L2143.9 56.336ZM2129.71 70.9609C2137.39 73.1724 2143.25 77.1846 2147.37 82.9795L2149 81.8205C2144.59 75.6154 2138.32 71.3609 2130.26 69.0391L2129.71 70.9609ZM2147.37 82.9795C2151.51 88.7954 2153.59 95.5888 2153.59 103.4H2155.59C2155.59 95.2112 2153.4 88.0045 2149 81.8205L2147.37 82.9795ZM2153.59 103.4C2153.59 112.144 2151.24 119.452 2146.6 125.384L2148.18 126.616C2153.13 120.282 2155.59 112.522 2155.59 103.4H2153.59ZM2146.61 125.375C2141.93 131.217 2135.55 135.721 2127.43 138.867L2128.15 140.733C2136.55 137.479 2143.24 132.783 2148.17 126.625L2146.61 125.375ZM2127.44 138.862C2119.3 141.881 2110.02 143.4 2099.59 143.4V145.4C2110.22 145.4 2119.74 143.853 2128.14 140.738L2127.44 138.862ZM2208.77 138.2L2208.33 139.1L2208.34 139.104L2208.35 139.108L2208.77 138.2ZM2186.57 121.8L2185.82 122.463L2185.83 122.47L2185.83 122.478L2186.57 121.8ZM2172.37 98.6L2171.44 98.959L2171.44 98.9638L2172.37 98.6ZM2172.57 44.8L2171.65 44.4113L2171.64 44.4236L2172.57 44.8ZM2187.37 22L2186.64 21.3146L2186.64 21.3151L2187.37 22ZM2209.97 5.99999L2209.56 5.08676L2209.97 5.99999ZM2266.97 6.39999L2266.53 7.29998L2266.54 7.30404L2266.55 7.30795L2266.97 6.39999ZM2289.17 22.8L2288.42 23.4626L2288.43 23.4705L2289.17 22.8ZM2303.57 46.2L2302.64 46.559L2302.64 46.5638L2303.57 46.2ZM2303.37 99.4L2302.44 99.0236L2303.37 99.4ZM2288.57 122.4L2289.29 123.093L2289.3 123.085L2288.57 122.4ZM2265.97 138.4L2266.38 139.311L2266.39 139.308L2265.97 138.4ZM2203.17 88.2L2202.21 88.4941L2202.22 88.5011L2203.17 88.2ZM2210.17 101.8L2209.38 102.408L2209.38 102.417L2209.39 102.425L2210.17 101.8ZM2221.97 111.4L2222.43 110.511L2221.97 111.4ZM2254.37 111.4L2254.83 112.289L2254.84 112.284L2254.85 112.279L2254.37 111.4ZM2265.97 101.4L2266.77 101.996L2265.97 101.4ZM2272.77 87.6L2271.81 87.3059L2271.81 87.3139L2271.81 87.3219L2272.77 87.6ZM2272.77 56L2271.82 56.3011L2272.77 56ZM2265.57 42.4L2264.78 43.0122L2264.78 43.0185L2264.79 43.0247L2265.57 42.4ZM2253.77 32.8L2253.33 33.6995V33.6995L2253.77 32.8ZM2221.57 33L2221.11 32.1106L2221.1 32.1162L2221.57 33ZM2209.97 42.8L2209.18 42.1878L2209.18 42.1916L2209.97 42.8ZM2202.97 56.6L2202.01 56.3059L2202.01 56.3139L2202.01 56.3219L2202.97 56.6ZM2237.77 143.2C2227.23 143.2 2217.71 141.225 2209.19 137.292L2208.35 139.108C2217.16 143.175 2226.97 145.2 2237.77 145.2V143.2ZM2209.2 137.3C2200.78 133.22 2193.48 127.828 2187.3 121.122L2185.83 122.478C2192.19 129.372 2199.69 134.913 2208.33 139.1L2209.2 137.3ZM2187.32 121.137C2181.26 114.291 2176.59 106.659 2173.3 98.2361L2171.44 98.9638C2174.81 107.608 2179.61 115.442 2185.82 122.463L2187.32 121.137ZM2173.3 98.241C2170.01 89.6878 2168.37 80.8761 2168.37 71.8H2166.37C2166.37 81.1239 2168.06 90.1788 2171.44 98.959L2173.3 98.241ZM2168.37 71.8C2168.37 62.4587 2170.08 53.5868 2173.5 45.1764L2171.64 44.4236C2168.13 53.0798 2166.37 62.208 2166.37 71.8H2168.37ZM2173.49 45.1887C2177.04 36.7634 2181.91 29.264 2188.1 22.6849L2186.64 21.3151C2180.29 28.0693 2175.29 35.7699 2171.65 44.4113L2173.49 45.1887ZM2188.1 22.6854C2194.4 15.9834 2201.83 10.7268 2210.38 6.91322L2209.56 5.08676C2200.78 9.00649 2193.13 14.4166 2186.64 21.3146L2188.1 22.6854ZM2210.38 6.91322C2218.9 3.10832 2228.23 1.19999 2238.37 1.19999V-0.800011C2227.97 -0.800011 2218.37 1.15833 2209.56 5.08676L2210.38 6.91322ZM2238.37 1.19999C2248.77 1.19999 2258.15 3.23946 2266.53 7.29998L2267.4 5.50001C2258.72 1.29385 2249.04 -0.800011 2238.37 -0.800011V1.19999ZM2266.55 7.30795C2275.09 11.2517 2282.38 16.6363 2288.42 23.4626L2289.92 22.1374C2283.69 15.0971 2276.18 9.54823 2267.39 5.49203L2266.55 7.30795ZM2288.43 23.4705C2294.61 30.3133 2299.35 38.0078 2302.64 46.559L2304.5 45.841C2301.12 37.0589 2296.26 29.1534 2289.91 22.1295L2288.43 23.4705ZM2302.64 46.5638C2305.93 54.9842 2307.57 63.5944 2307.57 72.4H2309.57C2309.57 63.339 2307.88 54.4824 2304.5 45.8361L2302.64 46.5638ZM2307.57 72.4C2307.57 81.7413 2305.86 90.6132 2302.44 99.0236L2304.3 99.7764C2307.81 91.1202 2309.57 81.992 2309.57 72.4H2307.57ZM2302.44 99.0236C2299.02 107.441 2294.16 115.003 2287.84 121.715L2289.3 123.085C2295.78 116.197 2300.78 108.426 2304.3 99.7764L2302.44 99.0236ZM2287.85 121.707C2281.54 128.281 2274.11 133.543 2265.55 137.492L2266.39 139.308C2275.16 135.257 2282.8 129.852 2289.29 123.093L2287.85 121.707ZM2265.56 137.489C2257.16 141.292 2247.91 143.2 2237.77 143.2V145.2C2248.16 145.2 2257.71 143.242 2266.38 139.311L2265.56 137.489ZM2199.77 72.2C2199.77 77.7659 2200.58 83.1983 2202.21 88.4941L2204.12 87.9059C2202.55 82.8016 2201.77 77.5675 2201.77 72.2H2199.77ZM2202.22 88.5011C2203.85 93.6727 2206.23 98.3112 2209.38 102.408L2210.96 101.192C2207.97 97.2888 2205.69 92.8606 2204.12 87.8989L2202.22 88.5011ZM2209.39 102.425C2212.68 106.537 2216.72 109.826 2221.51 112.289L2222.43 110.511C2217.88 108.174 2214.06 105.063 2210.95 101.175L2209.39 102.425ZM2221.51 112.289C2226.34 114.772 2231.83 116 2237.97 116V114C2232.1 114 2226.93 112.828 2222.43 110.511L2221.51 112.289ZM2237.97 116C2244.36 116 2249.99 114.775 2254.83 112.289L2253.91 110.511C2249.41 112.825 2244.11 114 2237.97 114V116ZM2254.85 112.279C2259.64 109.678 2263.62 106.25 2266.77 101.996L2265.17 100.804C2262.19 104.817 2258.43 108.055 2253.89 110.521L2254.85 112.279ZM2266.77 101.996C2269.91 97.7644 2272.23 93.0563 2273.73 87.8781L2271.81 87.3219C2270.37 92.277 2268.16 96.7689 2265.17 100.804L2266.77 101.996ZM2273.72 87.8941C2275.35 82.6007 2276.17 77.235 2276.17 71.8H2274.17C2274.17 77.0316 2273.38 82.1992 2271.81 87.3059L2273.72 87.8941ZM2276.17 71.8C2276.17 66.2342 2275.35 60.8657 2273.72 55.6989L2271.82 56.3011C2273.38 61.2676 2274.17 66.4325 2274.17 71.8H2276.17ZM2273.72 55.6989C2272.09 50.5191 2269.63 45.8752 2266.35 41.7753L2264.79 43.0247C2267.91 46.9248 2270.25 51.3476 2271.82 56.3011L2273.72 55.6989ZM2266.36 41.7878C2263.07 37.5337 2259.01 34.2349 2254.21 31.9005L2253.33 33.6995C2257.86 35.8984 2261.67 38.9996 2264.78 43.0122L2266.36 41.7878ZM2254.21 31.9005C2249.39 29.5595 2243.97 28.4 2237.97 28.4V30.4C2243.7 30.4 2248.82 31.5072 2253.33 33.6995L2254.21 31.9005ZM2237.97 28.4C2231.57 28.4 2225.94 29.6251 2221.11 32.1107L2222.03 33.8893C2226.53 31.5749 2231.83 30.4 2237.97 30.4V28.4ZM2221.1 32.1162C2216.44 34.5841 2212.46 37.9442 2209.18 42.1878L2210.76 43.4122C2213.87 39.3891 2217.63 36.2159 2222.04 33.8838L2221.1 32.1162ZM2209.18 42.1916C2206.03 46.2931 2203.65 51.0014 2202.01 56.3059L2203.92 56.8941C2205.49 51.7986 2207.77 47.3069 2210.76 43.4084L2209.18 42.1916ZM2202.01 56.3219C2200.52 61.48 2199.77 66.7736 2199.77 72.2H2201.77C2201.77 66.9597 2202.49 61.8533 2203.93 56.8781L2202.01 56.3219ZM2360.72 138.2L2360.29 139.1L2360.29 139.104L2360.3 139.108L2360.72 138.2ZM2338.52 121.8L2337.77 122.463L2337.78 122.47L2337.79 122.478L2338.52 121.8ZM2324.32 98.6L2323.39 98.959L2323.39 98.9638L2324.32 98.6ZM2324.52 44.8L2323.6 44.4113L2323.6 44.4236L2324.52 44.8ZM2339.32 22L2338.59 21.3146L2338.59 21.3151L2339.32 22ZM2361.92 5.99999L2361.51 5.08676L2361.92 5.99999ZM2418.92 6.39999L2418.49 7.29998L2418.49 7.30404L2418.5 7.30795L2418.92 6.39999ZM2441.12 22.8L2440.37 23.4626L2440.38 23.4705L2441.12 22.8ZM2455.52 46.2L2454.59 46.559L2454.59 46.5638L2455.52 46.2ZM2455.32 99.4L2454.4 99.0236L2455.32 99.4ZM2440.52 122.4L2441.24 123.093L2441.25 123.085L2440.52 122.4ZM2417.92 138.4L2418.33 139.311L2418.34 139.308L2417.92 138.4ZM2355.12 88.2L2354.17 88.4941L2354.17 88.5011L2355.12 88.2ZM2362.12 101.8L2361.33 102.408L2361.33 102.417L2361.34 102.425L2362.12 101.8ZM2373.92 111.4L2374.38 110.511L2373.92 111.4ZM2406.32 111.4L2406.78 112.289L2406.79 112.284L2406.8 112.279L2406.32 111.4ZM2417.92 101.4L2418.73 101.996L2417.92 101.4ZM2424.72 87.6L2423.77 87.3059L2423.76 87.3139L2423.76 87.3219L2424.72 87.6ZM2424.72 56L2423.77 56.3011L2424.72 56ZM2417.52 42.4L2416.73 43.0122L2416.74 43.0185L2416.74 43.0247L2417.52 42.4ZM2405.72 32.8L2405.28 33.6995V33.6995L2405.72 32.8ZM2373.52 33L2373.06 32.1106L2373.05 32.1162L2373.52 33ZM2361.92 42.8L2361.13 42.1878L2361.13 42.1916L2361.92 42.8ZM2354.92 56.6L2353.97 56.3059L2353.96 56.3139L2353.96 56.3219L2354.92 56.6ZM2389.72 143.2C2379.18 143.2 2369.66 141.225 2361.14 137.292L2360.3 139.108C2369.12 143.175 2378.93 145.2 2389.72 145.2V143.2ZM2361.16 137.3C2352.73 133.22 2345.44 127.828 2339.26 121.122L2337.79 122.478C2344.14 129.372 2351.64 134.913 2360.29 139.1L2361.16 137.3ZM2339.27 121.137C2333.21 114.291 2328.54 106.659 2325.25 98.2361L2323.39 98.9638C2326.77 107.608 2331.56 115.442 2337.77 122.463L2339.27 121.137ZM2325.26 98.241C2321.97 89.6878 2320.32 80.8761 2320.32 71.8H2318.32C2318.32 81.1239 2320.01 90.1788 2323.39 98.959L2325.26 98.241ZM2320.32 71.8C2320.32 62.4587 2322.03 53.5868 2325.45 45.1764L2323.6 44.4236C2320.08 53.0798 2318.32 62.208 2318.32 71.8H2320.32ZM2325.44 45.1887C2329 36.7634 2333.87 29.264 2340.05 22.6849L2338.59 21.3151C2332.24 28.0693 2327.25 35.7699 2323.6 44.4113L2325.44 45.1887ZM2340.05 22.6854C2346.36 15.9834 2353.78 10.7268 2362.33 6.91322L2361.51 5.08676C2352.73 9.00649 2345.09 14.4166 2338.59 21.3146L2340.05 22.6854ZM2362.33 6.91322C2370.86 3.10832 2380.18 1.19999 2390.32 1.19999V-0.800011C2379.93 -0.800011 2370.32 1.15833 2361.51 5.08676L2362.33 6.91322ZM2390.32 1.19999C2400.72 1.19999 2410.1 3.23946 2418.49 7.29998L2419.36 5.50001C2410.67 1.29385 2400.99 -0.800011 2390.32 -0.800011V1.19999ZM2418.5 7.30795C2427.05 11.2517 2434.33 16.6363 2440.37 23.4626L2441.87 22.1374C2435.64 15.0971 2428.13 9.54823 2419.34 5.49203L2418.5 7.30795ZM2440.38 23.4705C2446.56 30.3133 2451.3 38.0078 2454.59 46.559L2456.46 45.841C2453.08 37.0589 2448.21 29.1534 2441.86 22.1295L2440.38 23.4705ZM2454.59 46.5638C2457.88 54.9842 2459.52 63.5944 2459.52 72.4H2461.52C2461.52 63.339 2459.83 54.4824 2456.45 45.8361L2454.59 46.5638ZM2459.52 72.4C2459.52 81.7413 2457.81 90.6132 2454.4 99.0236L2456.25 99.7764C2459.76 91.1202 2461.52 81.992 2461.52 72.4H2459.52ZM2454.4 99.0236C2450.98 107.441 2446.11 115.003 2439.79 121.715L2441.25 123.085C2447.73 116.197 2452.73 108.426 2456.25 99.7764L2454.4 99.0236ZM2439.8 121.707C2433.49 128.281 2426.06 133.543 2417.5 137.492L2418.34 139.308C2427.12 135.257 2434.75 129.852 2441.24 123.093L2439.8 121.707ZM2417.51 137.489C2409.12 141.292 2399.86 143.2 2389.72 143.2V145.2C2400.12 145.2 2409.66 143.242 2418.33 139.311L2417.51 137.489ZM2351.72 72.2C2351.72 77.7659 2352.54 83.1983 2354.17 88.4941L2356.08 87.9059C2354.51 82.8016 2353.72 77.5675 2353.72 72.2H2351.72ZM2354.17 88.5011C2355.8 93.6727 2358.19 98.3112 2361.33 102.408L2362.92 101.192C2359.92 97.2888 2357.64 92.8606 2356.08 87.8989L2354.17 88.5011ZM2361.34 102.425C2364.63 106.537 2368.68 109.826 2373.46 112.289L2374.38 110.511C2369.83 108.174 2366.01 105.063 2362.9 101.175L2361.34 102.425ZM2373.46 112.289C2378.29 114.772 2383.79 116 2389.92 116V114C2384.06 114 2378.89 112.828 2374.38 110.511L2373.46 112.289ZM2389.92 116C2396.32 116 2401.95 114.775 2406.78 112.289L2405.86 110.511C2401.36 112.825 2396.06 114 2389.92 114V116ZM2406.8 112.279C2411.59 109.678 2415.57 106.25 2418.73 101.996L2417.12 100.804C2414.14 104.817 2410.39 108.055 2405.84 110.521L2406.8 112.279ZM2418.73 101.996C2421.86 97.7644 2424.18 93.0563 2425.68 87.8781L2423.76 87.3219C2422.33 92.277 2420.11 96.7689 2417.12 100.804L2418.73 101.996ZM2425.68 87.8941C2427.31 82.6007 2428.12 77.235 2428.12 71.8H2426.12C2426.12 77.0316 2425.34 82.1992 2423.77 87.3059L2425.68 87.8941ZM2428.12 71.8C2428.12 66.2342 2427.31 60.8657 2425.68 55.6989L2423.77 56.3011C2425.34 61.2676 2426.12 66.4325 2426.12 71.8H2428.12ZM2425.68 55.6989C2424.04 50.5191 2421.58 45.8752 2418.3 41.7753L2416.74 43.0247C2419.86 46.9248 2422.2 51.3476 2423.77 56.3011L2425.68 55.6989ZM2418.31 41.7878C2415.02 37.5337 2410.97 34.2349 2406.16 31.9005L2405.28 33.6995C2409.81 35.8984 2413.62 38.9996 2416.73 43.0122L2418.31 41.7878ZM2406.16 31.9005C2401.34 29.5595 2395.92 28.4 2389.92 28.4V30.4C2395.66 30.4 2400.77 31.5072 2405.28 33.6995L2406.16 31.9005ZM2389.92 28.4C2383.53 28.4 2377.9 29.6251 2373.06 32.1107L2373.98 33.8893C2378.48 31.5749 2383.78 30.4 2389.92 30.4V28.4ZM2373.05 32.1162C2368.39 34.5841 2364.42 37.9442 2361.13 42.1878L2362.71 43.4122C2365.83 39.3891 2369.58 36.2159 2373.99 33.8838L2373.05 32.1162ZM2361.13 42.1916C2357.98 46.2931 2355.6 51.0014 2353.97 56.3059L2355.88 56.8941C2357.45 51.7986 2359.73 47.3069 2362.72 43.4084L2361.13 42.1916ZM2353.96 56.3219C2352.47 61.48 2351.72 66.7736 2351.72 72.2H2353.72C2353.72 66.9597 2354.44 61.8533 2355.88 56.8781L2353.96 56.3219ZM2480.07 143H2479.07V144H2480.07V143ZM2480.07 0.999992V-7.62939e-06H2479.07V0.999992H2480.07ZM2598.27 0.999992H2599.27V-7.62939e-06H2598.27V0.999992ZM2598.27 143V144H2599.27V143H2598.27ZM2565.48 143H2564.48V144H2565.48V143ZM2565.48 29.8H2566.48V28.8H2565.48V29.8ZM2512.88 29.8V28.8H2511.88V29.8H2512.88ZM2512.88 143V144H2513.88V143H2512.88ZM2481.07 143V0.999992H2479.07V143H2481.07ZM2480.07 1.99999H2598.27V-7.62939e-06H2480.07V1.99999ZM2597.27 0.999992V143H2599.27V0.999992H2597.27ZM2598.27 142H2565.48V144H2598.27V142ZM2566.48 143V29.8H2564.48V143H2566.48ZM2565.48 28.8H2512.88V30.8H2565.48V28.8ZM2511.88 29.8V143H2513.88V29.8H2511.88ZM2512.88 142H2480.07V144H2512.88V142ZM2661.95 0.999992V-7.62939e-06H2661.24L2661.01 0.673798L2661.95 0.999992ZM2697.35 0.999992L2698.3 0.674988L2698.07 -7.62939e-06H2697.35V0.999992ZM2746.15 143V144H2747.56L2747.1 142.675L2746.15 143ZM2712.55 143L2711.61 143.327L2711.84 144H2712.55V143ZM2701.55 111.2L2702.5 110.873L2702.27 110.2H2701.55V111.2ZM2657.35 111.2V110.2H2656.64L2656.41 110.878L2657.35 111.2ZM2646.55 143V144H2647.27L2647.5 143.322L2646.55 143ZM2612.95 143L2612.01 142.674L2611.55 144H2612.95V143ZM2696.15 88.6V89.6H2697.5L2697.11 88.3091L2696.15 88.6ZM2679.55 34L2680.51 33.7091L2679.57 30.5996L2678.6 33.7027L2679.55 34ZM2662.55 88.6L2661.6 88.3027L2661.2 89.6H2662.55V88.6ZM2661.95 1.99999H2697.35V-7.62939e-06H2661.95V1.99999ZM2696.41 1.325L2745.21 143.325L2747.1 142.675L2698.3 0.674988L2696.41 1.325ZM2746.15 142H2712.55V144H2746.15V142ZM2713.5 142.673L2702.5 110.873L2700.61 111.527L2711.61 143.327L2713.5 142.673ZM2701.55 110.2H2657.35V112.2H2701.55V110.2ZM2656.41 110.878L2645.61 142.678L2647.5 143.322L2658.3 111.522L2656.41 110.878ZM2646.55 142H2612.95V144H2646.55V142ZM2613.9 143.326L2662.9 1.32619L2661.01 0.673798L2612.01 142.674L2613.9 143.326ZM2697.11 88.3091L2680.51 33.7091L2678.6 34.2909L2695.2 88.8909L2697.11 88.3091ZM2678.6 33.7027L2661.6 88.3027L2663.51 88.8973L2680.51 34.2973L2678.6 33.7027ZM2662.55 89.6H2696.15V87.6H2662.55V89.6ZM2760.14 143H2759.14V144H2760.14V143ZM2760.14 0.999992V-7.62939e-06H2759.14V0.999992H2760.14ZM2839.34 5.2L2838.89 6.09443L2838.9 6.10075L2838.92 6.10672L2839.34 5.2ZM2854.14 16.2L2853.39 16.863L2853.4 16.8684L2853.4 16.8738L2854.14 16.2ZM2863.74 31.6L2864.67 31.2323V31.2323L2863.74 31.6ZM2861.34 72.4L2860.45 71.9336L2860.45 71.9399L2860.45 71.9463L2861.34 72.4ZM2845.54 90.4L2846.1 91.2269L2846.1 91.2245L2845.54 90.4ZM2792.94 97.2V96.2H2791.94V97.2H2792.94ZM2792.94 143V144H2793.94V143H2792.94ZM2792.94 68.6H2791.94V69.6H2792.94V68.6ZM2831.94 59.8L2832.85 60.2138L2831.94 59.8ZM2831.54 38.2L2830.64 38.6472L2830.66 38.672L2830.67 38.6961L2831.54 38.2ZM2825.74 31.8L2825.23 32.6619L2825.24 32.6682L2825.25 32.6741L2825.74 31.8ZM2792.94 29.8V28.8H2791.94V29.8H2792.94ZM2761.14 143V0.999992H2759.14V143H2761.14ZM2760.14 1.99999H2820.74V-7.62939e-06H2760.14V1.99999ZM2820.74 1.99999C2827.4 1.99999 2833.44 3.36969 2838.89 6.09443L2839.79 4.30557C2834.04 1.43029 2827.68 -7.62939e-06 2820.74 -7.62939e-06V1.99999ZM2838.92 6.10672C2844.53 8.71631 2849.35 12.3007 2853.39 16.863L2854.89 15.537C2850.66 10.766 2845.62 7.01701 2839.76 4.29328L2838.92 6.10672ZM2853.4 16.8738C2857.45 21.317 2860.59 26.3465 2862.81 31.9677L2864.67 31.2323C2862.36 25.3868 2859.09 20.1496 2854.88 15.5262L2853.4 16.8738ZM2862.81 31.9677C2865.03 37.5872 2866.14 43.3294 2866.14 49.2H2868.14C2868.14 43.0706 2866.98 37.0794 2864.67 31.2323L2862.81 31.9677ZM2866.14 49.2C2866.14 57.1676 2864.25 64.7411 2860.45 71.9336L2862.22 72.8664C2866.16 65.3922 2868.14 57.4991 2868.14 49.2H2866.14ZM2860.45 71.9463C2856.79 79.1305 2851.64 85.0031 2844.97 89.5755L2846.1 91.2245C2853.04 86.4636 2858.42 80.3362 2862.23 72.8537L2860.45 71.9463ZM2844.98 89.5731C2838.5 93.9782 2830.77 96.2 2821.74 96.2V98.2C2831.11 98.2 2839.25 95.8884 2846.1 91.2269L2844.98 89.5731ZM2821.74 96.2H2792.94V98.2H2821.74V96.2ZM2791.94 97.2V143H2793.94V97.2H2791.94ZM2792.94 142H2760.14V144H2792.94V142ZM2792.94 69.6H2819.74V67.6H2792.94V69.6ZM2819.74 69.6C2822.48 69.6 2825.01 68.8026 2827.31 67.224L2826.17 65.576C2824.2 66.9307 2822.07 67.6 2819.74 67.6V69.6ZM2827.31 67.224C2829.62 65.632 2831.46 63.2724 2832.85 60.2138L2831.03 59.3862C2829.75 62.1943 2828.12 64.2347 2826.17 65.576L2827.31 67.224ZM2832.85 60.2138C2834.26 57.1156 2834.94 53.3653 2834.94 49H2832.94C2832.94 53.168 2832.29 56.6177 2831.03 59.3862L2832.85 60.2138ZM2834.94 49C2834.94 44.4867 2834.12 40.7002 2832.41 37.7039L2830.67 38.6961C2832.16 41.2998 2832.94 44.7133 2832.94 49H2834.94ZM2832.43 37.7528C2830.89 34.6749 2828.83 32.3748 2826.22 30.9258L2825.25 32.6741C2827.45 33.8919 2829.25 35.8584 2830.64 38.6472L2832.43 37.7528ZM2826.25 30.9381C2823.83 29.5179 2821.26 28.8 2818.54 28.8V30.8C2820.89 30.8 2823.11 31.4154 2825.23 32.6619L2826.25 30.9381ZM2818.54 28.8H2792.94V30.8H2818.54V28.8ZM2791.94 29.8V68.6H2793.94V29.8H2791.94ZM2885.35 143H2884.35V144H2885.35V143ZM2885.35 0.999992V-7.62939e-06H2884.35V0.999992H2885.35ZM2917.95 0.999992H2918.95V-7.62939e-06H2917.95V0.999992ZM2917.95 56H2916.95V57H2917.95V56ZM2929.15 56V57H2929.66L2929.96 56.5843L2929.15 56ZM2968.75 0.999992V-7.62939e-06H2968.24L2967.94 0.415688L2968.75 0.999992ZM3005.15 0.999992L3005.95 1.59511L3007.13 -7.62939e-06H3005.15V0.999992ZM2954.35 69.6L2953.54 69.0049L2953.1 69.6046L2953.55 70.201L2954.35 69.6ZM3009.55 143V144H3011.55L3010.35 142.399L3009.55 143ZM2969.75 143L2968.94 143.588L2969.24 144H2969.75V143ZM2928.15 85.8L2928.96 85.2118L2928.66 84.8H2928.15V85.8ZM2917.95 85.8V84.8H2916.95V85.8H2917.95ZM2917.95 143V144H2918.95V143H2917.95ZM2886.35 143V0.999992H2884.35V143H2886.35ZM2885.35 1.99999H2917.95V-7.62939e-06H2885.35V1.99999ZM2916.95 0.999992V56H2918.95V0.999992H2916.95ZM2917.95 57H2929.15V55H2917.95V57ZM2929.96 56.5843L2969.56 1.5843L2967.94 0.415688L2928.34 55.4157L2929.96 56.5843ZM2968.75 1.99999H3005.15V-7.62939e-06H2968.75V1.99999ZM3004.34 0.404877L2953.54 69.0049L2955.15 70.1951L3005.95 1.59511L3004.34 0.404877ZM2953.55 70.201L3008.75 143.601L3010.35 142.399L2955.15 68.999L2953.55 70.201ZM3009.55 142H2969.75V144H3009.55V142ZM2970.56 142.412L2928.96 85.2118L2927.34 86.3882L2968.94 143.588L2970.56 142.412ZM2928.15 84.8H2917.95V86.8H2928.15V84.8ZM2916.95 85.8V143H2918.95V85.8H2916.95ZM2917.95 142H2885.35V144H2917.95V142Z" fill="white"/>
</svg>
