<svg width="1492" height="116" viewBox="0 0 1492 116" fill="none" xmlns="http://www.w3.org/2000/svg">
<path opacity="0.3" d="M77.6 115H76.6V116H77.6V115ZM77.6 24.44H78.6V23.44H77.6V24.44ZM49.44 24.44V23.44H48.476L48.4407 24.4033L49.44 24.44ZM48.8 41.88L47.8007 41.8433L47.8007 41.8438L48.8 41.88ZM44.96 78.36L43.9815 78.1534L43.9794 78.1639L44.96 78.36ZM36.32 100.92L35.503 100.343L36.32 100.92ZM21.6 112.6L21.9567 113.534L21.9657 113.531L21.6 112.6ZM0.48 115.96H-0.52V116.96H0.48V115.96ZM0.48 93.24V92.24H-0.52V93.24H0.48ZM10.24 91L10.7141 91.8805L10.727 91.8735L10.7397 91.8662L10.24 91ZM17.12 82.36L16.212 81.9409L16.2076 81.9506L16.2033 81.9604L17.12 82.36ZM21.6 64.6L20.6111 64.451L20.6095 64.4624L21.6 64.6ZM24 34.2L24.9994 34.2342L24.9994 34.2341L24 34.2ZM25.12 1.39999V0.399994H24.1536L24.1206 1.36587L25.12 1.39999ZM103.84 1.39999H104.84V0.399994H103.84V1.39999ZM103.84 115V116H104.84V115H103.84ZM78.6 115V24.44H76.6V115H78.6ZM77.6 23.44H49.44V25.44H77.6V23.44ZM48.4407 24.4033L47.8007 41.8433L49.7993 41.9167L50.4393 24.4767L48.4407 24.4033ZM47.8007 41.8438C47.2685 56.5319 45.9921 68.6299 43.9816 78.1534L45.9384 78.5666C47.9812 68.8901 49.2649 56.6681 49.7993 41.9162L47.8007 41.8438ZM43.9794 78.1639C42.075 87.6859 39.2339 95.0579 35.503 100.343L37.137 101.497C41.0861 95.9021 44.005 88.2341 45.9406 78.5561L43.9794 78.1639ZM35.503 100.343C31.7712 105.63 27.0188 109.397 21.2344 111.669L21.9657 113.531C28.1279 111.11 33.1888 107.09 37.137 101.497L35.503 100.343ZM21.2433 111.666C15.5196 113.851 8.60699 114.96 0.48 114.96V116.96C8.77968 116.96 15.9471 115.829 21.9567 113.534L21.2433 111.666ZM1.48 115.96V93.24H-0.52V115.96H1.48ZM0.48 94.24C4.3482 94.24 7.77028 93.4656 10.7141 91.8805L9.7659 90.1195C7.16305 91.5211 4.07847 92.24 0.48 92.24V94.24ZM10.7397 91.8662C13.7615 90.1229 16.1725 87.0363 18.0367 82.7596L16.2033 81.9604C14.4409 86.0037 12.2652 88.6771 9.74028 90.1338L10.7397 91.8662ZM18.028 82.7791C20.0079 78.4892 21.5183 72.4575 22.5905 64.7376L20.6095 64.4624C19.5484 72.1025 18.0721 77.9108 16.212 81.9409L18.028 82.7791ZM22.5888 64.749C23.7702 56.909 24.5721 46.7332 24.9994 34.2342L23.0006 34.1658C22.5746 46.6268 21.7765 56.7177 20.6112 64.451L22.5888 64.749ZM24.9994 34.2341L26.1194 1.43412L24.1206 1.36587L23.0006 34.1659L24.9994 34.2341ZM25.12 2.39999H103.84V0.399994H25.12V2.39999ZM102.84 1.39999V115H104.84V1.39999H102.84ZM103.84 114H77.6V116H103.84V114ZM125.63 115H124.63V116H125.63V115ZM125.63 1.39999V0.399994H124.63V1.39999H125.63ZM151.87 1.39999H152.87V0.399994H151.87V1.39999ZM151.87 115V116H152.87V115H151.87ZM126.63 115V1.39999H124.63V115H126.63ZM125.63 2.39999H151.87V0.399994H125.63V2.39999ZM150.87 1.39999V115H152.87V1.39999H150.87ZM151.87 114H125.63V116H151.87V114ZM263.199 115H262.199V116H263.199V115ZM263.199 47.32H264.199L262.303 46.8751L263.199 47.32ZM238.719 96.6V97.6H239.339L239.614 97.0449L238.719 96.6ZM224.319 96.6L223.423 97.0449L223.699 97.6H224.319V96.6ZM199.839 47.32L200.734 46.8751L198.839 47.32H199.839ZM199.839 115V116H200.839V115H199.839ZM173.599 115H172.599V116H173.599V115ZM173.599 1.39999V0.399994H172.599V1.39999H173.599ZM202.079 1.39999L202.975 0.955681L202.699 0.399994H202.079V1.39999ZM231.519 60.76L230.623 61.2043L231.516 63.0058L232.414 61.2062L231.519 60.76ZM261.119 1.39999V0.399994H260.5L260.224 0.953745L261.119 1.39999ZM289.439 1.39999H290.439V0.399994H289.439V1.39999ZM289.439 115V116H290.439V115H289.439ZM264.199 115V47.32H262.199V115H264.199ZM262.303 46.8751L237.823 96.1551L239.614 97.0449L264.094 47.7649L262.303 46.8751ZM238.719 95.6H224.319V97.6H238.719V95.6ZM225.214 96.1551L200.734 46.8751L198.943 47.7649L223.423 97.0449L225.214 96.1551ZM198.839 47.32V115H200.839V47.32H198.839ZM199.839 114H173.599V116H199.839V114ZM174.599 115V1.39999H172.599V115H174.599ZM173.599 2.39999H202.079V0.399994H173.599V2.39999ZM201.183 1.84431L230.623 61.2043L232.415 60.3157L202.975 0.955681L201.183 1.84431ZM232.414 61.2062L262.014 1.84624L260.224 0.953745L230.624 60.3138L232.414 61.2062ZM261.119 2.39999H289.439V0.399994H261.119V2.39999ZM288.439 1.39999V115H290.439V1.39999H288.439ZM289.439 114H263.199V116H289.439V114ZM311.735 115H310.735V116H311.735V115ZM311.735 1.39999V0.399994H310.735V1.39999H311.735ZM406.295 1.39999H407.295V0.399994H406.295V1.39999ZM406.295 115V116H407.295V115H406.295ZM380.055 115H379.055V116H380.055V115ZM380.055 24.44H381.055V23.44H380.055V24.44ZM337.975 24.44V23.44H336.975V24.44H337.975ZM337.975 115V116H338.975V115H337.975ZM312.735 115V1.39999H310.735V115H312.735ZM311.735 2.39999H406.295V0.399994H311.735V2.39999ZM405.295 1.39999V115H407.295V1.39999H405.295ZM406.295 114H380.055V116H406.295V114ZM381.055 115V24.44H379.055V115H381.055ZM380.055 23.44H337.975V25.44H380.055V23.44ZM336.975 24.44V115H338.975V24.44H336.975ZM337.975 114H311.735V116H337.975V114ZM455.159 111.16L454.723 112.06L454.731 112.064L454.74 112.068L455.159 111.16ZM437.399 98.04L436.65 98.7026L436.656 98.7102L436.663 98.7177L437.399 98.04ZM426.039 79.48L425.105 79.839L425.107 79.8438L426.039 79.48ZM426.199 36.44L425.277 36.0513L425.272 36.0636L426.199 36.44ZM438.039 18.2L437.311 17.5146L437.31 17.5151L438.039 18.2ZM456.119 5.39999L455.711 4.48676L456.119 5.39999ZM501.719 5.72L501.283 6.61998L501.291 6.62404L501.3 6.62795L501.719 5.72ZM519.479 18.84L518.73 19.5026L518.737 19.5105L519.479 18.84ZM530.999 37.56L530.065 37.919L530.067 37.9238L530.999 37.56ZM530.839 80.12L529.912 79.7436L530.839 80.12ZM518.999 98.52L519.72 99.2126L519.727 99.2054L518.999 98.52ZM500.919 111.32L501.331 112.231L501.338 112.228L500.919 111.32ZM450.679 71.16L449.723 71.4541L449.725 71.4611L450.679 71.16ZM456.279 82.04L455.485 82.6484L455.491 82.6566L455.498 82.6647L456.279 82.04ZM491.639 89.72L492.096 90.6093L492.106 90.6042L492.116 90.5989L491.639 89.72ZM500.919 81.72L501.722 82.3158L500.919 81.72ZM506.359 70.68L505.403 70.3859L505.401 70.3939L505.398 70.4019L506.359 70.68ZM506.359 45.4L505.405 45.7011L506.359 45.4ZM500.599 34.52L499.808 35.1322L499.813 35.1385L499.818 35.1447L500.599 34.52ZM491.159 26.84L490.722 27.7395L491.159 26.84ZM465.399 27L464.941 26.1106L464.931 26.1162L465.399 27ZM456.119 34.84L455.328 34.2278L455.325 34.2316L456.119 34.84ZM450.519 45.88L449.563 45.5859L449.561 45.5939L449.558 45.6019L450.519 45.88ZM478.359 114.96C469.953 114.96 462.365 113.385 455.578 110.252L454.74 112.068C461.819 115.335 469.698 116.96 478.359 116.96V114.96ZM455.595 110.26C448.878 107.007 443.06 102.708 438.134 97.3623L436.663 98.7177C441.764 104.252 447.786 108.7 454.723 112.06L455.595 110.26ZM438.148 97.3774C433.318 91.9179 429.594 85.8321 426.97 79.1161L425.107 79.8438C427.817 86.7812 431.666 93.0688 436.65 98.7026L438.148 97.3774ZM426.972 79.121C424.349 72.3011 423.039 65.2761 423.039 58.04H421.039C421.039 65.5239 422.395 72.7922 425.105 79.839L426.972 79.121ZM423.039 58.04C423.039 50.592 424.402 43.5201 427.125 36.8164L425.272 36.0636C422.449 43.0132 421.039 50.3413 421.039 58.04H423.039ZM427.12 36.8287C429.955 30.1101 433.836 24.1307 438.767 18.8849L437.31 17.5151C432.214 22.936 428.203 29.1166 425.277 36.0513L427.12 36.8287ZM438.767 18.8854C443.795 13.5434 449.712 9.3535 456.526 6.31322L455.711 4.48676C448.659 7.63316 442.523 11.9766 437.311 17.5146L438.767 18.8854ZM456.526 6.31322C463.321 3.28165 470.754 1.75999 478.839 1.75999V-0.240007C470.497 -0.240007 462.783 1.33167 455.711 4.48676L456.526 6.31322ZM478.839 1.75999C487.131 1.75999 494.607 3.38613 501.283 6.61998L502.155 4.82001C495.178 1.44052 487.4 -0.240007 478.839 -0.240007V1.75999ZM501.3 6.62795C508.111 9.77175 513.918 14.0629 518.73 19.5026L520.228 18.1774C515.226 12.5237 509.193 8.06824 502.138 4.81204L501.3 6.62795ZM518.737 19.5105C523.668 24.9666 527.443 31.1011 530.065 37.919L531.932 37.201C529.221 30.1522 525.316 23.8067 520.221 18.1695L518.737 19.5105ZM530.067 37.9238C532.69 44.6376 533.999 51.501 533.999 58.52H535.999C535.999 51.2456 534.641 44.1358 531.93 37.1961L530.067 37.9238ZM533.999 58.52C533.999 65.968 532.636 73.0398 529.912 79.7436L531.765 80.4964C534.589 73.5468 535.999 66.2187 535.999 58.52H533.999ZM529.912 79.7436C527.186 86.4543 523.307 92.4832 518.271 97.8346L519.727 99.2054C524.93 93.6768 528.945 87.439 531.765 80.4964L529.912 79.7436ZM518.277 97.8275C513.247 103.068 507.323 107.263 500.5 110.412L501.338 112.228C508.381 108.977 514.511 104.639 519.72 99.2125L518.277 97.8275ZM500.506 110.409C493.821 113.438 486.444 114.96 478.359 114.96V116.96C486.701 116.96 494.363 115.388 501.331 112.231L500.506 110.409ZM447.759 58.36C447.759 62.8325 448.414 67.1983 449.723 71.4541L451.635 70.8659C450.384 66.8017 449.759 62.6341 449.759 58.36H447.759ZM449.725 71.4611C451.038 75.6194 452.957 79.3512 455.485 82.6484L457.072 81.4316C454.694 78.3288 452.879 74.8073 451.632 70.8589L449.725 71.4611ZM455.498 82.6647C458.148 85.9774 461.406 88.6265 465.261 90.6093L466.176 88.8307C462.565 86.9735 459.529 84.5026 457.06 81.4153L455.498 82.6647ZM465.261 90.6093C469.155 92.6119 473.583 93.6 478.519 93.6V91.6C473.855 91.6 469.749 90.6681 466.176 88.8307L465.261 90.6093ZM478.519 93.6C483.66 93.6 488.196 92.6149 492.096 90.6093L491.181 88.8307C487.615 90.6651 483.404 91.6 478.519 91.6V93.6ZM492.116 90.5989C495.973 88.505 499.179 85.7432 501.722 82.3158L500.116 81.1242C497.752 84.3101 494.771 86.8817 491.162 88.8411L492.116 90.5989ZM501.722 82.3158C504.248 78.9111 506.114 75.123 507.319 70.9581L505.398 70.4019C504.257 74.3437 502.496 77.9156 500.116 81.1242L501.722 82.3158ZM507.315 70.9741C508.623 66.7207 509.279 62.4084 509.279 58.04H507.279C507.279 62.205 506.654 66.3193 505.403 70.3859L507.315 70.9741ZM509.279 58.04C509.279 53.5675 508.624 49.2524 507.312 45.0989L505.405 45.7011C506.654 49.6542 507.279 53.7658 507.279 58.04H509.279ZM507.312 45.0989C505.997 40.9324 504.02 37.1952 501.38 33.8953L499.818 35.1447C502.298 38.2448 504.161 41.7609 505.405 45.7011L507.312 45.0989ZM501.389 33.9078C498.736 30.4804 495.469 27.8216 491.596 25.9405L490.722 27.7395C494.316 29.485 497.342 31.9463 499.808 35.1322L501.389 33.9078ZM491.596 25.9405C487.709 24.0528 483.344 23.12 478.519 23.12V25.12C483.081 25.12 487.142 26.0005 490.722 27.7395L491.596 25.9405ZM478.519 23.12C473.377 23.12 468.841 24.1051 464.941 26.1107L465.856 27.8893C469.423 26.0549 473.634 25.12 478.519 25.12V23.12ZM464.931 26.1162C461.176 28.1041 457.973 30.8109 455.328 34.2278L456.909 35.4522C459.384 32.2558 462.368 29.7359 465.867 27.8838L464.931 26.1162ZM455.325 34.2316C452.794 37.5331 450.875 41.3214 449.563 45.5859L451.475 46.1741C452.722 42.1186 454.537 38.5469 456.912 35.4484L455.325 34.2316ZM449.558 45.6019C448.358 49.7467 447.759 54.0003 447.759 58.36H449.759C449.759 54.1863 450.332 50.12 451.479 46.1581L449.558 45.6019ZM550.641 115H549.641V116H550.641V115ZM550.641 1.39999V0.399994H549.641V1.39999H550.641ZM645.201 1.39999H646.201V0.399994H645.201V1.39999ZM645.201 115V116H646.201V115H645.201ZM618.961 115H617.961V116H618.961V115ZM618.961 24.44H619.961V23.44H618.961V24.44ZM576.881 24.44V23.44H575.881V24.44H576.881ZM576.881 115V116H577.881V115H576.881ZM551.641 115V1.39999H549.641V115H551.641ZM550.641 2.39999H645.201V0.399994H550.641V2.39999ZM644.201 1.39999V115H646.201V1.39999H644.201ZM645.201 114H618.961V116H645.201V114ZM619.961 115V24.44H617.961V115H619.961ZM618.961 23.44H576.881V25.44H618.961V23.44ZM575.881 24.44V115H577.881V24.44H575.881ZM576.881 114H550.641V116H576.881V114ZM694.065 111.16L693.629 112.06L693.637 112.064L693.646 112.068L694.065 111.16ZM676.305 98.04L675.556 98.7026L675.563 98.7102L675.57 98.7177L676.305 98.04ZM664.945 79.48L664.012 79.839L664.014 79.8438L664.945 79.48ZM665.105 36.44L664.184 36.0513L664.179 36.0636L665.105 36.44ZM676.945 18.2L676.217 17.5146L676.216 17.5151L676.945 18.2ZM695.025 5.39999L694.618 4.48676L695.025 5.39999ZM740.625 5.72L740.189 6.61998L740.197 6.62404L740.206 6.62795L740.625 5.72ZM758.385 18.84L757.636 19.5026L757.643 19.5105L758.385 18.84ZM769.905 37.56L768.972 37.919L768.974 37.9238L769.905 37.56ZM769.745 80.12L768.819 79.7436L769.745 80.12ZM757.905 98.52L758.626 99.2126L758.633 99.2054L757.905 98.52ZM739.825 111.32L740.238 112.231L740.244 112.228L739.825 111.32ZM689.585 71.16L688.629 71.4541L688.631 71.4611L689.585 71.16ZM695.185 82.04L694.391 82.6484L694.398 82.6566L694.404 82.6647L695.185 82.04ZM730.545 89.72L731.002 90.6093L731.012 90.6042L731.022 90.5989L730.545 89.72ZM739.825 81.72L740.628 82.3158L739.825 81.72ZM745.265 70.68L744.309 70.3859L744.307 70.3939L744.304 70.4019L745.265 70.68ZM745.265 45.4L744.311 45.7011L745.265 45.4ZM739.505 34.52L738.714 35.1322L738.719 35.1385L738.724 35.1447L739.505 34.52ZM730.065 26.84L729.628 27.7395L730.065 26.84ZM704.305 27L703.848 26.1106L703.837 26.1162L704.305 27ZM695.025 34.84L694.234 34.2278L694.231 34.2316L695.025 34.84ZM689.425 45.88L688.469 45.5859L688.467 45.5939L688.464 45.6019L689.425 45.88ZM717.265 114.96C708.859 114.96 701.271 113.385 694.484 110.252L693.646 112.068C700.725 115.335 708.604 116.96 717.265 116.96V114.96ZM694.501 110.26C687.784 107.007 681.967 102.708 677.04 97.3623L675.57 98.7177C680.67 104.252 686.692 108.7 693.629 112.06L694.501 110.26ZM677.054 97.3774C672.224 91.9179 668.5 85.8321 665.876 79.1161L664.014 79.8438C666.723 86.7812 670.572 93.0688 675.556 98.7026L677.054 97.3774ZM665.878 79.121C663.255 72.3011 661.945 65.2761 661.945 58.04H659.945C659.945 65.5239 661.301 72.7922 664.012 79.839L665.878 79.121ZM661.945 58.04C661.945 50.592 663.308 43.5201 666.031 36.8164L664.179 36.0636C661.355 43.0132 659.945 50.3413 659.945 58.04H661.945ZM666.026 36.8287C668.861 30.1101 672.743 24.1307 677.674 18.8849L676.216 17.5151C671.121 22.936 667.109 29.1166 664.184 36.0513L666.026 36.8287ZM677.673 18.8854C682.701 13.5434 688.618 9.3535 695.432 6.31322L694.618 4.48676C687.565 7.63316 681.429 11.9766 676.217 17.5146L677.673 18.8854ZM695.432 6.31322C702.227 3.28165 709.66 1.75999 717.745 1.75999V-0.240007C709.403 -0.240007 701.689 1.33167 694.618 4.48676L695.432 6.31322ZM717.745 1.75999C726.038 1.75999 733.513 3.38613 740.189 6.61998L741.061 4.82001C734.084 1.44052 726.306 -0.240007 717.745 -0.240007V1.75999ZM740.206 6.62795C747.018 9.77175 752.824 14.0629 757.636 19.5026L759.134 18.1774C754.133 12.5237 748.099 8.06824 741.044 4.81204L740.206 6.62795ZM757.643 19.5105C762.575 24.9666 766.349 31.1011 768.972 37.919L770.838 37.201C768.127 30.1522 764.222 23.8067 759.127 18.1695L757.643 19.5105ZM768.974 37.9238C771.596 44.6376 772.905 51.501 772.905 58.52H774.905C774.905 51.2456 773.547 44.1358 770.836 37.1961L768.974 37.9238ZM772.905 58.52C772.905 65.968 771.542 73.0398 768.819 79.7436L770.671 80.4964C773.495 73.5468 774.905 66.2187 774.905 58.52H772.905ZM768.819 79.7436C766.092 86.4543 762.213 92.4832 757.177 97.8346L758.633 99.2054C763.837 93.6768 767.851 87.439 770.671 80.4964L768.819 79.7436ZM757.184 97.8275C752.153 103.068 746.23 107.263 739.406 110.412L740.244 112.228C747.287 108.977 753.417 104.639 758.626 99.2125L757.184 97.8275ZM739.412 110.409C732.727 113.438 725.35 114.96 717.265 114.96V116.96C725.607 116.96 733.269 115.388 740.238 112.231L739.412 110.409ZM686.665 58.36C686.665 62.8325 687.32 67.1983 688.629 71.4541L690.541 70.8659C689.29 66.8017 688.665 62.6341 688.665 58.36H686.665ZM688.631 71.4611C689.945 75.6194 691.863 79.3512 694.391 82.6484L695.979 81.4316C693.6 78.3288 691.785 74.8073 690.539 70.8589L688.631 71.4611ZM694.404 82.6647C697.054 85.9774 700.312 88.6265 704.168 90.6093L705.082 88.8307C701.471 86.9735 698.436 84.5026 695.966 81.4153L694.404 82.6647ZM704.168 90.6093C708.062 92.6119 712.489 93.6 717.425 93.6V91.6C712.761 91.6 708.655 90.6681 705.082 88.8307L704.168 90.6093ZM717.425 93.6C722.567 93.6 727.103 92.6149 731.002 90.6093L730.088 88.8307C726.521 90.6651 722.31 91.6 717.425 91.6V93.6ZM731.022 90.5989C734.879 88.505 738.085 85.7432 740.628 82.3158L739.022 81.1242C736.658 84.3101 733.677 86.8817 730.068 88.8411L731.022 90.5989ZM740.628 82.3158C743.154 78.9111 745.02 75.123 746.226 70.9581L744.304 70.4019C743.163 74.3437 741.402 77.9156 739.022 81.1242L740.628 82.3158ZM746.221 70.9741C747.529 66.7207 748.185 62.4084 748.185 58.04H746.185C746.185 62.205 745.56 66.3193 744.309 70.3859L746.221 70.9741ZM748.185 58.04C748.185 53.5675 747.53 49.2524 746.219 45.0989L744.311 45.7011C745.56 49.6542 746.185 53.7658 746.185 58.04H748.185ZM746.219 45.0989C744.903 40.9324 742.926 37.1952 740.286 33.8953L738.724 35.1447C741.204 38.2448 743.067 41.7609 744.311 45.7011L746.219 45.0989ZM740.296 33.9078C737.642 30.4804 734.375 27.8216 730.502 25.9405L729.628 27.7395C733.222 29.485 736.248 31.9463 738.714 35.1322L740.296 33.9078ZM730.502 25.9405C726.616 24.0528 722.25 23.12 717.425 23.12V25.12C721.987 25.12 726.048 26.0005 729.628 27.7395L730.502 25.9405ZM717.425 23.12C712.283 23.12 707.747 24.1051 703.848 26.1107L704.762 27.8893C708.329 26.0549 712.54 25.12 717.425 25.12V23.12ZM703.837 26.1162C700.082 28.1041 696.88 30.8109 694.234 34.2278L695.816 35.4522C698.29 32.2558 701.274 29.7359 704.773 27.8838L703.837 26.1162ZM694.231 34.2316C691.7 37.5331 689.781 41.3214 688.469 45.5859L690.381 46.1741C691.629 42.1186 693.443 38.5469 695.819 35.4484L694.231 34.2316ZM688.464 45.6019C687.265 49.7467 686.665 54.0003 686.665 58.36H688.665C688.665 54.1863 689.239 50.12 690.386 46.1581L688.464 45.6019ZM897.131 115H896.131V116H897.131V115ZM897.131 24.44H898.131V23.44H897.131V24.44ZM868.971 24.44V23.44H868.007L867.972 24.4033L868.971 24.44ZM868.331 41.88L867.332 41.8433V41.8438L868.331 41.88ZM864.491 78.36L863.513 78.1534L863.511 78.1639L864.491 78.36ZM855.851 100.92L855.034 100.343L855.851 100.92ZM841.131 112.6L841.488 113.534L841.497 113.531L841.131 112.6ZM820.011 115.96H819.011V116.96H820.011V115.96ZM820.011 93.24V92.24H819.011V93.24H820.011ZM829.771 91L830.245 91.8805L830.258 91.8735L830.271 91.8662L829.771 91ZM836.651 82.36L835.743 81.9409L835.739 81.9506L835.735 81.9604L836.651 82.36ZM841.131 64.6L840.142 64.451L840.141 64.4624L841.131 64.6ZM843.531 34.2L844.531 34.2342V34.2341L843.531 34.2ZM844.651 1.39999V0.399994H843.685L843.652 1.36587L844.651 1.39999ZM923.371 1.39999H924.371V0.399994H923.371V1.39999ZM923.371 115V116H924.371V115H923.371ZM898.131 115V24.44H896.131V115H898.131ZM897.131 23.44H868.971V25.44H897.131V23.44ZM867.972 24.4033L867.332 41.8433L869.331 41.9167L869.971 24.4767L867.972 24.4033ZM867.332 41.8438C866.8 56.5319 865.523 68.6299 863.513 78.1534L865.47 78.5666C867.513 68.8901 868.796 56.6681 869.331 41.9162L867.332 41.8438ZM863.511 78.1639C861.606 87.6859 858.765 95.0579 855.034 100.343L856.668 101.497C860.617 95.9021 863.536 88.2341 865.472 78.5561L863.511 78.1639ZM855.034 100.343C851.302 105.63 846.55 109.397 840.766 111.669L841.497 113.531C847.659 111.11 852.72 107.09 856.668 101.497L855.034 100.343ZM840.775 111.666C835.051 113.851 828.138 114.96 820.011 114.96V116.96C828.311 116.96 835.478 115.829 841.488 113.534L840.775 111.666ZM821.011 115.96V93.24H819.011V115.96H821.011ZM820.011 94.24C823.879 94.24 827.302 93.4656 830.245 91.8805L829.297 90.1195C826.694 91.5211 823.61 92.24 820.011 92.24V94.24ZM830.271 91.8662C833.293 90.1229 835.704 87.0363 837.568 82.7596L835.735 81.9604C833.972 86.0037 831.796 88.6771 829.272 90.1338L830.271 91.8662ZM837.559 82.7791C839.539 78.4892 841.049 72.4575 842.122 64.7376L840.141 64.4624C839.08 72.1025 837.603 77.9108 835.743 81.9409L837.559 82.7791ZM842.12 64.749C843.301 56.909 844.103 46.7332 844.531 34.2342L842.532 34.1658C842.106 46.6268 841.308 56.7177 840.142 64.451L842.12 64.749ZM844.531 34.2341L845.651 1.43412L843.652 1.36587L842.532 34.1659L844.531 34.2341ZM844.651 2.39999H923.371V0.399994H844.651V2.39999ZM922.371 1.39999V115H924.371V1.39999H922.371ZM923.371 114H897.131V116H923.371V114ZM945.161 115H944.161V116H945.161V115ZM945.161 1.39999V0.399994H944.161V1.39999H945.161ZM971.401 1.39999H972.401V0.399994H971.401V1.39999ZM971.401 115V116H972.401V115H971.401ZM946.161 115V1.39999H944.161V115H946.161ZM945.161 2.39999H971.401V0.399994H945.161V2.39999ZM970.401 1.39999V115H972.401V1.39999H970.401ZM971.401 114H945.161V116H971.401V114ZM1082.73 115H1081.73V116H1082.73V115ZM1082.73 47.32H1083.73L1081.83 46.8751L1082.73 47.32ZM1058.25 96.6V97.6H1058.87L1059.15 97.0449L1058.25 96.6ZM1043.85 96.6L1042.95 97.0449L1043.23 97.6H1043.85V96.6ZM1019.37 47.32L1020.27 46.8751L1018.37 47.32H1019.37ZM1019.37 115V116H1020.37V115H1019.37ZM993.13 115H992.13V116H993.13V115ZM993.13 1.39999V0.399994H992.13V1.39999H993.13ZM1021.61 1.39999L1022.51 0.955681L1022.23 0.399994H1021.61V1.39999ZM1051.05 60.76L1050.15 61.2043L1051.05 63.0058L1051.94 61.2062L1051.05 60.76ZM1080.65 1.39999V0.399994H1080.03L1079.76 0.953745L1080.65 1.39999ZM1108.97 1.39999H1109.97V0.399994H1108.97V1.39999ZM1108.97 115V116H1109.97V115H1108.97ZM1083.73 115V47.32H1081.73V115H1083.73ZM1081.83 46.8751L1057.35 96.1551L1059.15 97.0449L1083.63 47.7649L1081.83 46.8751ZM1058.25 95.6H1043.85V97.6H1058.25V95.6ZM1044.75 96.1551L1020.27 46.8751L1018.47 47.7649L1042.95 97.0449L1044.75 96.1551ZM1018.37 47.32V115H1020.37V47.32H1018.37ZM1019.37 114H993.13V116H1019.37V114ZM994.13 115V1.39999H992.13V115H994.13ZM993.13 2.39999H1021.61V0.399994H993.13V2.39999ZM1020.71 1.84431L1050.15 61.2043L1051.95 60.3157L1022.51 0.955681L1020.71 1.84431ZM1051.94 61.2062L1081.54 1.84624L1079.76 0.953745L1050.16 60.3138L1051.94 61.2062ZM1080.65 2.39999H1108.97V0.399994H1080.65V2.39999ZM1107.97 1.39999V115H1109.97V1.39999H1107.97ZM1108.97 114H1082.73V116H1108.97V114ZM1131.27 115H1130.27V116H1131.27V115ZM1131.27 1.39999V0.399994H1130.27V1.39999H1131.27ZM1225.83 1.39999H1226.83V0.399994H1225.83V1.39999ZM1225.83 115V116H1226.83V115H1225.83ZM1199.59 115H1198.59V116H1199.59V115ZM1199.59 24.44H1200.59V23.44H1199.59V24.44ZM1157.51 24.44V23.44H1156.51V24.44H1157.51ZM1157.51 115V116H1158.51V115H1157.51ZM1132.27 115V1.39999H1130.27V115H1132.27ZM1131.27 2.39999H1225.83V0.399994H1131.27V2.39999ZM1224.83 1.39999V115H1226.83V1.39999H1224.83ZM1225.83 114H1199.59V116H1225.83V114ZM1200.59 115V24.44H1198.59V115H1200.59ZM1199.59 23.44H1157.51V25.44H1199.59V23.44ZM1156.51 24.44V115H1158.51V24.44H1156.51ZM1157.51 114H1131.27V116H1157.51V114ZM1274.69 111.16L1274.25 112.06L1274.26 112.064L1274.27 112.068L1274.69 111.16ZM1256.93 98.04L1256.18 98.7026L1256.19 98.7102L1256.19 98.7177L1256.93 98.04ZM1245.57 79.48L1244.64 79.839L1244.64 79.8438L1245.57 79.48ZM1245.73 36.44L1244.81 36.0513L1244.8 36.0636L1245.73 36.44ZM1257.57 18.2L1256.84 17.5146L1256.84 17.5151L1257.57 18.2ZM1275.65 5.39999L1275.24 4.48676L1275.65 5.39999ZM1321.25 5.72L1320.81 6.61998L1320.82 6.62404L1320.83 6.62795L1321.25 5.72ZM1339.01 18.84L1338.26 19.5026L1338.27 19.5105L1339.01 18.84ZM1350.53 37.56L1349.6 37.919L1349.6 37.9238L1350.53 37.56ZM1350.37 80.12L1349.44 79.7436L1350.37 80.12ZM1338.53 98.52L1339.25 99.2126L1339.26 99.2054L1338.53 98.52ZM1320.45 111.32L1320.86 112.231L1320.87 112.228L1320.45 111.32ZM1270.21 71.16L1269.25 71.4541L1269.26 71.4611L1270.21 71.16ZM1275.81 82.04L1275.02 82.6484L1275.02 82.6566L1275.03 82.6647L1275.81 82.04ZM1311.17 89.72L1311.63 90.6093L1311.64 90.6042L1311.65 90.5989L1311.17 89.72ZM1320.45 81.72L1321.25 82.3158L1320.45 81.72ZM1325.89 70.68L1324.93 70.3859L1324.93 70.3939L1324.93 70.4019L1325.89 70.68ZM1325.89 45.4L1324.94 45.7011L1325.89 45.4ZM1320.13 34.52L1319.34 35.1322L1319.34 35.1385L1319.35 35.1447L1320.13 34.52ZM1310.69 26.84L1310.25 27.7395L1310.69 26.84ZM1284.93 27L1284.47 26.1106L1284.46 26.1162L1284.93 27ZM1275.65 34.84L1274.86 34.2278L1274.86 34.2316L1275.65 34.84ZM1270.05 45.88L1269.09 45.5859L1269.09 45.5939L1269.09 45.6019L1270.05 45.88ZM1297.89 114.96C1289.48 114.96 1281.9 113.385 1275.11 110.252L1274.27 112.068C1281.35 115.335 1289.23 116.96 1297.89 116.96V114.96ZM1275.13 110.26C1268.41 107.007 1262.59 102.708 1257.67 97.3623L1256.19 98.7177C1261.3 104.252 1267.32 108.7 1274.25 112.06L1275.13 110.26ZM1257.68 97.3774C1252.85 91.9179 1249.12 85.8321 1246.5 79.1161L1244.64 79.8438C1247.35 86.7812 1251.2 93.0688 1256.18 98.7026L1257.68 97.3774ZM1246.5 79.121C1243.88 72.3011 1242.57 65.2761 1242.57 58.04H1240.57C1240.57 65.5239 1241.93 72.7922 1244.64 79.839L1246.5 79.121ZM1242.57 58.04C1242.57 50.592 1243.93 43.5201 1246.66 36.8164L1244.8 36.0636C1241.98 43.0132 1240.57 50.3413 1240.57 58.04H1242.57ZM1246.65 36.8287C1249.49 30.1101 1253.37 24.1307 1258.3 18.8849L1256.84 17.5151C1251.75 22.936 1247.73 29.1166 1244.81 36.0513L1246.65 36.8287ZM1258.3 18.8854C1263.33 13.5434 1269.24 9.3535 1276.06 6.31322L1275.24 4.48676C1268.19 7.63316 1262.05 11.9766 1256.84 17.5146L1258.3 18.8854ZM1276.06 6.31322C1282.85 3.28165 1290.29 1.75999 1298.37 1.75999V-0.240007C1290.03 -0.240007 1282.31 1.33167 1275.24 4.48676L1276.06 6.31322ZM1298.37 1.75999C1306.66 1.75999 1314.14 3.38613 1320.81 6.61998L1321.69 4.82001C1314.71 1.44052 1306.93 -0.240007 1298.37 -0.240007V1.75999ZM1320.83 6.62795C1327.64 9.77175 1333.45 14.0629 1338.26 19.5026L1339.76 18.1774C1334.76 12.5237 1328.72 8.06824 1321.67 4.81204L1320.83 6.62795ZM1338.27 19.5105C1343.2 24.9666 1346.97 31.1011 1349.6 37.919L1351.46 37.201C1348.75 30.1522 1344.85 23.8067 1339.75 18.1695L1338.27 19.5105ZM1349.6 37.9238C1352.22 44.6376 1353.53 51.501 1353.53 58.52H1355.53C1355.53 51.2456 1354.17 44.1358 1351.46 37.1961L1349.6 37.9238ZM1353.53 58.52C1353.53 65.968 1352.17 73.0398 1349.44 79.7436L1351.3 80.4964C1354.12 73.5468 1355.53 66.2187 1355.53 58.52H1353.53ZM1349.44 79.7436C1346.72 86.4543 1342.84 92.4832 1337.8 97.8346L1339.26 99.2054C1344.46 93.6768 1348.48 87.439 1351.3 80.4964L1349.44 79.7436ZM1337.81 97.8275C1332.78 103.068 1326.85 107.263 1320.03 110.412L1320.87 112.228C1327.91 108.977 1334.04 104.639 1339.25 99.2125L1337.81 97.8275ZM1320.04 110.409C1313.35 113.438 1305.97 114.96 1297.89 114.96V116.96C1306.23 116.96 1313.89 115.388 1320.86 112.231L1320.04 110.409ZM1267.29 58.36C1267.29 62.8325 1267.94 67.1983 1269.25 71.4541L1271.17 70.8659C1269.92 66.8017 1269.29 62.6341 1269.29 58.36H1267.29ZM1269.26 71.4611C1270.57 75.6194 1272.49 79.3512 1275.02 82.6484L1276.6 81.4316C1274.22 78.3288 1272.41 74.8073 1271.16 70.8589L1269.26 71.4611ZM1275.03 82.6647C1277.68 85.9774 1280.94 88.6265 1284.79 90.6093L1285.71 88.8307C1282.1 86.9735 1279.06 84.5026 1276.59 81.4153L1275.03 82.6647ZM1284.79 90.6093C1288.69 92.6119 1293.11 93.6 1298.05 93.6V91.6C1293.39 91.6 1289.28 90.6681 1285.71 88.8307L1284.79 90.6093ZM1298.05 93.6C1303.19 93.6 1307.73 92.6149 1311.63 90.6093L1310.71 88.8307C1307.15 90.6651 1302.93 91.6 1298.05 91.6V93.6ZM1311.65 90.5989C1315.5 88.505 1318.71 85.7432 1321.25 82.3158L1319.65 81.1242C1317.28 84.3101 1314.3 86.8817 1310.69 88.8411L1311.65 90.5989ZM1321.25 82.3158C1323.78 78.9111 1325.64 75.123 1326.85 70.9581L1324.93 70.4019C1323.79 74.3437 1322.03 77.9156 1319.65 81.1242L1321.25 82.3158ZM1326.85 70.9741C1328.15 66.7207 1328.81 62.4084 1328.81 58.04H1326.81C1326.81 62.205 1326.19 66.3193 1324.93 70.3859L1326.85 70.9741ZM1328.81 58.04C1328.81 53.5675 1328.16 49.2524 1326.84 45.0989L1324.94 45.7011C1326.18 49.6542 1326.81 53.7658 1326.81 58.04H1328.81ZM1326.84 45.0989C1325.53 40.9324 1323.55 37.1952 1320.91 33.8953L1319.35 35.1447C1321.83 38.2448 1323.69 41.7609 1324.94 45.7011L1326.84 45.0989ZM1320.92 33.9078C1318.27 30.4804 1315 27.8216 1311.13 25.9405L1310.25 27.7395C1313.85 29.485 1316.87 31.9463 1319.34 35.1322L1320.92 33.9078ZM1311.13 25.9405C1307.24 24.0528 1302.87 23.12 1298.05 23.12V25.12C1302.61 25.12 1306.67 26.0005 1310.25 27.7395L1311.13 25.9405ZM1298.05 23.12C1292.91 23.12 1288.37 24.1051 1284.47 26.1107L1285.39 27.8893C1288.95 26.0549 1293.17 25.12 1298.05 25.12V23.12ZM1284.46 26.1162C1280.71 28.1041 1277.5 30.8109 1274.86 34.2278L1276.44 35.4522C1278.92 32.2558 1281.9 29.7359 1285.4 27.8838L1284.46 26.1162ZM1274.86 34.2316C1272.33 37.5331 1270.41 41.3214 1269.09 45.5859L1271.01 46.1741C1272.25 42.1186 1274.07 38.5469 1276.44 35.4484L1274.86 34.2316ZM1269.09 45.6019C1267.89 49.7467 1267.29 54.0003 1267.29 58.36H1269.29C1269.29 54.1863 1269.86 50.12 1271.01 46.1581L1269.09 45.6019ZM1370.17 115H1369.17V116H1370.17V115ZM1370.17 1.39999V0.399994H1369.17V1.39999H1370.17ZM1464.73 1.39999H1465.73V0.399994H1464.73V1.39999ZM1464.73 115V116H1465.73V115H1464.73ZM1438.49 115H1437.49V116H1438.49V115ZM1438.49 24.44H1439.49V23.44H1438.49V24.44ZM1396.41 24.44V23.44H1395.41V24.44H1396.41ZM1396.41 115V116H1397.41V115H1396.41ZM1371.17 115V1.39999H1369.17V115H1371.17ZM1370.17 2.39999H1464.73V0.399994H1370.17V2.39999ZM1463.73 1.39999V115H1465.73V1.39999H1463.73ZM1464.73 114H1438.49V116H1464.73V114ZM1439.49 115V24.44H1437.49V115H1439.49ZM1438.49 23.44H1396.41V25.44H1438.49V23.44ZM1395.41 24.44V115H1397.41V24.44H1395.41ZM1396.41 114H1370.17V116H1396.41V114ZM1513.6 111.16L1513.16 112.06L1513.17 112.064L1513.18 112.068L1513.6 111.16ZM1495.84 98.04L1495.09 98.7026L1495.09 98.7102L1495.1 98.7177L1495.84 98.04ZM1484.48 79.48L1483.54 79.839L1483.54 79.8438L1484.48 79.48ZM1484.64 36.44L1483.71 36.0513L1483.71 36.0636L1484.64 36.44ZM1496.48 18.2L1495.75 17.5146L1495.75 17.5151L1496.48 18.2ZM1514.56 5.39999L1514.15 4.48676L1514.56 5.39999ZM1560.16 5.72L1559.72 6.61998L1559.73 6.62404L1559.74 6.62795L1560.16 5.72ZM1577.92 18.84L1577.17 19.5026L1577.17 19.5105L1577.92 18.84ZM1589.44 37.56L1588.5 37.919L1588.5 37.9238L1589.44 37.56ZM1589.28 80.12L1588.35 79.7436L1589.28 80.12ZM1577.44 98.52L1578.16 99.2126L1578.16 99.2054L1577.44 98.52ZM1559.36 111.32L1559.77 112.231L1559.78 112.228L1559.36 111.32ZM1509.12 71.16L1508.16 71.4541L1508.16 71.4611L1509.12 71.16ZM1514.72 82.04L1513.92 82.6484L1513.93 82.6566L1513.94 82.6647L1514.72 82.04ZM1550.08 89.72L1550.53 90.6093L1550.54 90.6042L1550.55 90.5989L1550.08 89.72ZM1559.36 81.72L1560.16 82.3158L1559.36 81.72ZM1564.8 70.68L1563.84 70.3859L1563.84 70.3939L1563.84 70.4019L1564.8 70.68ZM1564.8 45.4L1563.84 45.7011L1564.8 45.4ZM1559.04 34.52L1558.25 35.1322L1558.25 35.1385L1558.26 35.1447L1559.04 34.52ZM1549.6 26.84L1549.16 27.7395L1549.6 26.84ZM1523.84 27L1523.38 26.1106L1523.37 26.1162L1523.84 27ZM1514.56 34.84L1513.77 34.2278L1513.76 34.2316L1514.56 34.84ZM1508.96 45.88L1508 45.5859L1508 45.5939L1508 45.6019L1508.96 45.88ZM1536.8 114.96C1528.39 114.96 1520.8 113.385 1514.02 110.252L1513.18 112.068C1520.26 115.335 1528.14 116.96 1536.8 116.96V114.96ZM1514.03 110.26C1507.32 107.007 1501.5 102.708 1496.57 97.3623L1495.1 98.7177C1500.2 104.252 1506.22 108.7 1513.16 112.06L1514.03 110.26ZM1496.59 97.3774C1491.76 91.9179 1488.03 85.8321 1485.41 79.1161L1483.54 79.8438C1486.25 86.7812 1490.1 93.0688 1495.09 98.7026L1496.59 97.3774ZM1485.41 79.121C1482.79 72.3011 1481.48 65.2761 1481.48 58.04H1479.48C1479.48 65.5239 1480.83 72.7922 1483.54 79.839L1485.41 79.121ZM1481.48 58.04C1481.48 50.592 1482.84 43.5201 1485.56 36.8164L1483.71 36.0636C1480.89 43.0132 1479.48 50.3413 1479.48 58.04H1481.48ZM1485.56 36.8287C1488.39 30.1101 1492.27 24.1307 1497.2 18.8849L1495.75 17.5151C1490.65 22.936 1486.64 29.1166 1483.71 36.0513L1485.56 36.8287ZM1497.2 18.8854C1502.23 13.5434 1508.15 9.3535 1514.96 6.31322L1514.15 4.48676C1507.1 7.63316 1500.96 11.9766 1495.75 17.5146L1497.2 18.8854ZM1514.96 6.31322C1521.76 3.28165 1529.19 1.75999 1537.28 1.75999V-0.240007C1528.93 -0.240007 1521.22 1.33167 1514.15 4.48676L1514.96 6.31322ZM1537.28 1.75999C1545.57 1.75999 1553.04 3.38613 1559.72 6.61998L1560.59 4.82001C1553.62 1.44052 1545.84 -0.240007 1537.28 -0.240007V1.75999ZM1559.74 6.62795C1566.55 9.77175 1572.36 14.0629 1577.17 19.5026L1578.67 18.1774C1573.66 12.5237 1567.63 8.06824 1560.58 4.81204L1559.74 6.62795ZM1577.17 19.5105C1582.11 24.9666 1585.88 31.1011 1588.5 37.919L1590.37 37.201C1587.66 30.1522 1583.75 23.8067 1578.66 18.1695L1577.17 19.5105ZM1588.5 37.9238C1591.13 44.6376 1592.44 51.501 1592.44 58.52H1594.44C1594.44 51.2456 1593.08 44.1358 1590.37 37.1961L1588.5 37.9238ZM1592.44 58.52C1592.44 65.968 1591.07 73.0398 1588.35 79.7436L1590.2 80.4964C1593.03 73.5468 1594.44 66.2187 1594.44 58.52H1592.44ZM1588.35 79.7436C1585.62 86.4543 1581.74 92.4832 1576.71 97.8346L1578.16 99.2054C1583.37 93.6768 1587.38 87.439 1590.2 80.4964L1588.35 79.7436ZM1576.71 97.8275C1571.68 103.068 1565.76 107.263 1558.94 110.412L1559.78 112.228C1566.82 108.977 1572.95 104.639 1578.16 99.2125L1576.71 97.8275ZM1558.94 110.409C1552.26 113.438 1544.88 114.96 1536.8 114.96V116.96C1545.14 116.96 1552.8 115.388 1559.77 112.231L1558.94 110.409ZM1506.2 58.36C1506.2 62.8325 1506.85 67.1983 1508.16 71.4541L1510.07 70.8659C1508.82 66.8017 1508.2 62.6341 1508.2 58.36H1506.2ZM1508.16 71.4611C1509.48 75.6194 1511.39 79.3512 1513.92 82.6484L1515.51 81.4316C1513.13 78.3288 1511.32 74.8073 1510.07 70.8589L1508.16 71.4611ZM1513.94 82.6647C1516.59 85.9774 1519.84 88.6265 1523.7 90.6093L1524.61 88.8307C1521 86.9735 1517.97 84.5026 1515.5 81.4153L1513.94 82.6647ZM1523.7 90.6093C1527.59 92.6119 1532.02 93.6 1536.96 93.6V91.6C1532.29 91.6 1528.19 90.6681 1524.61 88.8307L1523.7 90.6093ZM1536.96 93.6C1542.1 93.6 1546.63 92.6149 1550.53 90.6093L1549.62 88.8307C1546.05 90.6651 1541.84 91.6 1536.96 91.6V93.6ZM1550.55 90.5989C1554.41 88.505 1557.62 85.7432 1560.16 82.3158L1558.55 81.1242C1556.19 84.3101 1553.21 86.8817 1549.6 88.8411L1550.55 90.5989ZM1560.16 82.3158C1562.69 78.9111 1564.55 75.123 1565.76 70.9581L1563.84 70.4019C1562.69 74.3437 1560.93 77.9156 1558.55 81.1242L1560.16 82.3158ZM1565.75 70.9741C1567.06 66.7207 1567.72 62.4084 1567.72 58.04H1565.72C1565.72 62.205 1565.09 66.3193 1563.84 70.3859L1565.75 70.9741ZM1567.72 58.04C1567.72 53.5675 1567.06 49.2524 1565.75 45.0989L1563.84 45.7011C1565.09 49.6542 1565.72 53.7658 1565.72 58.04H1567.72ZM1565.75 45.0989C1564.43 40.9324 1562.46 37.1952 1559.82 33.8953L1558.26 35.1447C1560.74 38.2448 1562.6 41.7609 1563.84 45.7011L1565.75 45.0989ZM1559.83 33.9078C1557.17 30.4804 1553.91 27.8216 1550.03 25.9405L1549.16 27.7395C1552.75 29.485 1555.78 31.9463 1558.25 35.1322L1559.83 33.9078ZM1550.03 25.9405C1546.15 24.0528 1541.78 23.12 1536.96 23.12V25.12C1541.52 25.12 1545.58 26.0005 1549.16 27.7395L1550.03 25.9405ZM1536.96 23.12C1531.81 23.12 1527.28 24.1051 1523.38 26.1107L1524.29 27.8893C1527.86 26.0549 1532.07 25.12 1536.96 25.12V23.12ZM1523.37 26.1162C1519.61 28.1041 1516.41 30.8109 1513.77 34.2278L1515.35 35.4522C1517.82 32.2558 1520.81 29.7359 1524.3 27.8838L1523.37 26.1162ZM1513.76 34.2316C1511.23 37.5331 1509.31 41.3214 1508 45.5859L1509.91 46.1741C1511.16 42.1186 1512.97 38.5469 1515.35 35.4484L1513.76 34.2316ZM1508 45.6019C1506.8 49.7467 1506.2 54.0003 1506.2 58.36H1508.2C1508.2 54.1863 1508.77 50.12 1509.92 46.1581L1508 45.6019ZM1716.66 115H1715.66V116H1716.66V115ZM1716.66 24.44H1717.66V23.44H1716.66V24.44ZM1688.5 24.44V23.44H1687.54L1687.5 24.4033L1688.5 24.44ZM1687.86 41.88L1686.86 41.8433V41.8438L1687.86 41.88ZM1684.02 78.36L1683.04 78.1534L1683.04 78.1639L1684.02 78.36ZM1675.38 100.92L1674.57 100.343L1675.38 100.92ZM1660.66 112.6L1661.02 113.534L1661.03 113.531L1660.66 112.6ZM1639.54 115.96H1638.54V116.96H1639.54V115.96ZM1639.54 93.24V92.24H1638.54V93.24H1639.54ZM1649.3 91L1649.78 91.8805L1649.79 91.8735L1649.8 91.8662L1649.3 91ZM1656.18 82.36L1655.27 81.9409L1655.27 81.9506L1655.27 81.9604L1656.18 82.36ZM1660.66 64.6L1659.67 64.451L1659.67 64.4624L1660.66 64.6ZM1663.06 34.2L1664.06 34.2342V34.2341L1663.06 34.2ZM1664.18 1.39999V0.399994H1663.22L1663.18 1.36587L1664.18 1.39999ZM1742.9 1.39999H1743.9V0.399994H1742.9V1.39999ZM1742.9 115V116H1743.9V115H1742.9ZM1717.66 115V24.44H1715.66V115H1717.66ZM1716.66 23.44H1688.5V25.44H1716.66V23.44ZM1687.5 24.4033L1686.86 41.8433L1688.86 41.9167L1689.5 24.4767L1687.5 24.4033ZM1686.86 41.8438C1686.33 56.5319 1685.05 68.6299 1683.04 78.1534L1685 78.5666C1687.04 68.8901 1688.33 56.6681 1688.86 41.9162L1686.86 41.8438ZM1683.04 78.1639C1681.14 87.6859 1678.3 95.0579 1674.57 100.343L1676.2 101.497C1680.15 95.9021 1683.07 88.2341 1685 78.5561L1683.04 78.1639ZM1674.57 100.343C1670.83 105.63 1666.08 109.397 1660.3 111.669L1661.03 113.531C1667.19 111.11 1672.25 107.09 1676.2 101.497L1674.57 100.343ZM1660.31 111.666C1654.58 113.851 1647.67 114.96 1639.54 114.96V116.96C1647.84 116.96 1655.01 115.829 1661.02 113.534L1660.31 111.666ZM1640.54 115.96V93.24H1638.54V115.96H1640.54ZM1639.54 94.24C1643.41 94.24 1646.83 93.4656 1649.78 91.8805L1648.83 90.1195C1646.23 91.5211 1643.14 92.24 1639.54 92.24V94.24ZM1649.8 91.8662C1652.82 90.1229 1655.23 87.0363 1657.1 82.7596L1655.27 81.9604C1653.5 86.0037 1651.33 88.6771 1648.8 90.1338L1649.8 91.8662ZM1657.09 82.7791C1659.07 78.4892 1660.58 72.4575 1661.65 64.7376L1659.67 64.4624C1658.61 72.1025 1657.13 77.9108 1655.27 81.9409L1657.09 82.7791ZM1661.65 64.749C1662.83 56.909 1663.63 46.7332 1664.06 34.2342L1662.06 34.1658C1661.64 46.6268 1660.84 56.7177 1659.67 64.451L1661.65 64.749ZM1664.06 34.2341L1665.18 1.43412L1663.18 1.36587L1662.06 34.1659L1664.06 34.2341ZM1664.18 2.39999H1742.9V0.399994H1664.18V2.39999ZM1741.9 1.39999V115H1743.9V1.39999H1741.9ZM1742.9 114H1716.66V116H1742.9V114ZM1764.69 115H1763.69V116H1764.69V115ZM1764.69 1.39999V0.399994H1763.69V1.39999H1764.69ZM1790.93 1.39999H1791.93V0.399994H1790.93V1.39999ZM1790.93 115V116H1791.93V115H1790.93ZM1765.69 115V1.39999H1763.69V115H1765.69ZM1764.69 2.39999H1790.93V0.399994H1764.69V2.39999ZM1789.93 1.39999V115H1791.93V1.39999H1789.93ZM1790.93 114H1764.69V116H1790.93V114ZM1902.26 115H1901.26V116H1902.26V115ZM1902.26 47.32H1903.26L1901.37 46.8751L1902.26 47.32ZM1877.78 96.6V97.6H1878.4L1878.68 97.0449L1877.78 96.6ZM1863.38 96.6L1862.49 97.0449L1862.76 97.6H1863.38V96.6ZM1838.9 47.32L1839.8 46.8751L1837.9 47.32H1838.9ZM1838.9 115V116H1839.9V115H1838.9ZM1812.66 115H1811.66V116H1812.66V115ZM1812.66 1.39999V0.399994H1811.66V1.39999H1812.66ZM1841.14 1.39999L1842.04 0.955681L1841.76 0.399994H1841.14V1.39999ZM1870.58 60.76L1869.69 61.2043L1870.58 63.0058L1871.48 61.2062L1870.58 60.76ZM1900.18 1.39999V0.399994H1899.56L1899.29 0.953745L1900.18 1.39999ZM1928.5 1.39999H1929.5V0.399994H1928.5V1.39999ZM1928.5 115V116H1929.5V115H1928.5ZM1903.26 115V47.32H1901.26V115H1903.26ZM1901.37 46.8751L1876.89 96.1551L1878.68 97.0449L1903.16 47.7649L1901.37 46.8751ZM1877.78 95.6H1863.38V97.6H1877.78V95.6ZM1864.28 96.1551L1839.8 46.8751L1838.01 47.7649L1862.49 97.0449L1864.28 96.1551ZM1837.9 47.32V115H1839.9V47.32H1837.9ZM1838.9 114H1812.66V116H1838.9V114ZM1813.66 115V1.39999H1811.66V115H1813.66ZM1812.66 2.39999H1841.14V0.399994H1812.66V2.39999ZM1840.25 1.84431L1869.69 61.2043L1871.48 60.3157L1842.04 0.955681L1840.25 1.84431ZM1871.48 61.2062L1901.08 1.84624L1899.29 0.953745L1869.69 60.3138L1871.48 61.2062ZM1900.18 2.39999H1928.5V0.399994H1900.18V2.39999ZM1927.5 1.39999V115H1929.5V1.39999H1927.5ZM1928.5 114H1902.26V116H1928.5V114ZM1950.8 115H1949.8V116H1950.8V115ZM1950.8 1.39999V0.399994H1949.8V1.39999H1950.8ZM2045.36 1.39999H2046.36V0.399994H2045.36V1.39999ZM2045.36 115V116H2046.36V115H2045.36ZM2019.12 115H2018.12V116H2019.12V115ZM2019.12 24.44H2020.12V23.44H2019.12V24.44ZM1977.04 24.44V23.44H1976.04V24.44H1977.04ZM1977.04 115V116H1978.04V115H1977.04ZM1951.8 115V1.39999H1949.8V115H1951.8ZM1950.8 2.39999H2045.36V0.399994H1950.8V2.39999ZM2044.36 1.39999V115H2046.36V1.39999H2044.36ZM2045.36 114H2019.12V116H2045.36V114ZM2020.12 115V24.44H2018.12V115H2020.12ZM2019.12 23.44H1977.04V25.44H2019.12V23.44ZM1976.04 24.44V115H1978.04V24.44H1976.04ZM1977.04 114H1950.8V116H1977.04V114ZM2094.22 111.16L2093.79 112.06L2093.79 112.064L2093.8 112.068L2094.22 111.16ZM2076.46 98.04L2075.71 98.7026L2075.72 98.7102L2075.73 98.7177L2076.46 98.04ZM2065.1 79.48L2064.17 79.839L2064.17 79.8438L2065.1 79.48ZM2065.26 36.44L2064.34 36.0513L2064.33 36.0636L2065.26 36.44ZM2077.1 18.2L2076.37 17.5146L2076.37 17.5151L2077.1 18.2ZM2095.18 5.39999L2094.77 4.48676L2095.18 5.39999ZM2140.78 5.72L2140.35 6.61998L2140.35 6.62404L2140.36 6.62795L2140.78 5.72ZM2158.54 18.84L2157.79 19.5026L2157.8 19.5105L2158.54 18.84ZM2170.06 37.56L2169.13 37.919L2169.13 37.9238L2170.06 37.56ZM2169.9 80.12L2168.97 79.7436L2169.9 80.12ZM2158.06 98.52L2158.78 99.2126L2158.79 99.2054L2158.06 98.52ZM2139.98 111.32L2140.39 112.231L2140.4 112.228L2139.98 111.32ZM2089.74 71.16L2088.79 71.4541L2088.79 71.4611L2089.74 71.16ZM2095.34 82.04L2094.55 82.6484L2094.55 82.6566L2094.56 82.6647L2095.34 82.04ZM2130.7 89.72L2131.16 90.6093L2131.17 90.6042L2131.18 90.5989L2130.7 89.72ZM2139.98 81.72L2140.78 82.3158L2139.98 81.72ZM2145.42 70.68L2144.47 70.3859L2144.46 70.3939L2144.46 70.4019L2145.42 70.68ZM2145.42 45.4L2144.47 45.7011L2145.42 45.4ZM2139.66 34.52L2138.87 35.1322L2138.88 35.1385L2138.88 35.1447L2139.66 34.52ZM2130.22 26.84L2129.78 27.7395L2130.22 26.84ZM2104.46 27L2104 26.1106L2103.99 26.1162L2104.46 27ZM2095.18 34.84L2094.39 34.2278L2094.39 34.2316L2095.18 34.84ZM2089.58 45.88L2088.63 45.5859L2088.62 45.5939L2088.62 45.6019L2089.58 45.88ZM2117.42 114.96C2109.02 114.96 2101.43 113.385 2094.64 110.252L2093.8 112.068C2100.88 115.335 2108.76 116.96 2117.42 116.96V114.96ZM2094.66 110.26C2087.94 107.007 2082.12 102.708 2077.2 97.3623L2075.73 98.7177C2080.83 104.252 2086.85 108.7 2093.79 112.06L2094.66 110.26ZM2077.21 97.3774C2072.38 91.9179 2068.66 85.8321 2066.03 79.1161L2064.17 79.8438C2066.88 86.7812 2070.73 93.0688 2075.71 98.7026L2077.21 97.3774ZM2066.03 79.121C2063.41 72.3011 2062.1 65.2761 2062.1 58.04H2060.1C2060.1 65.5239 2061.46 72.7922 2064.17 79.839L2066.03 79.121ZM2062.1 58.04C2062.1 50.592 2063.46 43.5201 2066.19 36.8164L2064.33 36.0636C2061.51 43.0132 2060.1 50.3413 2060.1 58.04H2062.1ZM2066.18 36.8287C2069.02 30.1101 2072.9 24.1307 2077.83 18.8849L2076.37 17.5151C2071.28 22.936 2067.27 29.1166 2064.34 36.0513L2066.18 36.8287ZM2077.83 18.8854C2082.86 13.5434 2088.77 9.3535 2095.59 6.31322L2094.77 4.48676C2087.72 7.63316 2081.59 11.9766 2076.37 17.5146L2077.83 18.8854ZM2095.59 6.31322C2102.38 3.28165 2109.82 1.75999 2117.9 1.75999V-0.240007C2109.56 -0.240007 2101.85 1.33167 2094.77 4.48676L2095.59 6.31322ZM2117.9 1.75999C2126.19 1.75999 2133.67 3.38613 2140.35 6.61998L2141.22 4.82001C2134.24 1.44052 2126.46 -0.240007 2117.9 -0.240007V1.75999ZM2140.36 6.62795C2147.17 9.77175 2152.98 14.0629 2157.79 19.5026L2159.29 18.1774C2154.29 12.5237 2148.26 8.06824 2141.2 4.81204L2140.36 6.62795ZM2157.8 19.5105C2162.73 24.9666 2166.51 31.1011 2169.13 37.919L2170.99 37.201C2168.28 30.1522 2164.38 23.8067 2159.28 18.1695L2157.8 19.5105ZM2169.13 37.9238C2171.75 44.6376 2173.06 51.501 2173.06 58.52H2175.06C2175.06 51.2456 2173.7 44.1358 2170.99 37.1961L2169.13 37.9238ZM2173.06 58.52C2173.06 65.968 2171.7 73.0398 2168.97 79.7436L2170.83 80.4964C2173.65 73.5468 2175.06 66.2187 2175.06 58.52H2173.06ZM2168.97 79.7436C2166.25 86.4543 2162.37 92.4832 2157.33 97.8346L2158.79 99.2054C2163.99 93.6768 2168.01 87.439 2170.83 80.4964L2168.97 79.7436ZM2157.34 97.8275C2152.31 103.068 2146.39 107.263 2139.56 110.412L2140.4 112.228C2147.44 108.977 2153.57 104.639 2158.78 99.2125L2157.34 97.8275ZM2139.57 110.409C2132.88 113.438 2125.51 114.96 2117.42 114.96V116.96C2125.76 116.96 2133.43 115.388 2140.39 112.231L2139.57 110.409ZM2086.82 58.36C2086.82 62.8325 2087.48 67.1983 2088.79 71.4541L2090.7 70.8659C2089.45 66.8017 2088.82 62.6341 2088.82 58.36H2086.82ZM2088.79 71.4611C2090.1 75.6194 2092.02 79.3512 2094.55 82.6484L2096.13 81.4316C2093.76 78.3288 2091.94 74.8073 2090.69 70.8589L2088.79 71.4611ZM2094.56 82.6647C2097.21 85.9774 2100.47 88.6265 2104.32 90.6093L2105.24 88.8307C2101.63 86.9735 2098.59 84.5026 2096.12 81.4153L2094.56 82.6647ZM2104.32 90.6093C2108.22 92.6119 2112.65 93.6 2117.58 93.6V91.6C2112.92 91.6 2108.81 90.6681 2105.24 88.8307L2104.32 90.6093ZM2117.58 93.6C2122.72 93.6 2127.26 92.6149 2131.16 90.6093L2130.24 88.8307C2126.68 90.6651 2122.47 91.6 2117.58 91.6V93.6ZM2131.18 90.5989C2135.04 88.505 2138.24 85.7432 2140.78 82.3158L2139.18 81.1242C2136.81 84.3101 2133.83 86.8817 2130.22 88.8411L2131.18 90.5989ZM2140.78 82.3158C2143.31 78.9111 2145.18 75.123 2146.38 70.9581L2144.46 70.4019C2143.32 74.3437 2141.56 77.9156 2139.18 81.1242L2140.78 82.3158ZM2146.38 70.9741C2147.69 66.7207 2148.34 62.4084 2148.34 58.04H2146.34C2146.34 62.205 2145.72 66.3193 2144.47 70.3859L2146.38 70.9741ZM2148.34 58.04C2148.34 53.5675 2147.69 49.2524 2146.37 45.0989L2144.47 45.7011C2145.72 49.6542 2146.34 53.7658 2146.34 58.04H2148.34ZM2146.37 45.0989C2145.06 40.9324 2143.08 37.1952 2140.44 33.8953L2138.88 35.1447C2141.36 38.2448 2143.22 41.7609 2144.47 45.7011L2146.37 45.0989ZM2140.45 33.9078C2137.8 30.4804 2134.53 27.8216 2130.66 25.9405L2129.78 27.7395C2133.38 29.485 2136.4 31.9463 2138.87 35.1322L2140.45 33.9078ZM2130.66 25.9405C2126.77 24.0528 2122.41 23.12 2117.58 23.12V25.12C2122.14 25.12 2126.2 26.0005 2129.78 27.7395L2130.66 25.9405ZM2117.58 23.12C2112.44 23.12 2107.9 24.1051 2104 26.1107L2104.92 27.8893C2108.49 26.0549 2112.7 25.12 2117.58 25.12V23.12ZM2103.99 26.1162C2100.24 28.1041 2097.04 30.8109 2094.39 34.2278L2095.97 35.4522C2098.45 32.2558 2101.43 29.7359 2104.93 27.8838L2103.99 26.1162ZM2094.39 34.2316C2091.86 37.5331 2089.94 41.3214 2088.63 45.5859L2090.54 46.1741C2091.78 42.1186 2093.6 38.5469 2095.97 35.4484L2094.39 34.2316ZM2088.62 45.6019C2087.42 49.7467 2086.82 54.0003 2086.82 58.36H2088.82C2088.82 54.1863 2089.4 50.12 2090.54 46.1581L2088.62 45.6019ZM2189.7 115H2188.7V116H2189.7V115ZM2189.7 1.39999V0.399994H2188.7V1.39999H2189.7ZM2284.26 1.39999H2285.26V0.399994H2284.26V1.39999ZM2284.26 115V116H2285.26V115H2284.26ZM2258.02 115H2257.02V116H2258.02V115ZM2258.02 24.44H2259.02V23.44H2258.02V24.44ZM2215.94 24.44V23.44H2214.94V24.44H2215.94ZM2215.94 115V116H2216.94V115H2215.94ZM2190.7 115V1.39999H2188.7V115H2190.7ZM2189.7 2.39999H2284.26V0.399994H2189.7V2.39999ZM2283.26 1.39999V115H2285.26V1.39999H2283.26ZM2284.26 114H2258.02V116H2284.26V114ZM2259.02 115V24.44H2257.02V115H2259.02ZM2258.02 23.44H2215.94V25.44H2258.02V23.44ZM2214.94 24.44V115H2216.94V24.44H2214.94ZM2215.94 114H2189.7V116H2215.94V114ZM2333.13 111.16L2332.69 112.06L2332.7 112.064L2332.71 112.068L2333.13 111.16ZM2315.37 98.04L2314.62 98.7026L2314.63 98.7102L2314.63 98.7177L2315.37 98.04ZM2304.01 79.48L2303.07 79.839L2303.08 79.8438L2304.01 79.48ZM2304.17 36.44L2303.25 36.0513L2303.24 36.0636L2304.17 36.44ZM2316.01 18.2L2315.28 17.5146L2315.28 17.5151L2316.01 18.2ZM2334.09 5.39999L2333.68 4.48676L2334.09 5.39999ZM2379.69 5.72L2379.25 6.61998L2379.26 6.62404L2379.27 6.62795L2379.69 5.72ZM2397.45 18.84L2396.7 19.5026L2396.71 19.5105L2397.45 18.84ZM2408.97 37.56L2408.03 37.919L2408.04 37.9238L2408.97 37.56ZM2408.81 80.12L2407.88 79.7436L2408.81 80.12ZM2396.97 98.52L2397.69 99.2126L2397.7 99.2054L2396.97 98.52ZM2378.89 111.32L2379.3 112.231L2379.31 112.228L2378.89 111.32ZM2328.65 71.16L2327.69 71.4541L2327.69 71.4611L2328.65 71.16ZM2334.25 82.04L2333.45 82.6484L2333.46 82.6566L2333.47 82.6647L2334.25 82.04ZM2369.61 89.72L2370.06 90.6093L2370.07 90.6042L2370.08 90.5989L2369.61 89.72ZM2378.89 81.72L2379.69 82.3158L2378.89 81.72ZM2384.33 70.68L2383.37 70.3859L2383.37 70.3939L2383.37 70.4019L2384.33 70.68ZM2384.33 45.4L2383.37 45.7011L2384.33 45.4ZM2378.57 34.52L2377.78 35.1322L2377.78 35.1385L2377.79 35.1447L2378.57 34.52ZM2369.13 26.84L2368.69 27.7395L2369.13 26.84ZM2343.37 27L2342.91 26.1106L2342.9 26.1162L2343.37 27ZM2334.09 34.84L2333.3 34.2278L2333.29 34.2316L2334.09 34.84ZM2328.49 45.88L2327.53 45.5859L2327.53 45.5939L2327.53 45.6019L2328.49 45.88ZM2356.33 114.96C2347.92 114.96 2340.33 113.385 2333.55 110.252L2332.71 112.068C2339.79 115.335 2347.67 116.96 2356.33 116.96V114.96ZM2333.56 110.26C2326.85 107.007 2321.03 102.708 2316.1 97.3623L2314.63 98.7177C2319.73 104.252 2325.75 108.7 2332.69 112.06L2333.56 110.26ZM2316.12 97.3774C2311.29 91.9179 2307.56 85.8321 2304.94 79.1161L2303.08 79.8438C2305.79 86.7812 2309.63 93.0688 2314.62 98.7026L2316.12 97.3774ZM2304.94 79.121C2302.32 72.3011 2301.01 65.2761 2301.01 58.04H2299.01C2299.01 65.5239 2300.36 72.7922 2303.07 79.839L2304.94 79.121ZM2301.01 58.04C2301.01 50.592 2302.37 43.5201 2305.09 36.8164L2303.24 36.0636C2300.42 43.0132 2299.01 50.3413 2299.01 58.04H2301.01ZM2305.09 36.8287C2307.92 30.1101 2311.81 24.1307 2316.74 18.8849L2315.28 17.5151C2310.18 22.936 2306.17 29.1166 2303.25 36.0513L2305.09 36.8287ZM2316.74 18.8854C2321.76 13.5434 2327.68 9.3535 2334.49 6.31322L2333.68 4.48676C2326.63 7.63316 2320.49 11.9766 2315.28 17.5146L2316.74 18.8854ZM2334.49 6.31322C2341.29 3.28165 2348.72 1.75999 2356.81 1.75999V-0.240007C2348.47 -0.240007 2340.75 1.33167 2333.68 4.48676L2334.49 6.31322ZM2356.81 1.75999C2365.1 1.75999 2372.58 3.38613 2379.25 6.61998L2380.12 4.82001C2373.15 1.44052 2365.37 -0.240007 2356.81 -0.240007V1.75999ZM2379.27 6.62795C2386.08 9.77175 2391.89 14.0629 2396.7 19.5026L2398.2 18.1774C2393.2 12.5237 2387.16 8.06824 2380.11 4.81204L2379.27 6.62795ZM2396.71 19.5105C2401.64 24.9666 2405.41 31.1011 2408.03 37.919L2409.9 37.201C2407.19 30.1522 2403.28 23.8067 2398.19 18.1695L2396.71 19.5105ZM2408.04 37.9238C2410.66 44.6376 2411.97 51.501 2411.97 58.52H2413.97C2413.97 51.2456 2412.61 44.1358 2409.9 37.1961L2408.04 37.9238ZM2411.97 58.52C2411.97 65.968 2410.6 73.0398 2407.88 79.7436L2409.73 80.4964C2412.56 73.5468 2413.97 66.2187 2413.97 58.52H2411.97ZM2407.88 79.7436C2405.15 86.4543 2401.28 92.4832 2396.24 97.8346L2397.7 99.2054C2402.9 93.6768 2406.91 87.439 2409.73 80.4964L2407.88 79.7436ZM2396.25 97.8275C2391.22 103.068 2385.29 107.263 2378.47 110.412L2379.31 112.228C2386.35 108.977 2392.48 104.639 2397.69 99.2125L2396.25 97.8275ZM2378.47 110.409C2371.79 113.438 2364.41 114.96 2356.33 114.96V116.96C2364.67 116.96 2372.33 115.388 2379.3 112.231L2378.47 110.409ZM2325.73 58.36C2325.73 62.8325 2326.38 67.1983 2327.69 71.4541L2329.6 70.8659C2328.35 66.8017 2327.73 62.6341 2327.73 58.36H2325.73ZM2327.69 71.4611C2329.01 75.6194 2330.93 79.3512 2333.45 82.6484L2335.04 81.4316C2332.66 78.3288 2330.85 74.8073 2329.6 70.8589L2327.69 71.4611ZM2333.47 82.6647C2336.12 85.9774 2339.37 88.6265 2343.23 90.6093L2344.14 88.8307C2340.53 86.9735 2337.5 84.5026 2335.03 81.4153L2333.47 82.6647ZM2343.23 90.6093C2347.12 92.6119 2351.55 93.6 2356.49 93.6V91.6C2351.82 91.6 2347.72 90.6681 2344.14 88.8307L2343.23 90.6093ZM2356.49 93.6C2361.63 93.6 2366.17 92.6149 2370.06 90.6093L2369.15 88.8307C2365.58 90.6651 2361.37 91.6 2356.49 91.6V93.6ZM2370.08 90.5989C2373.94 88.505 2377.15 85.7432 2379.69 82.3158L2378.08 81.1242C2375.72 84.3101 2372.74 86.8817 2369.13 88.8411L2370.08 90.5989ZM2379.69 82.3158C2382.22 78.9111 2384.08 75.123 2385.29 70.9581L2383.37 70.4019C2382.23 74.3437 2380.46 77.9156 2378.08 81.1242L2379.69 82.3158ZM2385.28 70.9741C2386.59 66.7207 2387.25 62.4084 2387.25 58.04H2385.25C2385.25 62.205 2384.62 66.3193 2383.37 70.3859L2385.28 70.9741ZM2387.25 58.04C2387.25 53.5675 2386.59 49.2524 2385.28 45.0989L2383.37 45.7011C2384.62 49.6542 2385.25 53.7658 2385.25 58.04H2387.25ZM2385.28 45.0989C2383.97 40.9324 2381.99 37.1952 2379.35 33.8953L2377.79 35.1447C2380.27 38.2448 2382.13 41.7609 2383.37 45.7011L2385.28 45.0989ZM2379.36 33.9078C2376.7 30.4804 2373.44 27.8216 2369.56 25.9405L2368.69 27.7395C2372.28 29.485 2375.31 31.9463 2377.78 35.1322L2379.36 33.9078ZM2369.56 25.9405C2365.68 24.0528 2361.31 23.12 2356.49 23.12V25.12C2361.05 25.12 2365.11 26.0005 2368.69 27.7395L2369.56 25.9405ZM2356.49 23.12C2351.35 23.12 2346.81 24.1051 2342.91 26.1107L2343.82 27.8893C2347.39 26.0549 2351.6 25.12 2356.49 25.12V23.12ZM2342.9 26.1162C2339.14 28.1041 2335.94 30.8109 2333.3 34.2278L2334.88 35.4522C2337.35 32.2558 2340.34 29.7359 2343.84 27.8838L2342.9 26.1162ZM2333.29 34.2316C2330.76 37.5331 2328.84 41.3214 2327.53 45.5859L2329.44 46.1741C2330.69 42.1186 2332.51 38.5469 2334.88 35.4484L2333.29 34.2316ZM2327.53 45.6019C2326.33 49.7467 2325.73 54.0003 2325.73 58.36H2327.73C2327.73 54.1863 2328.3 50.12 2329.45 46.1581L2327.53 45.6019Z" fill="white"/>
</svg>
